<?xml version="1.0" encoding="UTF-8"?>
<svg id="Camada_1" data-name="Camada 1" xmlns="http://www.w3.org/2000/svg" viewBox="0 0 836.5632324 836.5635258">
  <circle cx="418.2816772" cy="418.2816772" r="418.2816467" transform="translate(-173.2579436 418.2816772) rotate(-45)" style="fill: #faead3;"/>
  <path d="M232.4084856,375.9943848c23.4165039-78.7950439-40.6308594-134.753418-1.1171875-191.4310303,2.6179199-3.755127,19.8945313-27.842041,50-37,32.4619141-9.8747559,46.8388672,7.6467285,81.5737305,6,52.8503418-2.5056152,58.1188965-44.8973389,108.4262695-52,44.2607422-6.2490234,100.5498047,18.041626,117.9528809,57,19.4350586,43.5070801-18.8779297,72.3171387-3.2529297,125.6866455,9.6577148,32.9875488,37.8535156,54.4433594,62.1599121,67.855957,46.7587891,20.9197998,79.8679199,67.2802734,81.2478027,121.9057617,1.9147949,75.791748-57.9743652,138.7861328-133.7670899,140.7005615-44.4611816,1.1235352-84.5107422-19.0279541-110.4172363-51.175415-91.0737305,70.197998-197.0568848,92.3221435-272.762207,51.2200928-6.880127-3.7354736-78.0688477-43.5404053-78.1611328-100.1936035-.0952148-58.4597168,75.6291504-62.8988037,98.1171875-138.5689697Z" style="fill: #9c446e;"/>
  <path d="M370.6346052,393.4993646c-13.3656681-77.7779046,123.9590473-19.283257,123.9590473-19.283257,0,0,21.0256359,108.7443329,22.5813394,170.3305078-7.4442005,7.0638202-81.538069,33.5575705-103.6740559,30.0085687,2.1227584-.7437897-34.0606172-130.0196759-42.8663308-181.0558195Z" style="fill: #faead3;"/>
  <path d="M412.6819915,579.6686171c-2.3421618-.3745616-4.1303603-2.2917353-4.3405512-4.6545041-.0353955-.3941988-.0249708-.7862158.02788-1.166111-.6097233-4.6818992-6.8446594-29.0626137-12.8769201-52.6667594-10.4920898-41.0371663-24.8614316-97.2381389-29.9610458-126.8020824v-.0026958c-2.9339449-17.0710113.6451188-29.7302247,10.6360957-37.6348085,31.3543184-24.7984043,116.8307394,11.1624215,120.4580476,12.7074579,1.5835836.6756655,2.7293301,2.0919691,3.0556472,3.7817391.2099485,1.0924108,21.1230946,109.8772303,22.6707979,171.1853326.0383047,1.4669724-.5486298,2.8810941-1.6109787,3.8903498-8.5317626,8.0914761-75.2851927,31.7211276-102.893901,31.7184608-1.9222649,0-3.6571277-.1134594-5.1650717-.356379ZM410.104668,570.6434755c.4783237-.4147812,1.0344689-.7457046,1.6567989-.9685021-.655301.2324949-1.2039308.5714186-1.6567989.9685021ZM490.023758,377.92051c-24.9904133-10.234139-86.1186306-29.905534-107.4291272-13.0517152-6.8851397,5.4455685-9.1259638,14.5213544-6.854593,27.7500179,5.0312476,29.1591066,19.339981,85.1273419,29.7889174,125.9950463,7.3098916,28.5898408,11.0739331,43.3136282,12.3964145,51.1091164,22.8380778.1590372,82.0464546-20.6248908,93.9904859-27.7451983-1.8669898-55.3989987-18.7072326-147.1256268-21.8920975-164.0572672ZM411.7638913,569.6749733c.0053336-.0026668.0077579-.0026668.0099398-.0053336-.0021819.0026668-.0046063.0026668-.0099398.0053336ZM370.5853909,393.4988507h.0501776s-.0501776,0-.0501776,0Z" style="fill: #3f1f1f;"/>
  <path d="M337.801672,201.6828379s-34.7612589,92.9814703-23.304287,146.989621c11.4080157,54.0166359,23.07058,123.4043329,80.5903917,123.1381666,46.061142-.2465561,137.8340775-80.2279498,144.0947117-117.5571071,5.8320096-34.7687443-90.8776241-42.014633-54.0520327-137.0667382,13.2924532-34.3496047-111.6799713,16.7772094-147.3287836-15.5039423Z" style="fill: #faead3;"/>
  <path d="M311.0276672,357.374168l-1.5959477-7.6262688c-11.6380866-54.8530357,22.0765898-146.0230338,23.5181066-149.8775033.6000259-1.6090731,1.960812-2.8156368,3.6273082-3.2200179,1.6720722-.4099571,3.4297239.0402442,4.7020141,1.1937485,16.6031485,15.0372555,57.8858954,9.6193245,91.048783,5.2613181,31.6331246-4.1509672,49.8571848-6.0831718,56.6157799,2.5118661,1.899476,2.4180438,3.6193079,6.7130172,1.0167712,13.4410653-22.1905347,57.2756858,6.6851374,80.3593494,29.8873521,98.9077868,13.9094496,11.1187832,27.046987,21.621055,24.4444503,37.1441496-6.6446508,39.6230446-99.919227,121.6161615-149.1795375,121.8794456h-.3668037c-58.7579258,0-72.5963416-66.3109851-83.7182765-119.6155902ZM433.6763533,213.3771276c-33.7275181,4.4292823-71.5446608,9.3970455-93.2976003-3.4270235-7.4536552,21.8106389-30.1171795,93.7926568-20.8120581,137.6524904l1.6039558,7.657028c10.8940463,52.2093151,23.232761,111.3696612,73.588142,111.3696612h.3011039c43.493031-.2324677,133.1628454-78.3456595,139.0135224-113.2341965,1.5203081-9.0576033-6.872297-16.2891884-20.6930154-27.3374231-24.4849369-19.5729665-58.0197194-46.3770651-33.0819144-110.7405403.7003939-1.8109873.7510628-2.9795226.4982033-3.2980818-1.2194466-1.5530368-5.1827694-2.1375469-10.613792-2.1375469-9.8770329,0-24.6107605,1.9348714-36.5065473,3.4956325Z" style="fill: #3f1f1f;"/>
  <path d="M634.5080566,601.9685059l-243.1630859-90.6264648c-34.5400391-10.8807373-72.0112305,3.5203857-89.2121582,34.286377l-49.8850098,89.2209473c-24.9553223,34.1020508-36.5683594,76.0748291-32.6745605,118.0964355l-.0625,33.4438477c24.6191406,13.3220215,50.7243652,24.2487793,78.0041504,32.465332,19.7553711,5.9501953,64.0151367,17.6811523,120.7668457,17.7084961,12.4782715.0061035,39.7211914-.546875,71.875-6.1520996,16.7827148-2.9255371,30.5456543-6.4680176,36.3493652-8.0175781,14.3479004-3.8305664,25.3215332-7.5656738,30.418457-9.3552246,17.291748-6.0708008,32.7678223-12.8215332,46.3742676-19.5922852,14.6325684-7.2446289,30.8959961-16.3562012,47.947998-27.8237305,15.2973633-10.2875977,29.8798828-21.557373,43.6569824-33.7185059,2.1586914-9.5087891,4.0852051-19.0776367,5.5258789-28.7523193l2.7609863-18.5411377c6.5830078-44.1992188-18.5683594-66.668335-68.6826172-82.6420898Z" style="fill: #afccd2;"/>
  <path d="M511.9480994,402.2643492c-16.1919724,13.228935-41.0621381,41.6075874-67.3709113,51.9643986-4.512195,10.7131902,53.8001431,16.1146358,65.30561,3.5604237.3178319-32.7114734,5.7534608-57.486604,5.7534608-57.486604,0,0-.2826789-.4640489-.7597904-1.2259923-.7847612,1.1370188-1.7329234,2.2066408-2.928369,3.187774Z" style="fill: #3f1f1f;"/>
  <path d="M410.4845633,289.2468621c-3.2321397,7.2306153-2.083484,15.6420988,2.5652018,18.7882054,4.6486857,3.145348,11.0375679-.1663102,14.2694651-7.3969255,3.2323821-7.2311002,2.0839688-15.642615-2.5647169-18.7882054-4.6489282-3.1458328-11.0375679.1658253-14.26995,7.3969255Z" style="fill: #3f1f1f;"/>
  <path d="M382.3385758,365.4656267c2.380224,0,4.5223709-1.6519501,5.053794-4.0750851.6097233-2.7921206-1.1607774-5.5517549-3.9536253-6.1665694-6.8822366-1.5127926-17.3847508-5.7847347-19.1775623-10.5449711-.2155177-.5745703-.8730006-2.3195845,1.5981364-5.6811843,13.1249241-17.849983,18.1106004-42.4078921,18.3157001-43.4423611.5563877-2.8056969-1.2650243-5.5294509-4.0702364-6.0882629-2.8095759-.5641456-5.5340572,1.2645395-6.0928757,4.0668423-.0455712.2327373-4.7633507,23.3670698-16.4996151,39.3272742-4.8004497,6.5261-4.2493956,12.0223374-2.9419452,15.4828505,4.4826178,11.8625729,24.4041991,16.5117434,26.6627273,17.002401.3694642.080761.7413654.1190657,1.1055023.1190657Z" style="fill: #3f1f1f;"/>
  <path d="M523.5212056,328.8548757c5.9830464,15.073348,10.817922,29.6158245,14.5725085,43.2113208,13.9673915-.8162777,25.6280166-8.9783569,28.953736-22.1030152,4.5841981-18.0902358-8.3375724-38.5626352-28.8620957-45.7236717-9.0192988-3.1470764-17.9241685-3.0471619-25.5550437-.5828131,3.7754359,8.0737722,7.4330485,16.4860453,10.8908949,25.1981792Z" style="fill: #faead3;"/>
  <path d="M446.9988685,281.7044758c1.4313346,0,2.8553961-.5896012,3.8799252-1.7457724,1.8970517-2.1421531,1.6997098-5.4155066-.4429282-7.3123158-6.4269444-5.6911871-15.231931-10.0394639-24.7957382-12.2451349-12.1054928-2.7921206-23.5714428-1.7726826-31.460511,2.7901811-2.4767131,1.4318194-3.3235376,4.600926-1.892203,7.0771541,1.4291527,2.4786525,4.6009261,3.3235375,7.0771543,1.8922029,5.5546643-3.2076537,14.511415-3.8321655,23.9486713-1.6616475,7.9072508,1.8206847,15.1002889,5.3391397,20.2532389,9.9024883.9862244.8722801,2.2129441,1.3028441,3.4323908,1.3028441Z" style="fill: #3f1f1f;"/>
  <path d="M325.6484199,289.2354677c-2.9077619,7.3673485-1.3862417,15.7194668,3.3977225,18.6551087,4.7844491,2.9361268,11.019385-.6565132,13.9269045-8.0236193,2.9072771-7.3673485,1.3857568-15.7201941-3.3982146-18.6555936-4.783957-2.9356419-11.0193778.6562708-13.9264124,8.0241041Z" style="fill: #3f1f1f;"/>
  <path d="M362.4078257,281.3121845c1.4313345,0,2.8553895-.5895694,3.8799251-1.7450132,1.8970516-2.142638,1.6997098-5.4159915-.4429282-7.3130431-6.4269442-5.6935792-15.2345974-10.0392215-24.7957376-12.2419833-12.1004014-2.7872719-23.5636843-1.7755918-31.4578435,2.7870295-2.4793798,1.4291526-3.3262043,4.5985016-1.8948697,7.0752147,1.4291526,2.4786525,4.6086839,3.3281437,7.0749644,1.8943848,5.5672786-3.2173511,14.524029-3.8348323,23.9508604-1.6592232,7.9072506,1.8182603,15.0978642,5.3367153,20.2532383,9.8998215.9862244.8730074,2.2129441,1.3028123,3.4323907,1.3028123Z" style="fill: #3f1f1f;"/>
  <path d="M551.6528455,450.1296892c10.739858,0,20.3972451-4.0571449,27.3859107-11.5493473,7.8791284-8.44788,11.3798857-20.0830492,9.8569108-32.7633831-1.5986145-13.3321834-8.7286196-26.1363728-19.5593907-35.1256095-2.2005799-1.8211696-5.4688424-1.5229749-7.2948607.677605-1.8265032,2.2005799-1.5229749,5.4688423.677605,7.2948605,8.812502,7.3130431,14.6049948,17.6603991,15.8923231,28.3876503,1.15108,9.5970205-1.3889085,18.2851533-7.1481877,24.4621474-5.3345336,5.7214592-12.9583782,8.6098264-21.4491693,8.2153851-19.0160945-.948647-36.4284833-17.9004095-38.8164653-37.7892684-1.15108-9.5965357,1.3886661-18.2851533,7.1481877-24.4621474,5.3345336-5.7217017,12.9608025-8.622433,21.4491693-8.2153851,2.8103033.1973419,5.2889558-2.0539069,5.4310226-4.9143941.1440062-2.8585477-2.0565737-5.2889557-4.9151215-5.4310224-11.6099563-.6019654-22.0889545,3.503424-29.5406705,11.4938297-7.8791284,8.44788-11.3798857,20.0832916-9.8569108,32.7633544,2.9594006,24.6745202,24.7552516,45.7139467,48.5848874,46.9004498.7229403.0377922,1.4415168.0552751,2.1547598.0552751Z" style="fill: #d09e97;"/>
  <rect x="386.3837982" y="508.6187036" width="10.3630495" height="116.2238003" transform="translate(-79.3916358 64.0313673) rotate(-8.4913972)" style="fill: #c6e0f5;"/>
  <path d="M219.5112299,791.5693861c2.8558809,0,5.1750114-2.3113536,5.1801025-5.1696588l.0632755-33.4441111c-3.8018612-41.2672368,7.4543826-81.950206,31.6733679-115.0471505.1238841-.1699467.2378285-.3466816.3415905-.5316593l49.8850555-89.2220352c15.9934184-28.6053566,50.9646266-42.0136933,83.1337743-31.8728917l242.9118062,90.5399103c52.1717333,16.63587,71.0411548,38.927257,65.3652731,77.0253872l-2.7601193,18.5431039c-1.2696306,8.5215802-3.052738,17.801981-5.4533266,28.3648614-.6344517,2.7901811,1.1132602,5.5672707,3.9029565,6.1997829,2.8003634.6499675,5.5646041-1.1132602,6.1995406-3.9029564,2.4585305-10.8234978,4.2898824-20.3519093,5.6004844-29.1365311l2.759392-18.542619c8.1853234-54.9468579-31.921137-75.490533-72.2325517-88.3400577l-242.9294312-90.5452438c-37.0883838-11.7057177-77.1621145,3.7412264-95.5430379,36.6134601l-49.7308668,88.9463639c-25.5824382,35.0905082-37.4653756,78.1842481-33.4615664,121.3764166l-.0860643,32.9556051c-.0051015,2.8604872,2.3094331,5.1854361,5.1699202,5.1900234h.0104247Z" style="fill: #3f1f1f;"/>
  <path d="M535.3270491,567.411118l-10.4661492-70.5805028-3.1223167-22.8998981c-46.2221186,12.5687852-92.4798752,24.4192364-138.7570265,35.3271015l3.4304513,22.799747,13.7373209,92.1501872s54.7878221,23.5932614,135.1777203-56.7966348Z" style="fill: #afccd2;"/>
  <path d="M398.1000281,628.9640794c-1.646859-.7079094-2.8103033-2.220702-3.0760117-3.9938695l-17.1641294-114.941449c-.4024416-2.6658121,1.3101172-5.1953759,3.9327759-5.8123985,43.9890463-10.3681791,90.6162734-22.2385368,138.5868312-35.2829521,1.4310921-.384259,2.969098-.1440333,4.2186065.6780899,1.2422355.8247629,2.0716047,2.1423956,2.2716133,3.6195503l3.1164983,22.8405016,10.4639673,70.5807452c.2402528,1.6214034-.3008615,3.2629288-1.4618814,4.4212819-51.746721,51.7493865-93.3834294,61.6290859-117.6378108,61.6290859-14.1446112,0-22.3774519-3.3613573-23.2504593-3.7385857ZM519.7292841,497.5307666l-2.3268884-17.0557669c-44.3961003,12.0123711-87.6064525,23.0099635-128.5878598,32.7255346l15.9834786,107.0572064c11.4203723,3.0355483,59.1271612,10.2040773,125.0187358-54.6777321l-10.0874662-68.049242Z" style="fill: #3f1f1f;"/>
  <path d="M380.7693197,409.3325039c-14.1216352,2.083907-21.379894-6.0658223-26.0067469-12.8775694-4.6403252-6.8240328-5.4670416-15.7994879,6.4073449-18.4513758,7.6821757-1.7097929,13.8038142,5.0330962,13.8038142,5.0330962,10.1633036-18.2111779,29.3240397-3.1328804,27.6348727-1.9574224,1.4445699,16.5013324-11.2845335,26.6694354-21.8392849,28.2532714Z" style="fill: #d09e97;"/>
  <path d="M351.4264266,392.9928242c-2.0569538-.6413179-3.1911263-2.8359686-2.5363362-4.8806366.6290134-2.043461,2.8359686-3.1911263,4.8806366-2.5363362,31.713731,10.0578489,45.1982511-6.1368633,45.7700608-6.8992765,1.36727-1.7158762,3.7692364-1.9944043,5.4569797-.677503,1.7135218,1.3157336,2.0201828,3.7680686.6909958,5.4692842-.0602776.0931996-.3049361.3885463-.7105888.833377-3.5525144,3.8956163-20.1871142,19.2669543-53.5517479,8.6910911Z" style="fill: #3f1f1f;"/>
  <path d="M339.9619602,710.9138981c-5.0173118,3.5281496-7.3682529,10.6025493-5.2514903,15.801355,2.1170482,5.1982304,7.9006998,6.552306,12.9178394,3.0240097,5.0176665-3.5283706,7.3687916-10.6026473,5.2518346-15.8010616-2.1170378-5.1987449-7.9005172-6.5526737-12.9181837-3.0243031Z" style="fill: #3f1f1f;"/>
  <g>
    <path d="M376.6602705,655.20987c-5.5202244,2.6736454-8.9803001,9.2768212-7.7288439,14.7487608,1.2518308,5.4714178,6.7417415,7.7396829,12.2618197,5.0658651,5.5206101-2.6738064,8.9808475-9.2768312,7.7291364-14.7484157-1.2517377-5.4719238-6.7415021-7.7400165-12.2621122-5.0662101Z" style="fill: #3f1f1f;"/>
    <path d="M326.1228255,772.8621928c-5.5202244,2.6736454-8.9803001,9.2768212-7.7288439,14.7487608,1.2518308,5.4714178,6.7417415,7.7396829,12.2618197,5.0658651,5.5206101-2.6738064,8.9808475-9.2768312,7.7291364-14.7484157-1.2517377-5.4719238-6.7415021-7.7400165-12.2621122-5.0662101Z" style="fill: #3f1f1f;"/>
  </g>
  <path d="M549.7634277,774.4760742c-19.4074707,18.564209-38.8146973,37.1286621-58.222168,55.6928711,12.5666504-2.2255859,26.2556152-5.2443848,40.793457-9.3562012,16.4807129-4.661377,31.3293457-9.9575195,44.442627-15.3227539-9.0046387-10.3378906-18.0092773-20.6760254-27.013916-31.013916Z" style="fill: #faead3;"/>
  <path d="M556.0268555,768.3327637c-.8312988-1.2370605-2.1569824-2.0534668-3.6357422-2.2456055,0,0-1.9094238-.2453613-4.0847168,1.253418-4.9042969,3.3786621-65.2167969,61.4504395-68.6420898,64.75,1.96875-.286377,3.9587402-.5915527,5.96875-.9160156,3.4436035-.5559082,6.8139648-1.1477051,10.1096191-1.7697754,12.2407227-11.9643555,25.1257324-24.0292969,38.6809082-36.1206055,5.4562988-4.8671875,10.8930664-9.6240234,16.3049316-14.2729492l9.6157227,14.277832c3.3474121,4.9194336,6.6948242,9.8391113,10.0422363,14.7585449,3.2675781-1.3242188,6.5354004-2.6486816,9.8029785-3.9729004-3.7617188-5.5405273-7.5236816-11.0812988-11.2854004-16.6218262-4.2924805-6.373291-8.5847168-12.7468262-12.8771973-19.1201172Z" style="fill: #3f1f1f;"/>
</svg>