<svg xmlns="http://www.w3.org/2000/svg" xmlns:xlink="http://www.w3.org/1999/xlink" width="1080" zoomAndPan="magnify" viewBox="0 0 810 809.999993" height="1080" preserveAspectRatio="xMidYMid meet" version="1.0"><defs><g/><clipPath id="3be5c1365c"><path d="M 0.328125 174 L 64 174 L 64 244.71875 L 0.328125 244.71875 Z M 0.328125 174 " clip-rule="nonzero"/></clipPath><clipPath id="70cfc0800a"><path d="M 257 172.039062 L 334 172.039062 L 334 244 L 257 244 Z M 257 172.039062 " clip-rule="nonzero"/></clipPath><clipPath id="5a4f97124d"><path d="M 603 190 L 653.046875 190 L 653.046875 241 L 603 241 Z M 603 190 " clip-rule="nonzero"/></clipPath><clipPath id="c661160c35"><rect x="0" width="280" y="0" height="28"/></clipPath><clipPath id="026a2d346d"><path d="M 276 80 L 400.910156 80 L 400.910156 150 L 276 150 Z M 276 80 " clip-rule="nonzero"/></clipPath><clipPath id="fafa957241"><path d="M 252.695312 0.125 L 396 0.125 L 396 158 L 252.695312 158 Z M 252.695312 0.125 " clip-rule="nonzero"/></clipPath><clipPath id="df04e5bd69"><path d="M 366 127 L 400.910156 127 L 400.910156 150 L 366 150 Z M 366 127 " clip-rule="nonzero"/></clipPath><clipPath id="6f87dc9090"><rect x="0" width="654" y="0" height="297"/></clipPath></defs><g transform="matrix(1, 0, 0, 1, 78, 257)"><g clip-path="url(#6f87dc9090)"><path fill="#9c446e" d="M 442.730469 232.851562 C 441.867188 229.59375 442.375 218.445312 442.253906 215.070312 C 441.335938 199.585938 427.863281 191.121094 416.410156 201.09375 C 411.867188 205.261719 411.261719 210.664062 411.15625 212.113281 C 411.152344 212.191406 411.148438 212.265625 411.148438 212.339844 C 411.132812 220.972656 411.113281 229.609375 411.097656 238.242188 C 411.09375 240.089844 409.59375 241.585938 407.746094 241.585938 C 405.851562 241.585938 404.347656 240.019531 404.398438 238.132812 C 404.773438 224.242188 400.421875 206.136719 411.253906 195.835938 C 418.371094 189.054688 435.148438 186.292969 443.429688 198.378906 C 452.214844 211.378906 448.308594 217.054688 449.1875 228.675781 C 449.507812 232.835938 449.636719 234.300781 451.820312 234.632812 C 453.480469 234.886719 454.730469 236.273438 454.730469 237.953125 L 454.730469 238.207031 C 454.730469 240.253906 452.90625 241.847656 450.882812 241.519531 C 446.144531 240.75 443.621094 237.316406 442.730469 232.851562 Z M 442.730469 232.851562 " fill-opacity="1" fill-rule="nonzero"/><path fill="#9c446e" d="M 378.597656 191.117188 C 379.125 190.585938 380.585938 190.214844 382.140625 190.011719 C 384.144531 189.753906 385.921875 191.316406 385.921875 193.335938 L 385.921875 193.503906 C 385.921875 195.210938 384.636719 196.648438 382.941406 196.832031 C 382.128906 196.921875 381.441406 197.195312 381.230469 197.921875 C 379.585938 202.640625 380.671875 210.125 380.382812 215.417969 C 380.378906 215.480469 380.378906 215.546875 380.378906 215.613281 C 380.800781 236.390625 359.648438 249.917969 342.566406 235.730469 C 342.484375 235.664062 342.40625 235.59375 342.332031 235.519531 C 331.613281 225.140625 335.96875 207.179688 335.589844 193.339844 C 335.539062 191.445312 337.042969 189.882812 338.9375 189.882812 C 340.785156 189.882812 342.28125 191.378906 342.285156 193.226562 C 342.304688 201.859375 342.320312 210.492188 342.335938 219.128906 C 342.335938 219.203125 342.339844 219.277344 342.34375 219.351562 C 342.449219 220.800781 343.054688 226.203125 347.601562 230.375 C 359.066406 240.351562 372.523438 231.875 373.441406 216.394531 C 374.203125 208.578125 370.691406 196.882812 378.597656 191.117188 Z M 378.597656 191.117188 " fill-opacity="1" fill-rule="nonzero"/><g clip-path="url(#3be5c1365c)"><path fill="#9c446e" d="M 50.453125 219.960938 C 50.453125 217.789062 52.546875 216.234375 54.632812 216.855469 C 69.578125 221.296875 64.164062 243.851562 48.546875 243.976562 C 34.855469 244.378906 17.9375 243.8125 3.636719 243.726562 C 1.820312 243.714844 0.371094 242.214844 0.417969 240.398438 L 0.4375 239.609375 C 0.476562 238.167969 1.453125 236.902344 2.851562 236.558594 C 12.972656 234.089844 6.53125 212.238281 5.140625 202.164062 C 4.457031 194.269531 5.855469 187.847656 9.300781 183.085938 C 13.457031 177.34375 20.273438 174.429688 29.566406 174.429688 C 46.96875 173.609375 51.921875 187.847656 50.410156 197.960938 C 50.117188 199.914062 48.171875 201.167969 46.277344 200.605469 L 45.773438 200.457031 C 44.214844 199.996094 43.265625 198.453125 43.496094 196.84375 C 44.492188 189.984375 42.125 180.730469 29.566406 181.363281 C 23.515625 181.457031 18.558594 182.539062 15.101562 186.914062 C 14.980469 187.070312 14.871094 187.238281 14.777344 187.414062 C 6.355469 203.347656 19.460938 215.515625 14.328125 232.777344 C 13.714844 234.84375 15.222656 236.929688 17.378906 236.960938 C 28.285156 237.125 41.207031 237.328125 48.285156 237.046875 C 52.296875 236.894531 55.679688 234.125 56.511719 230.3125 C 57.074219 227.675781 55.519531 224.34375 52.703125 223.347656 C 51.375 222.878906 50.453125 221.675781 50.453125 220.269531 C 50.453125 220.167969 50.453125 220.066406 50.453125 219.960938 Z M 50.453125 219.960938 " fill-opacity="1" fill-rule="nonzero"/></g><path fill="#9c446e" d="M 109.390625 191.117188 C 109.917969 190.585938 111.378906 190.214844 112.933594 190.011719 C 114.9375 189.753906 116.714844 191.316406 116.714844 193.335938 L 116.714844 193.503906 C 116.714844 195.210938 115.429688 196.648438 113.734375 196.832031 C 112.921875 196.921875 112.234375 197.195312 112.023438 197.921875 C 110.378906 202.640625 111.464844 210.125 111.175781 215.417969 C 111.171875 215.484375 111.171875 215.546875 111.171875 215.613281 C 111.597656 236.390625 90.445312 249.917969 73.359375 235.730469 C 73.28125 235.664062 73.199219 235.59375 73.125 235.519531 C 62.410156 225.136719 66.761719 207.179688 66.382812 193.339844 C 66.332031 191.445312 67.835938 189.882812 69.730469 189.882812 C 71.578125 189.882812 73.074219 191.378906 73.078125 193.226562 C 73.097656 201.859375 73.113281 210.492188 73.128906 219.128906 C 73.128906 219.203125 73.132812 219.277344 73.136719 219.351562 C 73.246094 220.800781 73.847656 226.203125 78.394531 230.375 C 89.859375 240.351562 103.316406 231.875 104.234375 216.394531 C 104.996094 208.578125 101.484375 196.882812 109.390625 191.117188 Z M 109.390625 191.117188 " fill-opacity="1" fill-rule="nonzero"/><path fill="#9c446e" d="M 153.3125 233.808594 L 177.761719 233.808594 C 179.554688 233.808594 181.003906 235.261719 181.003906 237.054688 L 181.003906 237.503906 C 181.003906 239.292969 179.554688 240.746094 177.761719 240.746094 L 138.238281 240.746094 C 135.46875 240.746094 133.972656 237.496094 135.777344 235.390625 L 164.015625 202.441406 C 165.816406 200.335938 164.324219 197.085938 161.550781 197.085938 L 136.230469 197.085938 C 134.4375 197.085938 132.988281 195.636719 132.988281 193.84375 L 132.988281 193.394531 C 132.988281 191.605469 134.4375 190.152344 136.230469 190.152344 L 176.628906 190.152344 C 179.398438 190.152344 180.890625 193.402344 179.089844 195.507812 L 150.851562 228.457031 C 149.050781 230.5625 150.542969 233.808594 153.3125 233.808594 Z M 153.3125 233.808594 " fill-opacity="1" fill-rule="nonzero"/><path fill="#9c446e" d="M 229.695312 234.121094 C 229.882812 234.453125 230.535156 234.582031 231.300781 234.621094 C 233.015625 234.710938 234.375 236.097656 234.375 237.816406 L 234.375 238.339844 C 234.375 240.238281 232.746094 241.753906 230.851562 241.574219 C 227.390625 241.242188 224.78125 239.746094 223.226562 236.945312 C 222.242188 235.160156 219.855469 234.789062 218.269531 236.070312 C 210.421875 242.421875 198.195312 244.054688 190.210938 237.910156 C 186.835938 235.25 184.976562 231.4375 184.976562 227.183594 C 185.625 209.988281 201.1875 209.230469 217.640625 209.070312 C 219.871094 209.050781 221.421875 206.832031 220.664062 204.730469 C 218.824219 199.628906 214.234375 195.847656 207.539062 196.144531 C 207.453125 196.148438 207.367188 196.148438 207.285156 196.144531 C 198.519531 195.691406 192.847656 201.21875 191.65625 206.992188 C 191.355469 208.460938 190.035156 209.5 188.535156 209.519531 L 188.175781 209.527344 C 186.09375 209.554688 184.523438 207.644531 184.957031 205.609375 C 185.566406 202.726562 186.988281 198.765625 190.269531 195.433594 C 197.351562 187.558594 215.984375 186.75 223.09375 195.394531 C 233.367188 206.996094 225.492188 224.128906 229.695312 234.121094 Z M 220.527344 220.117188 C 221.121094 218.035156 219.5625 215.960938 217.398438 215.972656 C 207.542969 216.03125 198.003906 216.617188 194.230469 220.535156 C 188.828125 226.738281 193.074219 234.992188 201.765625 234.824219 C 210.945312 235.054688 218.050781 228.832031 220.527344 220.117188 Z M 220.527344 220.117188 " fill-opacity="1" fill-rule="nonzero"/><g clip-path="url(#70cfc0800a)"><path fill="#9c446e" d="M 322.121094 232.667969 C 324.738281 234.429688 327.5 235.714844 330.472656 236.21875 C 332.074219 236.492188 333.242188 237.890625 333.242188 239.515625 L 333.242188 239.761719 C 333.242188 241.824219 331.394531 243.40625 329.363281 243.074219 C 324.40625 242.253906 320.078125 239.925781 316.167969 236.921875 C 315.003906 236.027344 313.402344 235.960938 312.203125 236.800781 C 300.886719 244.757812 283.523438 244.914062 272.320312 236.75 L 272.246094 236.847656 C 244.054688 218.125 257.761719 171.5 292.253906 172.054688 C 320.605469 171.121094 337.480469 206.082031 321.320312 227.875 C 320.179688 229.414062 320.53125 231.59375 322.121094 232.667969 Z M 292.253906 178.988281 C 275.328125 178.65625 262.28125 194.320312 263.832031 210.273438 C 264.109375 213.113281 267.5625 214.351562 269.558594 212.3125 C 282.882812 198.734375 299.515625 208.976562 311.46875 222.578125 C 312.949219 224.265625 315.640625 224.015625 316.824219 222.109375 C 327.753906 204.503906 314.273438 178.265625 292.253906 178.988281 Z M 275.382812 230.421875 C 283.507812 236.816406 296.15625 237.617188 305.402344 232.8125 C 307.359375 231.792969 307.777344 229.175781 306.269531 227.566406 C 303.019531 224.09375 299.679688 220.386719 296.441406 217.734375 C 296.367188 217.671875 296.292969 217.605469 296.226562 217.535156 C 285.585938 206.761719 261.882812 217.757812 275.382812 230.421875 Z M 275.382812 230.421875 " fill-opacity="1" fill-rule="nonzero"/></g><path fill="#9c446e" d="M 493.722656 221.484375 L 496.765625 221.449219 C 498.929688 221.421875 500.550781 223.429688 500.074219 225.539062 C 494.347656 250.960938 452.378906 245.972656 456.601562 216.300781 L 456.722656 216.300781 C 458.128906 194.554688 478.277344 182.601562 494.753906 192.953125 C 494.878906 193.03125 495 193.117188 495.113281 193.210938 C 498.378906 195.863281 500.171875 199.617188 500.171875 203.800781 C 499.671875 220.945312 483.664062 221.785156 467.519531 221.917969 C 465.222656 221.9375 463.625 224.214844 464.386719 226.382812 C 469.164062 240.027344 494.277344 236.316406 493.722656 221.484375 Z M 467.902344 215.003906 C 477.910156 214.933594 486.785156 214.382812 490.78125 210.582031 C 490.875 210.492188 490.964844 210.398438 491.046875 210.296875 C 496.253906 204.109375 492.003906 195.992188 483.382812 196.160156 C 474.257812 195.929688 467.175781 202.082031 464.660156 210.722656 C 464.035156 212.871094 465.664062 215.019531 467.902344 215.003906 Z M 467.902344 215.003906 " fill-opacity="1" fill-rule="nonzero"/><path fill="#9c446e" d="M 514.925781 234.144531 C 515.085938 234.417969 515.5625 234.546875 516.148438 234.601562 C 517.890625 234.757812 519.242188 236.179688 519.242188 237.925781 L 519.242188 238.234375 C 519.242188 240.242188 517.484375 241.792969 515.488281 241.558594 C 504.605469 240.277344 506.972656 226.53125 506.765625 218.503906 L 506.691406 218.503906 L 506.691406 177.550781 C 506.691406 175.699219 508.191406 174.199219 510.039062 174.199219 L 510.277344 174.199219 C 512.125 174.199219 513.625 175.699219 513.625 177.550781 L 513.625 213.015625 L 513.699219 213.015625 C 514.175781 216.988281 512.476562 230.871094 514.925781 234.144531 Z M 514.925781 234.144531 " fill-opacity="1" fill-rule="nonzero"/><path fill="#9c446e" d="M 567.339844 234.121094 C 567.527344 234.445312 568.152344 234.574219 568.898438 234.617188 C 570.65625 234.71875 572.019531 236.199219 572.019531 237.960938 L 572.019531 238.222656 C 572.019531 240.1875 570.335938 241.765625 568.382812 241.5625 C 565 241.210938 562.4375 239.734375 560.902344 236.992188 C 559.890625 235.191406 557.480469 234.808594 555.871094 236.105469 C 548.019531 242.429688 535.828125 244.042969 527.855469 237.910156 C 524.480469 235.25 522.621094 231.4375 522.621094 227.183594 C 523.269531 209.988281 538.832031 209.230469 555.28125 209.070312 C 557.578125 209.046875 559.167969 206.773438 558.410156 204.605469 C 553.949219 191.835938 531.644531 194.25 529.269531 206.789062 C 528.96875 208.355469 527.621094 209.5 526.027344 209.523438 L 525.714844 209.527344 C 523.59375 209.558594 521.988281 207.640625 522.371094 205.554688 C 525.113281 190.597656 548.261719 182.664062 560.738281 195.394531 C 571.011719 206.996094 563.140625 224.128906 567.339844 234.121094 Z M 558.132812 220.253906 C 558.757812 218.105469 557.136719 215.960938 554.898438 215.972656 C 545.097656 216.035156 535.632812 216.636719 531.875 220.535156 C 526.472656 226.738281 530.71875 234.992188 539.410156 234.824219 C 548.539062 235.054688 555.621094 228.898438 558.132812 220.253906 Z M 558.132812 220.253906 " fill-opacity="1" fill-rule="nonzero"/><g clip-path="url(#5a4f97124d)"><path fill="#9c446e" d="M 653.5625 215.492188 C 653.5625 229.300781 642.328125 240.535156 628.519531 240.535156 C 614.710938 240.535156 603.476562 229.300781 603.476562 215.492188 C 603.476562 201.683594 614.710938 190.449219 628.519531 190.449219 C 642.328125 190.449219 653.5625 201.683594 653.5625 215.492188 Z M 646.628906 215.492188 C 646.628906 205.507812 638.503906 197.382812 628.519531 197.382812 C 618.535156 197.382812 610.410156 205.507812 610.410156 215.492188 C 610.410156 225.476562 618.535156 233.597656 628.519531 233.597656 C 638.503906 233.597656 646.628906 225.476562 646.628906 215.492188 Z M 646.628906 215.492188 " fill-opacity="1" fill-rule="nonzero"/></g><path fill="#9c446e" d="M 393.640625 189.882812 L 393.636719 189.882812 C 393.636719 189.890625 393.636719 189.898438 393.636719 189.90625 L 393.492188 189.90625 C 391.644531 189.90625 390.144531 191.40625 390.144531 193.253906 L 390.144531 238.28125 C 390.144531 240.132812 391.644531 241.632812 393.492188 241.632812 L 393.726562 241.632812 C 395.578125 241.632812 397.078125 240.132812 397.078125 238.28125 L 397.078125 193.253906 C 397.078125 191.40625 395.578125 189.90625 393.726562 189.90625 L 393.640625 189.90625 C 393.640625 189.898438 393.640625 189.890625 393.640625 189.882812 Z M 393.640625 189.882812 " fill-opacity="1" fill-rule="nonzero"/><path fill="#9c446e" d="M 124.300781 189.882812 L 124.292969 189.882812 C 124.292969 189.890625 124.292969 189.898438 124.292969 189.90625 L 124.042969 189.90625 C 122.253906 189.90625 120.800781 191.359375 120.800781 193.148438 L 120.800781 238.390625 C 120.800781 240.179688 122.253906 241.632812 124.042969 241.632812 L 124.492188 241.632812 C 126.285156 241.632812 127.734375 240.179688 127.734375 238.390625 L 127.734375 193.148438 C 127.734375 191.359375 126.285156 189.90625 124.492188 189.90625 L 124.296875 189.90625 C 124.296875 189.898438 124.300781 189.890625 124.300781 189.882812 Z M 124.300781 189.882812 " fill-opacity="1" fill-rule="nonzero"/><path fill="#9c446e" d="M 581.132812 174.199219 L 581.1875 174.199219 L 581.1875 187.863281 L 581.132812 187.863281 Z M 581.132812 174.199219 " fill-opacity="1" fill-rule="nonzero"/><path fill="#9c446e" d="M 601.246094 221.648438 L 601.246094 216.605469 C 601.246094 214.753906 599.746094 213.253906 597.898438 213.253906 L 597.710938 213.253906 C 595.863281 213.253906 594.363281 214.753906 594.363281 216.605469 L 594.363281 227.945312 C 594.339844 228.527344 594.167969 231.574219 591.714844 233.597656 C 589.96875 235.539062 585.605469 235.578125 583.835938 233.597656 C 581.757812 231.875 581.363281 229.441406 581.277344 228.609375 C 581.265625 228.507812 581.261719 228.40625 581.257812 228.300781 C 581.191406 218.636719 581.167969 208.871094 581.191406 199.140625 C 581.195312 197.289062 582.699219 195.796875 584.546875 195.800781 C 588.996094 195.804688 593.445312 195.8125 597.890625 195.820312 C 599.742188 195.824219 601.246094 194.320312 601.246094 192.46875 L 601.246094 191.214844 C 601.246094 189.363281 599.746094 187.863281 597.898438 187.863281 L 584.484375 187.863281 C 582.632812 187.863281 581.132812 186.363281 581.132812 184.515625 L 581.132812 177.550781 C 581.132812 175.699219 579.632812 174.199219 577.785156 174.199219 L 577.605469 174.199219 C 575.753906 174.199219 574.253906 175.703125 574.257812 177.554688 C 574.28125 194.546875 574.304688 211.539062 574.328125 228.53125 C 573.960938 235.480469 580.398438 242.074219 588.109375 241.523438 C 588.277344 241.511719 588.445312 241.511719 588.609375 241.523438 C 595.273438 242.042969 601.015625 235.988281 601.246094 230.195312 C 601.4375 227.328125 601.066406 225.191406 601.246094 221.648438 Z M 601.246094 221.648438 " fill-opacity="1" fill-rule="nonzero"/><path fill="#9c446e" d="M 124.042969 180.0625 L 124.492188 180.0625 C 124.921875 180.0625 125.335938 180.144531 125.734375 180.308594 C 126.132812 180.476562 126.480469 180.710938 126.785156 181.011719 C 127.089844 181.316406 127.324219 181.667969 127.488281 182.066406 C 127.652344 182.460938 127.734375 182.875 127.734375 183.304688 L 127.734375 183.753906 C 127.734375 184.183594 127.652344 184.597656 127.488281 184.996094 C 127.324219 185.394531 127.089844 185.742188 126.785156 186.046875 C 126.480469 186.351562 126.132812 186.585938 125.734375 186.75 C 125.335938 186.914062 124.921875 186.996094 124.492188 186.996094 L 124.042969 186.996094 C 123.613281 186.996094 123.199219 186.914062 122.804688 186.75 C 122.40625 186.585938 122.054688 186.351562 121.75 186.046875 C 121.445312 185.742188 121.214844 185.394531 121.046875 184.996094 C 120.882812 184.597656 120.800781 184.183594 120.800781 183.753906 L 120.800781 183.304688 C 120.800781 182.875 120.882812 182.460938 121.046875 182.066406 C 121.214844 181.667969 121.445312 181.316406 121.75 181.011719 C 122.054688 180.710938 122.40625 180.476562 122.804688 180.308594 C 123.199219 180.144531 123.613281 180.0625 124.042969 180.0625 Z M 124.042969 180.0625 " fill-opacity="1" fill-rule="nonzero"/><path fill="#9c446e" d="M 393.492188 180.0625 L 393.726562 180.0625 C 394.171875 180.0625 394.601562 180.148438 395.011719 180.320312 C 395.421875 180.488281 395.78125 180.730469 396.097656 181.042969 C 396.410156 181.359375 396.652344 181.722656 396.824219 182.132812 C 396.992188 182.542969 397.078125 182.96875 397.078125 183.414062 L 397.078125 183.648438 C 397.078125 184.09375 396.992188 184.519531 396.824219 184.929688 C 396.652344 185.339844 396.410156 185.703125 396.097656 186.015625 C 395.78125 186.332031 395.421875 186.574219 395.011719 186.742188 C 394.601562 186.914062 394.171875 186.996094 393.726562 186.996094 L 393.492188 186.996094 C 393.050781 186.996094 392.621094 186.914062 392.210938 186.742188 C 391.800781 186.574219 391.4375 186.332031 391.125 186.015625 C 390.808594 185.703125 390.570312 185.339844 390.398438 184.929688 C 390.226562 184.519531 390.144531 184.09375 390.144531 183.648438 L 390.144531 183.414062 C 390.144531 182.96875 390.226562 182.542969 390.398438 182.132812 C 390.570312 181.722656 390.808594 181.359375 391.125 181.042969 C 391.4375 180.730469 391.800781 180.488281 392.210938 180.320312 C 392.621094 180.148438 393.050781 180.0625 393.492188 180.0625 Z M 393.492188 180.0625 " fill-opacity="1" fill-rule="nonzero"/><g transform="matrix(1, 0, 0, 1, 189, 262)"><g clip-path="url(#c661160c35)"><g fill="#9c446e" fill-opacity="1"><g transform="translate(1.891284, 21.416888)"><g><path d="M 7.015625 -4.515625 L 7.015625 -7.453125 L 9.796875 -7.453125 L 9.796875 -4.234375 C 9.796875 -3.429688 9.632812 -2.6875 9.3125 -2 C 8.988281 -1.3125 8.492188 -0.753906 7.828125 -0.328125 C 7.160156 0.0859375 6.289062 0.296875 5.21875 0.296875 C 4.113281 0.296875 3.222656 0.0859375 2.546875 -0.328125 C 1.878906 -0.753906 1.382812 -1.3125 1.0625 -2 C 0.75 -2.6875 0.59375 -3.4375 0.59375 -4.25 L 0.59375 -14.375 L 3.546875 -14.375 L 3.546875 -11.3125 L 9.796875 -11.3125 L 9.796875 -9.203125 L 3.546875 -9.203125 L 3.546875 -4.546875 C 3.546875 -3.847656 3.675781 -3.296875 3.9375 -2.890625 C 4.207031 -2.492188 4.648438 -2.296875 5.265625 -2.296875 C 5.859375 -2.296875 6.296875 -2.488281 6.578125 -2.875 C 6.867188 -3.257812 7.015625 -3.804688 7.015625 -4.515625 Z M 7.015625 -4.515625 "/></g></g></g><g fill="#9c446e" fill-opacity="1"><g transform="translate(17.087626, 21.416888)"><g><path d="M 3.421875 -6.765625 L 8.046875 -6.765625 C 8.035156 -7.609375 7.789062 -8.234375 7.3125 -8.640625 C 6.832031 -9.046875 6.304688 -9.25 5.734375 -9.25 C 5.128906 -9.25 4.609375 -9.03125 4.171875 -8.59375 C 3.734375 -8.15625 3.484375 -7.546875 3.421875 -6.765625 Z M 11.125 -4.875 L 3.328125 -4.875 C 3.378906 -4.03125 3.628906 -3.347656 4.078125 -2.828125 C 4.535156 -2.316406 5.128906 -2.0625 5.859375 -2.0625 C 6.347656 -2.0625 6.78125 -2.175781 7.15625 -2.40625 C 7.539062 -2.644531 7.785156 -2.953125 7.890625 -3.328125 L 10.96875 -3.328125 C 10.632812 -2.171875 10.023438 -1.273438 9.140625 -0.640625 C 8.253906 -0.015625 7.207031 0.296875 6 0.296875 C 2.226562 0.296875 0.34375 -1.753906 0.34375 -5.859375 C 0.34375 -7.609375 0.820312 -9.003906 1.78125 -10.046875 C 2.738281 -11.085938 4.082031 -11.609375 5.8125 -11.609375 C 7.550781 -11.609375 8.867188 -11.046875 9.765625 -9.921875 C 10.671875 -8.796875 11.125 -7.113281 11.125 -4.875 Z M 11.125 -4.875 "/></g></g></g><g fill="#9c446e" fill-opacity="1"><g transform="translate(33.432908, 21.416888)"><g><path d="M 3.59375 0 L 0.59375 0 L 0.59375 -11.3125 L 3.40625 -11.3125 L 3.40625 -9.953125 C 3.738281 -10.460938 4.082031 -10.835938 4.4375 -11.078125 C 4.800781 -11.316406 5.175781 -11.460938 5.5625 -11.515625 C 5.957031 -11.578125 6.359375 -11.609375 6.765625 -11.609375 L 7.15625 -11.609375 L 7.15625 -8.5625 C 6.875 -8.601562 6.597656 -8.625 6.328125 -8.625 C 4.503906 -8.625 3.59375 -7.710938 3.59375 -5.890625 Z M 3.59375 0 "/></g></g></g><g fill="#9c446e" fill-opacity="1"><g transform="translate(45.043988, 21.416888)"><g><path d="M 7.453125 -4.296875 L 7.46875 -5.546875 C 7.226562 -5.296875 6.585938 -5.070312 5.546875 -4.875 C 4.703125 -4.71875 4.113281 -4.503906 3.78125 -4.234375 C 3.445312 -3.972656 3.28125 -3.597656 3.28125 -3.109375 C 3.28125 -2.265625 3.765625 -1.84375 4.734375 -1.84375 C 5.503906 -1.84375 6.144531 -2.085938 6.65625 -2.578125 C 7.164062 -3.066406 7.429688 -3.640625 7.453125 -4.296875 Z M 10.46875 0 L 7.6875 0 C 7.59375 -0.289062 7.53125 -0.628906 7.5 -1.015625 C 7.144531 -0.628906 6.675781 -0.3125 6.09375 -0.0625 C 5.507812 0.175781 4.835938 0.296875 4.078125 0.296875 C 2.785156 0.296875 1.832031 0.0078125 1.21875 -0.5625 C 0.601562 -1.132812 0.296875 -1.882812 0.296875 -2.8125 C 0.296875 -3.625 0.421875 -4.273438 0.671875 -4.765625 C 0.929688 -5.253906 1.296875 -5.628906 1.765625 -5.890625 C 2.234375 -6.160156 2.785156 -6.359375 3.421875 -6.484375 C 4.054688 -6.617188 4.75 -6.742188 5.5 -6.859375 C 6.25 -6.960938 6.753906 -7.101562 7.015625 -7.28125 C 7.273438 -7.46875 7.40625 -7.753906 7.40625 -8.140625 C 7.40625 -8.503906 7.234375 -8.789062 6.890625 -9 C 6.546875 -9.207031 6.082031 -9.3125 5.5 -9.3125 C 4.820312 -9.3125 4.328125 -9.15625 4.015625 -8.84375 C 3.710938 -8.539062 3.523438 -8.140625 3.453125 -7.640625 L 0.671875 -7.640625 C 0.679688 -8.421875 0.847656 -9.109375 1.171875 -9.703125 C 1.492188 -10.304688 2.015625 -10.773438 2.734375 -11.109375 C 3.453125 -11.441406 4.421875 -11.609375 5.640625 -11.609375 C 7.429688 -11.609375 8.679688 -11.222656 9.390625 -10.453125 C 10.109375 -9.679688 10.46875 -8.582031 10.46875 -7.15625 Z M 10.46875 0 "/></g></g></g><g fill="#9c446e" fill-opacity="1"><g transform="translate(60.998632, 21.416888)"><g><path d="M 5.9375 -2.25 C 7.65625 -2.25 8.515625 -3.414062 8.515625 -5.75 C 8.515625 -6.757812 8.273438 -7.582031 7.796875 -8.21875 C 7.316406 -8.851562 6.703125 -9.171875 5.953125 -9.171875 C 5.253906 -9.171875 4.65625 -8.867188 4.15625 -8.265625 C 3.664062 -7.660156 3.421875 -6.882812 3.421875 -5.9375 C 3.421875 -3.476562 4.257812 -2.25 5.9375 -2.25 Z M 3.546875 5.359375 L 0.59375 5.359375 L 0.59375 -11.3125 L 3.46875 -11.3125 L 3.5 -9.9375 C 4.1875 -11.050781 5.234375 -11.609375 6.640625 -11.609375 C 7.597656 -11.609375 8.441406 -11.367188 9.171875 -10.890625 C 9.910156 -10.410156 10.488281 -9.71875 10.90625 -8.8125 C 11.332031 -7.90625 11.546875 -6.816406 11.546875 -5.546875 C 11.546875 -4.410156 11.359375 -3.398438 10.984375 -2.515625 C 10.617188 -1.640625 10.09375 -0.953125 9.40625 -0.453125 C 8.71875 0.046875 7.882812 0.296875 6.90625 0.296875 C 5.507812 0.296875 4.390625 -0.289062 3.546875 -1.46875 Z M 3.546875 5.359375 "/></g></g></g><g fill="#9c446e" fill-opacity="1"><g transform="translate(77.803481, 21.416888)"><g><path d="M 3.65625 0 L 0.671875 0 L 0.671875 -11.3125 L 3.65625 -11.3125 Z M 3.65625 -12.671875 L 0.671875 -12.671875 L 0.671875 -15.453125 L 3.65625 -15.453125 Z M 3.65625 -12.671875 "/></g></g></g><g fill="#9c446e" fill-opacity="1"><g transform="translate(87.00231, 21.416888)"><g><path d="M 7.453125 -4.296875 L 7.46875 -5.546875 C 7.226562 -5.296875 6.585938 -5.070312 5.546875 -4.875 C 4.703125 -4.71875 4.113281 -4.503906 3.78125 -4.234375 C 3.445312 -3.972656 3.28125 -3.597656 3.28125 -3.109375 C 3.28125 -2.265625 3.765625 -1.84375 4.734375 -1.84375 C 5.503906 -1.84375 6.144531 -2.085938 6.65625 -2.578125 C 7.164062 -3.066406 7.429688 -3.640625 7.453125 -4.296875 Z M 10.46875 0 L 7.6875 0 C 7.59375 -0.289062 7.53125 -0.628906 7.5 -1.015625 C 7.144531 -0.628906 6.675781 -0.3125 6.09375 -0.0625 C 5.507812 0.175781 4.835938 0.296875 4.078125 0.296875 C 2.785156 0.296875 1.832031 0.0078125 1.21875 -0.5625 C 0.601562 -1.132812 0.296875 -1.882812 0.296875 -2.8125 C 0.296875 -3.625 0.421875 -4.273438 0.671875 -4.765625 C 0.929688 -5.253906 1.296875 -5.628906 1.765625 -5.890625 C 2.234375 -6.160156 2.785156 -6.359375 3.421875 -6.484375 C 4.054688 -6.617188 4.75 -6.742188 5.5 -6.859375 C 6.25 -6.960938 6.753906 -7.101562 7.015625 -7.28125 C 7.273438 -7.46875 7.40625 -7.753906 7.40625 -8.140625 C 7.40625 -8.503906 7.234375 -8.789062 6.890625 -9 C 6.546875 -9.207031 6.082031 -9.3125 5.5 -9.3125 C 4.820312 -9.3125 4.328125 -9.15625 4.015625 -8.84375 C 3.710938 -8.539062 3.523438 -8.140625 3.453125 -7.640625 L 0.671875 -7.640625 C 0.679688 -8.421875 0.847656 -9.109375 1.171875 -9.703125 C 1.492188 -10.304688 2.015625 -10.773438 2.734375 -11.109375 C 3.453125 -11.441406 4.421875 -11.609375 5.640625 -11.609375 C 7.429688 -11.609375 8.679688 -11.222656 9.390625 -10.453125 C 10.109375 -9.679688 10.46875 -8.582031 10.46875 -7.15625 Z M 10.46875 0 "/></g></g></g><g fill="#9c446e" fill-opacity="1"><g transform="translate(102.956954, 21.416888)"><g/></g></g><g fill="#9c446e" fill-opacity="1"><g transform="translate(113.281748, 21.416888)"><g><path d="M 6.15625 -2.203125 C 7.988281 -2.203125 8.90625 -3.351562 8.90625 -5.65625 C 8.90625 -7.9375 7.988281 -9.078125 6.15625 -9.078125 C 4.332031 -9.078125 3.421875 -7.9375 3.421875 -5.65625 C 3.421875 -3.351562 4.332031 -2.203125 6.15625 -2.203125 Z M 6.15625 0.296875 C 4.945312 0.296875 3.90625 0.046875 3.03125 -0.453125 C 2.15625 -0.960938 1.488281 -1.664062 1.03125 -2.5625 C 0.570312 -3.457031 0.34375 -4.488281 0.34375 -5.65625 C 0.34375 -6.851562 0.578125 -7.898438 1.046875 -8.796875 C 1.523438 -9.691406 2.195312 -10.382812 3.0625 -10.875 C 3.9375 -11.363281 4.96875 -11.609375 6.15625 -11.609375 C 7.34375 -11.609375 8.363281 -11.363281 9.21875 -10.875 C 10.082031 -10.382812 10.742188 -9.691406 11.203125 -8.796875 C 11.671875 -7.910156 11.90625 -6.863281 11.90625 -5.65625 C 11.90625 -4.457031 11.671875 -3.414062 11.203125 -2.53125 C 10.742188 -1.644531 10.082031 -0.953125 9.21875 -0.453125 C 8.363281 0.046875 7.34375 0.296875 6.15625 0.296875 Z M 6.15625 0.296875 "/></g></g></g><g fill="#9c446e" fill-opacity="1"><g transform="translate(130.45426, 21.416888)"><g><path d="M 7.78125 -4.09375 L 10.78125 -4.09375 C 10.675781 -3.21875 10.382812 -2.453125 9.90625 -1.796875 C 9.4375 -1.140625 8.828125 -0.625 8.078125 -0.25 C 7.335938 0.113281 6.507812 0.296875 5.59375 0.296875 C 4.050781 0.296875 2.796875 -0.210938 1.828125 -1.234375 C 0.867188 -2.253906 0.390625 -3.773438 0.390625 -5.796875 C 0.390625 -7.816406 0.875 -9.289062 1.84375 -10.21875 C 2.820312 -11.144531 4.101562 -11.609375 5.6875 -11.609375 C 7.15625 -11.609375 8.351562 -11.21875 9.28125 -10.4375 C 10.207031 -9.65625 10.71875 -8.597656 10.8125 -7.265625 L 7.796875 -7.265625 C 7.722656 -7.847656 7.488281 -8.300781 7.09375 -8.625 C 6.707031 -8.957031 6.226562 -9.125 5.65625 -9.125 C 5.03125 -9.125 4.488281 -8.882812 4.03125 -8.40625 C 3.582031 -7.9375 3.359375 -7.085938 3.359375 -5.859375 C 3.359375 -4.640625 3.578125 -3.722656 4.015625 -3.109375 C 4.460938 -2.503906 4.976562 -2.203125 5.5625 -2.203125 C 6.144531 -2.203125 6.644531 -2.363281 7.0625 -2.6875 C 7.476562 -3.007812 7.71875 -3.476562 7.78125 -4.09375 Z M 7.78125 -4.09375 "/></g></g></g><g fill="#9c446e" fill-opacity="1"><g transform="translate(146.294, 21.416888)"><g><path d="M 10.78125 0 L 7.953125 0 L 7.953125 -1.59375 C 7.191406 -0.332031 6.019531 0.296875 4.4375 0.296875 C 3.6875 0.296875 3.023438 0.117188 2.453125 -0.234375 C 1.878906 -0.585938 1.425781 -1.070312 1.09375 -1.6875 C 0.757812 -2.3125 0.59375 -3.035156 0.59375 -3.859375 L 0.59375 -11.3125 L 3.59375 -11.3125 L 3.59375 -4.328125 C 3.59375 -2.910156 4.226562 -2.203125 5.5 -2.203125 C 6.257812 -2.203125 6.832031 -2.441406 7.21875 -2.921875 C 7.613281 -3.410156 7.8125 -4.03125 7.8125 -4.78125 L 7.8125 -11.3125 L 10.78125 -11.3125 Z M 10.78125 0 "/></g></g></g><g fill="#9c446e" fill-opacity="1"><g transform="translate(162.570355, 21.416888)"><g><path d="M 5.9375 -2.25 C 7.65625 -2.25 8.515625 -3.414062 8.515625 -5.75 C 8.515625 -6.757812 8.273438 -7.582031 7.796875 -8.21875 C 7.316406 -8.851562 6.703125 -9.171875 5.953125 -9.171875 C 5.253906 -9.171875 4.65625 -8.867188 4.15625 -8.265625 C 3.664062 -7.660156 3.421875 -6.882812 3.421875 -5.9375 C 3.421875 -3.476562 4.257812 -2.25 5.9375 -2.25 Z M 3.546875 5.359375 L 0.59375 5.359375 L 0.59375 -11.3125 L 3.46875 -11.3125 L 3.5 -9.9375 C 4.1875 -11.050781 5.234375 -11.609375 6.640625 -11.609375 C 7.597656 -11.609375 8.441406 -11.367188 9.171875 -10.890625 C 9.910156 -10.410156 10.488281 -9.71875 10.90625 -8.8125 C 11.332031 -7.90625 11.546875 -6.816406 11.546875 -5.546875 C 11.546875 -4.410156 11.359375 -3.398438 10.984375 -2.515625 C 10.617188 -1.640625 10.09375 -0.953125 9.40625 -0.453125 C 8.71875 0.046875 7.882812 0.296875 6.90625 0.296875 C 5.507812 0.296875 4.390625 -0.289062 3.546875 -1.46875 Z M 3.546875 5.359375 "/></g></g></g><g fill="#9c446e" fill-opacity="1"><g transform="translate(179.375204, 21.416888)"><g><path d="M 7.453125 -4.296875 L 7.46875 -5.546875 C 7.226562 -5.296875 6.585938 -5.070312 5.546875 -4.875 C 4.703125 -4.71875 4.113281 -4.503906 3.78125 -4.234375 C 3.445312 -3.972656 3.28125 -3.597656 3.28125 -3.109375 C 3.28125 -2.265625 3.765625 -1.84375 4.734375 -1.84375 C 5.503906 -1.84375 6.144531 -2.085938 6.65625 -2.578125 C 7.164062 -3.066406 7.429688 -3.640625 7.453125 -4.296875 Z M 10.46875 0 L 7.6875 0 C 7.59375 -0.289062 7.53125 -0.628906 7.5 -1.015625 C 7.144531 -0.628906 6.675781 -0.3125 6.09375 -0.0625 C 5.507812 0.175781 4.835938 0.296875 4.078125 0.296875 C 2.785156 0.296875 1.832031 0.0078125 1.21875 -0.5625 C 0.601562 -1.132812 0.296875 -1.882812 0.296875 -2.8125 C 0.296875 -3.625 0.421875 -4.273438 0.671875 -4.765625 C 0.929688 -5.253906 1.296875 -5.628906 1.765625 -5.890625 C 2.234375 -6.160156 2.785156 -6.359375 3.421875 -6.484375 C 4.054688 -6.617188 4.75 -6.742188 5.5 -6.859375 C 6.25 -6.960938 6.753906 -7.101562 7.015625 -7.28125 C 7.273438 -7.46875 7.40625 -7.753906 7.40625 -8.140625 C 7.40625 -8.503906 7.234375 -8.789062 6.890625 -9 C 6.546875 -9.207031 6.082031 -9.3125 5.5 -9.3125 C 4.820312 -9.3125 4.328125 -9.15625 4.015625 -8.84375 C 3.710938 -8.539062 3.523438 -8.140625 3.453125 -7.640625 L 0.671875 -7.640625 C 0.679688 -8.421875 0.847656 -9.109375 1.171875 -9.703125 C 1.492188 -10.304688 2.015625 -10.773438 2.734375 -11.109375 C 3.453125 -11.441406 4.421875 -11.609375 5.640625 -11.609375 C 7.429688 -11.609375 8.679688 -11.222656 9.390625 -10.453125 C 10.109375 -9.679688 10.46875 -8.582031 10.46875 -7.15625 Z M 10.46875 0 "/></g></g></g><g fill="#9c446e" fill-opacity="1"><g transform="translate(195.329848, 21.416888)"><g><path d="M 7.78125 -4.09375 L 10.78125 -4.09375 C 10.675781 -3.21875 10.382812 -2.453125 9.90625 -1.796875 C 9.4375 -1.140625 8.828125 -0.625 8.078125 -0.25 C 7.335938 0.113281 6.507812 0.296875 5.59375 0.296875 C 4.050781 0.296875 2.796875 -0.210938 1.828125 -1.234375 C 0.867188 -2.253906 0.390625 -3.773438 0.390625 -5.796875 C 0.390625 -7.816406 0.875 -9.289062 1.84375 -10.21875 C 2.820312 -11.144531 4.101562 -11.609375 5.6875 -11.609375 C 7.15625 -11.609375 8.351562 -11.21875 9.28125 -10.4375 C 10.207031 -9.65625 10.71875 -8.597656 10.8125 -7.265625 L 7.796875 -7.265625 C 7.722656 -7.847656 7.488281 -8.300781 7.09375 -8.625 C 6.707031 -8.957031 6.226562 -9.125 5.65625 -9.125 C 5.03125 -9.125 4.488281 -8.882812 4.03125 -8.40625 C 3.582031 -7.9375 3.359375 -7.085938 3.359375 -5.859375 C 3.359375 -4.640625 3.578125 -3.722656 4.015625 -3.109375 C 4.460938 -2.503906 4.976562 -2.203125 5.5625 -2.203125 C 6.144531 -2.203125 6.644531 -2.363281 7.0625 -2.6875 C 7.476562 -3.007812 7.71875 -3.476562 7.78125 -4.09375 Z M 7.78125 -4.09375 "/></g></g></g><g fill="#9c446e" fill-opacity="1"><g transform="translate(211.169588, 21.416888)"><g><path d="M 3.65625 0 L 0.671875 0 L 0.671875 -11.3125 L 3.65625 -11.3125 Z M 3.65625 -12.671875 L 0.671875 -12.671875 L 0.671875 -15.453125 L 3.65625 -15.453125 Z M 3.65625 -12.671875 "/></g></g></g><g fill="#9c446e" fill-opacity="1"><g transform="translate(220.368417, 21.416888)"><g><path d="M 6.15625 -2.203125 C 7.988281 -2.203125 8.90625 -3.351562 8.90625 -5.65625 C 8.90625 -7.9375 7.988281 -9.078125 6.15625 -9.078125 C 4.332031 -9.078125 3.421875 -7.9375 3.421875 -5.65625 C 3.421875 -3.351562 4.332031 -2.203125 6.15625 -2.203125 Z M 6.15625 0.296875 C 4.945312 0.296875 3.90625 0.046875 3.03125 -0.453125 C 2.15625 -0.960938 1.488281 -1.664062 1.03125 -2.5625 C 0.570312 -3.457031 0.34375 -4.488281 0.34375 -5.65625 C 0.34375 -6.851562 0.578125 -7.898438 1.046875 -8.796875 C 1.523438 -9.691406 2.195312 -10.382812 3.0625 -10.875 C 3.9375 -11.363281 4.96875 -11.609375 6.15625 -11.609375 C 7.34375 -11.609375 8.363281 -11.363281 9.21875 -10.875 C 10.082031 -10.382812 10.742188 -9.691406 11.203125 -8.796875 C 11.671875 -7.910156 11.90625 -6.863281 11.90625 -5.65625 C 11.90625 -4.457031 11.671875 -3.414062 11.203125 -2.53125 C 10.742188 -1.644531 10.082031 -0.953125 9.21875 -0.453125 C 8.363281 0.046875 7.34375 0.296875 6.15625 0.296875 Z M 6.15625 0.296875 "/></g></g></g><g fill="#9c446e" fill-opacity="1"><g transform="translate(237.540929, 21.416888)"><g><path d="M 10.859375 0 L 7.84375 0 L 7.84375 -6.859375 C 7.84375 -7.734375 7.695312 -8.320312 7.40625 -8.625 C 7.125 -8.925781 6.625 -9.078125 5.90625 -9.078125 C 4.363281 -9.078125 3.59375 -8.210938 3.59375 -6.484375 L 3.59375 0 L 0.59375 0 L 0.59375 -11.3125 L 3.453125 -11.3125 L 3.453125 -9.65625 C 3.804688 -10.289062 4.273438 -10.773438 4.859375 -11.109375 C 5.453125 -11.441406 6.203125 -11.609375 7.109375 -11.609375 C 8.191406 -11.609375 9.085938 -11.285156 9.796875 -10.640625 C 10.503906 -10.003906 10.859375 -9.070312 10.859375 -7.84375 Z M 10.859375 0 "/></g></g></g><g fill="#9c446e" fill-opacity="1"><g transform="translate(253.886212, 21.416888)"><g><path d="M 7.453125 -4.296875 L 7.46875 -5.546875 C 7.226562 -5.296875 6.585938 -5.070312 5.546875 -4.875 C 4.703125 -4.71875 4.113281 -4.503906 3.78125 -4.234375 C 3.445312 -3.972656 3.28125 -3.597656 3.28125 -3.109375 C 3.28125 -2.265625 3.765625 -1.84375 4.734375 -1.84375 C 5.503906 -1.84375 6.144531 -2.085938 6.65625 -2.578125 C 7.164062 -3.066406 7.429688 -3.640625 7.453125 -4.296875 Z M 10.46875 0 L 7.6875 0 C 7.59375 -0.289062 7.53125 -0.628906 7.5 -1.015625 C 7.144531 -0.628906 6.675781 -0.3125 6.09375 -0.0625 C 5.507812 0.175781 4.835938 0.296875 4.078125 0.296875 C 2.785156 0.296875 1.832031 0.0078125 1.21875 -0.5625 C 0.601562 -1.132812 0.296875 -1.882812 0.296875 -2.8125 C 0.296875 -3.625 0.421875 -4.273438 0.671875 -4.765625 C 0.929688 -5.253906 1.296875 -5.628906 1.765625 -5.890625 C 2.234375 -6.160156 2.785156 -6.359375 3.421875 -6.484375 C 4.054688 -6.617188 4.75 -6.742188 5.5 -6.859375 C 6.25 -6.960938 6.753906 -7.101562 7.015625 -7.28125 C 7.273438 -7.46875 7.40625 -7.753906 7.40625 -8.140625 C 7.40625 -8.503906 7.234375 -8.789062 6.890625 -9 C 6.546875 -9.207031 6.082031 -9.3125 5.5 -9.3125 C 4.820312 -9.3125 4.328125 -9.15625 4.015625 -8.84375 C 3.710938 -8.539062 3.523438 -8.140625 3.453125 -7.640625 L 0.671875 -7.640625 C 0.679688 -8.421875 0.847656 -9.109375 1.171875 -9.703125 C 1.492188 -10.304688 2.015625 -10.773438 2.734375 -11.109375 C 3.453125 -11.441406 4.421875 -11.609375 5.640625 -11.609375 C 7.429688 -11.609375 8.679688 -11.222656 9.390625 -10.453125 C 10.109375 -9.679688 10.46875 -8.582031 10.46875 -7.15625 Z M 10.46875 0 "/></g></g></g><g fill="#9c446e" fill-opacity="1"><g transform="translate(269.840856, 21.416888)"><g><path d="M 3.59375 0 L 0.59375 0 L 0.59375 -15.453125 L 3.59375 -15.453125 Z M 3.59375 0 "/></g></g></g></g></g><g fill="#9c446e" fill-opacity="1"><g transform="translate(152.99534, 287.72533)"><g><path d="M 11.828125 -22.515625 L 12.90625 -22.515625 L 12.90625 -13.78125 L 16.015625 -21.90625 L 17.15625 -21.453125 L 13.71875 -13.390625 L 19.828125 -19.65625 L 20.703125 -18.78125 L 14.4375 -12.640625 L 22.484375 -16.125 L 22.9375 -14.984375 L 14.8125 -11.765625 L 23.5625 -11.765625 L 23.5625 -10.6875 L 14.8125 -10.6875 L 22.9375 -7.546875 L 22.484375 -6.375 L 14.4375 -9.9375 L 20.703125 -3.734375 L 19.828125 -2.859375 L 13.71875 -9.265625 L 17.15625 -1.109375 L 16.015625 -0.65625 L 12.90625 -8.90625 L 12.90625 0 L 11.828125 0 L 11.828125 -8.90625 L 8.671875 -0.65625 L 7.5 -1.109375 L 10.953125 -9.265625 L 4.875 -2.859375 L 4 -3.734375 L 10.328125 -9.9375 L 2.203125 -6.375 L 1.75 -7.546875 L 10.015625 -10.6875 L 1.140625 -10.6875 L 1.140625 -11.765625 L 10.015625 -11.765625 L 1.75 -14.984375 L 2.203125 -16.125 L 10.328125 -12.640625 L 4 -18.78125 L 4.875 -19.65625 L 10.953125 -13.390625 L 7.5 -21.453125 L 8.671875 -21.90625 L 11.828125 -13.78125 Z M 11.828125 -22.515625 "/></g></g></g><g fill="#9c446e" fill-opacity="1"><g transform="translate(184.437759, 287.72533)"><g/></g></g><g fill="#9c446e" fill-opacity="1"><g transform="translate(199.030672, 287.72533)"><g/></g></g><g fill="#9c446e" fill-opacity="1"><g transform="translate(213.623586, 287.72533)"><g/></g></g><g fill="#9c446e" fill-opacity="1"><g transform="translate(228.216499, 287.72533)"><g/></g></g><g fill="#9c446e" fill-opacity="1"><g transform="translate(242.809412, 287.72533)"><g/></g></g><g fill="#9c446e" fill-opacity="1"><g transform="translate(257.402325, 287.72533)"><g/></g></g><g fill="#9c446e" fill-opacity="1"><g transform="translate(271.995239, 287.72533)"><g/></g></g><g fill="#9c446e" fill-opacity="1"><g transform="translate(286.588152, 287.72533)"><g/></g></g><g fill="#9c446e" fill-opacity="1"><g transform="translate(301.181065, 287.72533)"><g/></g></g><g fill="#9c446e" fill-opacity="1"><g transform="translate(315.773978, 287.72533)"><g/></g></g><g fill="#9c446e" fill-opacity="1"><g transform="translate(330.366892, 287.72533)"><g/></g></g><g fill="#9c446e" fill-opacity="1"><g transform="translate(344.959805, 287.72533)"><g/></g></g><g fill="#9c446e" fill-opacity="1"><g transform="translate(359.552718, 287.72533)"><g/></g></g><g fill="#9c446e" fill-opacity="1"><g transform="translate(374.145632, 287.72533)"><g/></g></g><g fill="#9c446e" fill-opacity="1"><g transform="translate(388.738545, 287.72533)"><g/></g></g><g fill="#9c446e" fill-opacity="1"><g transform="translate(403.331458, 287.72533)"><g/></g></g><g fill="#9c446e" fill-opacity="1"><g transform="translate(417.924371, 287.72533)"><g/></g></g><g fill="#9c446e" fill-opacity="1"><g transform="translate(432.517285, 287.72533)"><g/></g></g><g fill="#9c446e" fill-opacity="1"><g transform="translate(447.110198, 287.72533)"><g/></g></g><g fill="#9c446e" fill-opacity="1"><g transform="translate(461.703111, 287.72533)"><g/></g></g><g fill="#9c446e" fill-opacity="1"><g transform="translate(476.30447, 287.72533)"><g><path d="M 11.828125 -22.515625 L 12.90625 -22.515625 L 12.90625 -13.78125 L 16.015625 -21.90625 L 17.15625 -21.453125 L 13.71875 -13.390625 L 19.828125 -19.65625 L 20.703125 -18.78125 L 14.4375 -12.640625 L 22.484375 -16.125 L 22.9375 -14.984375 L 14.8125 -11.765625 L 23.5625 -11.765625 L 23.5625 -10.6875 L 14.8125 -10.6875 L 22.9375 -7.546875 L 22.484375 -6.375 L 14.4375 -9.9375 L 20.703125 -3.734375 L 19.828125 -2.859375 L 13.71875 -9.265625 L 17.15625 -1.109375 L 16.015625 -0.65625 L 12.90625 -8.90625 L 12.90625 0 L 11.828125 0 L 11.828125 -8.90625 L 8.671875 -0.65625 L 7.5 -1.109375 L 10.953125 -9.265625 L 4.875 -2.859375 L 4 -3.734375 L 10.328125 -9.9375 L 2.203125 -6.375 L 1.75 -7.546875 L 10.015625 -10.6875 L 1.140625 -10.6875 L 1.140625 -11.765625 L 10.015625 -11.765625 L 1.75 -14.984375 L 2.203125 -16.125 L 10.328125 -12.640625 L 4 -18.78125 L 4.875 -19.65625 L 10.953125 -13.390625 L 7.5 -21.453125 L 8.671875 -21.90625 L 11.828125 -13.78125 Z M 11.828125 -22.515625 "/></g></g></g><g clip-path="url(#026a2d346d)"><path fill="#afccd2" d="M 396.089844 136.675781 C 390.511719 135.746094 385.328125 133.371094 380.414062 130.113281 C 377.429688 128.132812 376.765625 124.105469 378.910156 121.261719 C 380.808594 118.742188 382.46875 116.121094 383.890625 113.433594 C 381.371094 112.730469 378.722656 110.214844 373.507812 104.96875 C 372.636719 106.894531 371.625 108.78125 370.46875 110.617188 C 368.246094 114.136719 363.195312 114.59375 360.414062 111.484375 C 337.96875 86.359375 306.742188 67.441406 281.730469 92.523438 C 280.375 93.882812 278.664062 94.449219 277.003906 94.375 C 276.230469 96.210938 275.933594 97.742188 276.140625 99.082031 C 276.765625 103.074219 280.238281 105.484375 285.832031 107.578125 C 290.703125 94.269531 317.515625 87.941406 331.792969 102.164062 C 331.925781 102.296875 332.058594 102.417969 332.203125 102.53125 C 338.28125 107.433594 344.554688 114.285156 350.652344 120.691406 C 353.480469 123.664062 352.695312 128.503906 349.027344 130.378906 C 348.574219 130.609375 348.117188 130.832031 347.65625 131.050781 C 349.667969 132.21875 351.726562 133.464844 353.820312 134.789062 C 355.90625 136.105469 357.90625 137.425781 359.820312 138.730469 C 360.199219 138.484375 360.882812 138.074219 361.792969 137.753906 C 363.46875 137.160156 366.398438 135.828125 369.230469 137.96875 C 376.578125 143.523438 384.703125 147.824219 394.007812 149.332031 C 397.824219 149.949219 401.289062 147.027344 401.289062 143.21875 L 401.289062 142.765625 C 401.289062 139.761719 399.101562 137.179688 396.089844 136.675781 Z M 396.089844 136.675781 " fill-opacity="1" fill-rule="nonzero"/></g><path fill="#afccd2" d="M 323.964844 30.976562 C 333.421875 30.976562 342.300781 33.476562 349.984375 37.847656 C 348.675781 30.53125 345.027344 23.621094 337.683594 19.574219 C 333.257812 18.628906 328.667969 18.128906 323.964844 18.128906 C 309.027344 18.128906 295.238281 23.148438 284.191406 31.585938 C 279.929688 40.378906 278.515625 48.675781 278.613281 56.777344 C 287.835938 41.339844 304.714844 30.976562 323.964844 30.976562 Z M 323.964844 30.976562 " fill-opacity="1" fill-rule="nonzero"/><path fill="#afccd2" d="M 370.9375 110.910156 C 370.464844 110.746094 370.023438 110.535156 369.601562 110.289062 C 360.441406 125.992188 343.417969 136.566406 323.964844 136.566406 C 309.324219 136.566406 296.054688 130.570312 286.480469 120.90625 C 286.054688 124.582031 285.308594 128.351562 284.15625 132.230469 C 283.792969 133.445312 283.757812 134.660156 283.988281 135.796875 C 286.871094 138.019531 289.941406 140.003906 293.171875 141.726562 C 302.363281 146.628906 312.84375 149.414062 323.964844 149.414062 C 334.820312 149.414062 345.0625 146.765625 354.089844 142.082031 C 364.21875 136.828125 372.8125 129.011719 379.007812 119.5 C 377.707031 115.699219 374.867188 112.300781 370.9375 110.910156 Z M 370.9375 110.910156 " fill-opacity="1" fill-rule="nonzero"/><path fill="#afccd2" d="M 364.710938 32.339844 C 366.351562 38.878906 366.6875 45.644531 365.96875 51.824219 C 372.734375 60.703125 376.761719 71.773438 376.761719 83.769531 C 376.761719 88.058594 376.242188 92.222656 375.273438 96.21875 C 375.28125 96.21875 375.292969 96.222656 375.300781 96.222656 C 380.03125 97.628906 383.863281 99.839844 386.851562 102.601562 C 388.644531 96.632812 389.609375 90.3125 389.609375 83.769531 C 389.609375 62.957031 379.871094 44.375 364.710938 32.339844 Z M 364.710938 32.339844 " fill-opacity="1" fill-rule="nonzero"/><path fill="#afccd2" d="M 263.117188 59.152344 C 260.03125 66.757812 258.324219 75.070312 258.324219 83.769531 C 258.324219 97.972656 262.859375 111.136719 270.554688 121.890625 C 272.304688 103.925781 265.425781 77.828125 263.378906 63.007812 C 263.265625 61.703125 263.179688 60.421875 263.117188 59.152344 Z M 263.117188 59.152344 " fill-opacity="1" fill-rule="nonzero"/><g clip-path="url(#fafa957241)"><path fill="#9c446e" d="M 386.851562 102.601562 C 383.863281 99.839844 380.03125 97.628906 375.300781 96.222656 C 375.292969 96.222656 375.28125 96.21875 375.273438 96.21875 C 370.570312 94.835938 365.851562 98.34375 365.851562 103.25 L 365.851562 103.945312 C 365.851562 106.628906 367.335938 108.980469 369.601562 110.289062 C 370.023438 110.535156 370.464844 110.746094 370.9375 110.910156 C 374.867188 112.300781 377.707031 115.699219 379.007812 119.5 C 379.816406 121.859375 380.035156 124.375 379.546875 126.660156 C 377.671875 135.28125 370.023438 141.546875 360.945312 141.886719 C 358.871094 141.96875 356.570312 142.035156 354.089844 142.082031 C 345.0625 146.765625 334.820312 149.414062 323.964844 149.414062 C 312.84375 149.414062 302.363281 146.628906 293.171875 141.726562 C 292.464844 141.71875 291.757812 141.707031 291.058594 141.695312 C 287.445312 141.640625 284.640625 139.042969 283.988281 135.796875 C 283.757812 134.660156 283.792969 133.445312 284.15625 132.230469 C 285.308594 128.351562 286.054688 124.582031 286.480469 120.90625 C 289.214844 97.394531 278.863281 77.738281 278.613281 56.777344 C 278.515625 48.675781 279.929688 40.378906 284.191406 31.585938 C 284.503906 30.941406 284.832031 30.296875 285.175781 29.644531 C 285.382812 29.25 285.628906 28.867188 285.902344 28.519531 C 293.71875 18.617188 304.9375 16.175781 318.617188 15.964844 C 326.738281 15.554688 332.96875 16.976562 337.683594 19.574219 C 345.027344 23.621094 348.675781 30.53125 349.984375 37.847656 C 350.777344 42.253906 350.722656 46.808594 350.117188 50.972656 C 349.589844 54.609375 351.738281 58.097656 355.261719 59.140625 L 356.40625 59.480469 C 360.691406 60.75 365.089844 57.917969 365.75 53.496094 C 365.832031 52.945312 365.902344 52.386719 365.96875 51.824219 C 366.6875 45.644531 366.351562 38.878906 364.710938 32.339844 C 360.320312 14.839844 346.578125 -1.035156 318.617188 0.28125 C 297.601562 0.28125 282.183594 6.867188 272.785156 19.863281 C 265.566406 29.84375 262.324219 43.050781 263.117188 59.152344 C 263.179688 60.421875 263.265625 61.703125 263.378906 63.007812 C 265.425781 77.828125 272.304688 103.925781 270.554688 121.890625 C 269.617188 131.535156 266.191406 138.835938 258.195312 140.789062 C 255.035156 141.558594 252.832031 144.425781 252.746094 147.679688 L 252.699219 149.464844 C 252.589844 153.570312 255.871094 156.964844 259.976562 156.992188 C 292.316406 157.1875 330.574219 158.46875 361.539062 157.558594 C 391.90625 157.316406 405.21875 119.558594 386.851562 102.601562 Z M 386.851562 102.601562 " fill-opacity="1" fill-rule="nonzero"/></g><g clip-path="url(#df04e5bd69)"><path fill="#afccd2" d="M 396.089844 136.675781 C 390.511719 135.746094 385.328125 133.371094 380.414062 130.113281 C 379.507812 129.511719 378.816406 128.722656 378.351562 127.835938 C 374.363281 130.808594 370.378906 133.777344 366.390625 136.75 C 367.402344 136.917969 368.378906 137.324219 369.230469 137.96875 C 376.578125 143.523438 384.703125 147.824219 394.007812 149.332031 C 397.824219 149.949219 401.289062 147.027344 401.289062 143.21875 L 401.289062 142.765625 C 401.289062 139.761719 399.101562 137.179688 396.089844 136.675781 Z M 396.089844 136.675781 " fill-opacity="1" fill-rule="nonzero"/></g></g></g></svg>