<svg xmlns="http://www.w3.org/2000/svg" xmlns:xlink="http://www.w3.org/1999/xlink" width="1080" zoomAndPan="magnify" viewBox="0 0 810 809.999993" height="1080" preserveAspectRatio="xMidYMid meet" version="1.0"><defs><g/><clipPath id="0d94653e88"><path d="M 78.328125 431 L 142 431 L 142 501.039062 L 78.328125 501.039062 Z M 78.328125 431 " clip-rule="nonzero"/></clipPath><clipPath id="9e502f343f"><path d="M 335 429.039062 L 412 429.039062 L 412 501 L 335 501 Z M 335 429.039062 " clip-rule="nonzero"/></clipPath><clipPath id="c44950ed29"><path d="M 681 447 L 731.578125 447 L 731.578125 498 L 681 498 Z M 681 447 " clip-rule="nonzero"/></clipPath><clipPath id="f781c1e007"><rect x="0" width="280" y="0" height="28"/></clipPath><clipPath id="4750c87673"><rect x="0" width="358" y="0" height="40"/></clipPath><clipPath id="7697924c81"><path d="M 354 337 L 479.195312 337 L 479.195312 407 L 354 407 Z M 354 337 " clip-rule="nonzero"/></clipPath><clipPath id="1dc948a13e"><path d="M 330.695312 257.125 L 474 257.125 L 474 414.625 L 330.695312 414.625 Z M 330.695312 257.125 " clip-rule="nonzero"/></clipPath><clipPath id="c0c6dde774"><path d="M 444 384 L 479.195312 384 L 479.195312 407 L 444 407 Z M 444 384 " clip-rule="nonzero"/></clipPath></defs><path fill="#faead3" d="M 520.734375 489.851562 C 519.875 486.59375 520.382812 475.445312 520.257812 472.070312 C 519.339844 456.585938 505.867188 448.121094 494.417969 458.09375 C 489.871094 462.261719 489.269531 467.664062 489.164062 469.113281 C 489.15625 469.191406 489.15625 469.265625 489.152344 469.339844 C 489.136719 477.972656 489.121094 486.609375 489.101562 495.242188 C 489.097656 497.089844 487.601562 498.585938 485.753906 498.585938 L 485.75 498.585938 C 483.859375 498.585938 482.351562 497.023438 482.402344 495.132812 C 482.777344 481.242188 478.425781 463.136719 489.261719 452.835938 C 496.375 446.054688 513.15625 443.292969 521.433594 455.378906 C 530.222656 468.378906 526.316406 474.054688 527.195312 485.675781 C 527.511719 489.835938 527.640625 491.300781 529.828125 491.632812 C 531.488281 491.886719 532.738281 493.273438 532.738281 494.953125 L 532.738281 495.207031 C 532.738281 497.253906 530.910156 498.847656 528.890625 498.519531 C 524.152344 497.75 521.628906 494.316406 520.734375 489.851562 Z M 520.734375 489.851562 " fill-opacity="1" fill-rule="nonzero"/><path fill="#faead3" d="M 456.605469 448.117188 C 457.128906 447.585938 458.589844 447.214844 460.148438 447.011719 C 462.152344 446.753906 463.925781 448.316406 463.925781 450.335938 L 463.925781 450.507812 C 463.925781 452.214844 462.640625 453.648438 460.945312 453.832031 C 460.132812 453.921875 459.445312 454.195312 459.234375 454.921875 C 457.59375 459.640625 458.679688 467.125 458.386719 472.417969 C 458.382812 472.484375 458.382812 472.546875 458.386719 472.613281 C 458.808594 493.390625 437.65625 506.917969 420.570312 492.730469 C 420.492188 492.664062 420.414062 492.59375 420.335938 492.523438 C 409.621094 482.140625 413.976562 464.179688 413.59375 450.339844 C 413.542969 448.449219 415.050781 446.882812 416.941406 446.882812 C 418.789062 446.882812 420.289062 448.378906 420.292969 450.226562 C 420.308594 458.859375 420.324219 467.492188 420.34375 476.128906 C 420.34375 476.203125 420.34375 476.277344 420.351562 476.351562 C 420.457031 477.804688 421.058594 483.203125 425.605469 487.375 C 437.070312 497.351562 450.527344 488.878906 451.449219 473.394531 C 452.210938 465.578125 448.699219 453.882812 456.605469 448.117188 Z M 456.605469 448.117188 " fill-opacity="1" fill-rule="nonzero"/><g clip-path="url(#0d94653e88)"><path fill="#faead3" d="M 128.457031 476.960938 C 128.457031 474.789062 130.550781 473.234375 132.636719 473.855469 C 147.582031 478.296875 142.167969 500.855469 126.550781 500.976562 C 112.859375 501.378906 95.941406 500.8125 81.640625 500.726562 C 79.824219 500.714844 78.375 499.214844 78.421875 497.398438 L 78.441406 496.609375 C 78.480469 495.171875 79.457031 493.902344 80.851562 493.5625 C 90.972656 491.089844 84.535156 469.238281 83.144531 459.164062 C 82.460938 451.269531 83.859375 444.847656 87.304688 440.085938 C 91.460938 434.34375 98.277344 431.429688 107.570312 431.429688 C 124.972656 430.609375 129.921875 444.847656 128.414062 454.960938 C 128.121094 456.914062 126.175781 458.167969 124.28125 457.605469 L 123.777344 457.457031 C 122.21875 456.996094 121.265625 455.453125 121.5 453.84375 C 122.496094 446.984375 120.128906 437.730469 107.570312 438.363281 C 101.519531 438.457031 96.558594 439.539062 93.105469 443.914062 C 92.984375 444.070312 92.875 444.238281 92.78125 444.414062 C 84.359375 460.347656 97.464844 472.515625 92.332031 489.777344 C 91.714844 491.84375 93.226562 493.929688 95.382812 493.960938 C 106.289062 494.125 119.207031 494.328125 126.289062 494.046875 C 130.300781 493.894531 133.683594 491.125 134.515625 487.3125 C 135.074219 484.675781 133.523438 481.347656 130.707031 480.351562 C 129.378906 479.882812 128.457031 478.675781 128.457031 477.269531 C 128.457031 477.167969 128.457031 477.066406 128.457031 476.960938 Z M 128.457031 476.960938 " fill-opacity="1" fill-rule="nonzero"/></g><path fill="#faead3" d="M 187.394531 448.117188 C 187.921875 447.585938 189.382812 447.214844 190.9375 447.011719 C 192.941406 446.753906 194.71875 448.316406 194.71875 450.335938 L 194.71875 450.507812 C 194.71875 452.214844 193.433594 453.648438 191.738281 453.832031 C 190.925781 453.921875 190.238281 454.195312 190.027344 454.921875 C 188.382812 459.644531 189.46875 467.125 189.179688 472.417969 C 189.175781 472.484375 189.175781 472.546875 189.175781 472.613281 C 189.601562 493.390625 168.449219 506.917969 151.363281 492.734375 C 151.285156 492.664062 151.203125 492.59375 151.128906 492.519531 C 140.414062 482.140625 144.765625 464.179688 144.386719 450.339844 C 144.335938 448.449219 145.839844 446.882812 147.734375 446.882812 C 149.582031 446.882812 151.078125 448.378906 151.082031 450.226562 C 151.101562 458.859375 151.117188 467.492188 151.132812 476.128906 C 151.132812 476.203125 151.136719 476.277344 151.140625 476.351562 C 151.246094 477.800781 151.851562 483.203125 156.398438 487.375 C 167.863281 497.351562 181.320312 488.878906 182.238281 473.394531 C 183 465.578125 179.488281 453.882812 187.394531 448.117188 Z M 187.394531 448.117188 " fill-opacity="1" fill-rule="nonzero"/><path fill="#faead3" d="M 231.316406 490.8125 L 255.765625 490.8125 C 257.558594 490.8125 259.007812 492.261719 259.007812 494.054688 L 259.007812 494.503906 C 259.007812 496.292969 257.558594 497.746094 255.765625 497.746094 L 216.242188 497.746094 C 213.472656 497.746094 211.976562 494.496094 213.78125 492.394531 L 242.019531 459.441406 C 243.820312 457.335938 242.328125 454.085938 239.558594 454.085938 L 214.234375 454.085938 C 212.441406 454.085938 210.992188 452.636719 210.992188 450.84375 L 210.992188 450.394531 C 210.992188 448.605469 212.441406 447.152344 214.234375 447.152344 L 254.632812 447.152344 C 257.402344 447.152344 258.898438 450.402344 257.09375 452.507812 L 228.855469 485.457031 C 227.054688 487.5625 228.546875 490.8125 231.316406 490.8125 Z M 231.316406 490.8125 " fill-opacity="1" fill-rule="nonzero"/><path fill="#faead3" d="M 307.699219 491.121094 C 307.890625 491.453125 308.539062 491.582031 309.304688 491.621094 C 311.019531 491.710938 312.378906 493.097656 312.378906 494.816406 L 312.378906 495.339844 C 312.378906 497.242188 310.75 498.753906 308.859375 498.574219 C 305.398438 498.242188 302.785156 496.75 301.234375 493.945312 C 300.246094 492.160156 297.859375 491.789062 296.273438 493.074219 C 288.425781 499.421875 276.203125 501.054688 268.214844 494.910156 C 264.839844 492.25 262.980469 488.441406 262.980469 484.183594 C 263.628906 466.988281 279.191406 466.230469 295.644531 466.070312 C 297.875 466.050781 299.425781 463.832031 298.667969 461.730469 C 296.828125 456.628906 292.238281 452.847656 285.542969 453.144531 C 285.460938 453.148438 285.375 453.148438 285.289062 453.144531 C 276.523438 452.691406 270.851562 458.222656 269.660156 463.996094 C 269.359375 465.460938 268.039062 466.5 266.539062 466.519531 L 266.179688 466.527344 C 264.097656 466.554688 262.527344 464.644531 262.960938 462.609375 C 263.574219 459.726562 264.992188 455.765625 268.277344 452.433594 C 275.359375 444.558594 293.988281 443.75 301.097656 452.394531 C 311.371094 463.996094 303.5 481.128906 307.699219 491.121094 Z M 298.535156 477.117188 C 299.125 475.035156 297.566406 472.960938 295.402344 472.972656 C 285.546875 473.03125 276.011719 473.617188 272.234375 477.535156 C 266.832031 483.738281 271.078125 491.992188 279.769531 491.824219 C 288.949219 492.054688 296.054688 485.832031 298.535156 477.117188 Z M 298.535156 477.117188 " fill-opacity="1" fill-rule="nonzero"/><g clip-path="url(#9e502f343f)"><path fill="#faead3" d="M 400.128906 489.667969 C 402.746094 491.429688 405.507812 492.71875 408.476562 493.222656 C 410.082031 493.492188 411.246094 494.890625 411.246094 496.515625 L 411.246094 496.761719 C 411.246094 498.824219 409.402344 500.40625 407.367188 500.074219 C 402.410156 499.257812 398.085938 496.925781 394.171875 493.921875 C 393.011719 493.03125 391.40625 492.960938 390.210938 493.804688 C 378.890625 501.757812 361.527344 501.914062 350.324219 493.75 L 350.253906 493.847656 C 322.058594 475.125 335.765625 428.5 370.257812 429.054688 C 398.609375 428.121094 415.484375 463.082031 399.328125 484.875 C 398.183594 486.414062 398.535156 488.59375 400.128906 489.667969 Z M 370.257812 435.988281 C 353.332031 435.65625 340.285156 451.320312 341.839844 467.273438 C 342.113281 470.113281 345.566406 471.351562 347.5625 469.3125 C 360.886719 455.734375 377.519531 465.976562 389.476562 479.582031 C 390.957031 481.265625 393.648438 481.015625 394.828125 479.113281 C 405.757812 461.503906 392.277344 435.265625 370.257812 435.988281 Z M 353.386719 487.421875 C 361.511719 493.816406 374.160156 494.617188 383.410156 489.8125 C 385.363281 488.796875 385.78125 486.175781 384.277344 484.566406 C 381.027344 481.097656 377.6875 477.386719 374.449219 474.734375 C 374.371094 474.671875 374.300781 474.605469 374.230469 474.535156 C 363.59375 463.761719 339.890625 474.757812 353.386719 487.421875 Z M 353.386719 487.421875 " fill-opacity="1" fill-rule="nonzero"/></g><path fill="#faead3" d="M 571.730469 478.484375 L 574.773438 478.449219 C 576.9375 478.425781 578.554688 480.429688 578.082031 482.542969 C 572.355469 507.960938 530.386719 502.972656 534.605469 473.300781 L 534.730469 473.300781 C 536.136719 451.554688 556.285156 439.601562 572.757812 449.953125 C 572.882812 450.03125 573.003906 450.117188 573.121094 450.210938 C 576.382812 452.863281 578.179688 456.617188 578.179688 460.800781 C 577.679688 477.945312 561.671875 478.785156 545.527344 478.917969 C 543.230469 478.9375 541.632812 481.214844 542.394531 483.382812 C 547.167969 497.027344 572.285156 493.316406 571.730469 478.484375 Z M 545.90625 472.003906 C 555.914062 471.933594 564.789062 471.382812 568.785156 467.582031 C 568.882812 467.492188 568.96875 467.398438 569.054688 467.296875 C 574.261719 461.113281 570.007812 452.992188 561.390625 453.160156 C 552.265625 452.929688 545.183594 459.082031 542.667969 467.722656 C 542.042969 469.871094 543.671875 472.019531 545.90625 472.003906 Z M 545.90625 472.003906 " fill-opacity="1" fill-rule="nonzero"/><path fill="#faead3" d="M 592.933594 491.144531 C 593.089844 491.417969 593.570312 491.546875 594.15625 491.601562 C 595.898438 491.761719 597.25 493.179688 597.25 494.925781 L 597.25 495.234375 C 597.25 497.242188 595.492188 498.796875 593.496094 498.558594 C 582.613281 497.277344 584.976562 483.53125 584.773438 475.503906 L 584.699219 475.503906 L 584.699219 434.550781 C 584.699219 432.699219 586.199219 431.199219 588.046875 431.199219 L 588.28125 431.199219 C 590.132812 431.199219 591.632812 432.699219 591.632812 434.550781 L 591.632812 470.015625 L 591.707031 470.015625 C 592.183594 473.992188 590.484375 487.871094 592.933594 491.144531 Z M 592.933594 491.144531 " fill-opacity="1" fill-rule="nonzero"/><path fill="#faead3" d="M 645.347656 491.121094 C 645.53125 491.449219 646.160156 491.578125 646.90625 491.621094 C 648.664062 491.71875 650.027344 493.199219 650.027344 494.960938 L 650.027344 495.222656 C 650.027344 497.1875 648.34375 498.765625 646.390625 498.5625 C 643.007812 498.210938 640.445312 496.734375 638.90625 493.992188 C 637.894531 492.191406 635.488281 491.8125 633.878906 493.105469 C 626.027344 499.429688 613.835938 501.046875 605.859375 494.910156 C 602.488281 492.25 600.628906 488.441406 600.628906 484.183594 C 601.277344 466.988281 616.839844 466.230469 633.289062 466.070312 C 635.585938 466.046875 637.175781 463.777344 636.417969 461.609375 C 631.957031 448.835938 609.652344 451.25 607.273438 463.789062 C 606.976562 465.355469 605.628906 466.5 604.03125 466.523438 L 603.71875 466.527344 C 601.601562 466.558594 599.996094 464.640625 600.378906 462.554688 C 603.121094 447.597656 626.269531 439.664062 638.746094 452.394531 C 649.019531 463.996094 641.144531 481.128906 645.347656 491.121094 Z M 636.140625 477.253906 C 636.765625 475.105469 635.140625 472.960938 632.90625 472.972656 C 623.101562 473.035156 613.640625 473.636719 609.882812 477.535156 C 604.480469 483.738281 608.726562 491.992188 617.417969 491.824219 C 626.546875 492.054688 633.628906 485.898438 636.140625 477.253906 Z M 636.140625 477.253906 " fill-opacity="1" fill-rule="nonzero"/><g clip-path="url(#c44950ed29)"><path fill="#faead3" d="M 731.570312 472.492188 C 731.570312 486.300781 720.335938 497.535156 706.527344 497.535156 C 692.71875 497.535156 681.484375 486.300781 681.484375 472.492188 C 681.484375 458.683594 692.71875 447.449219 706.527344 447.449219 C 720.335938 447.449219 731.570312 458.683594 731.570312 472.492188 Z M 724.636719 472.492188 C 724.636719 462.507812 716.511719 454.382812 706.527344 454.382812 C 696.542969 454.382812 688.417969 462.507812 688.417969 472.492188 C 688.417969 482.476562 696.542969 490.597656 706.527344 490.597656 C 716.511719 490.597656 724.636719 482.476562 724.636719 472.492188 Z M 724.636719 472.492188 " fill-opacity="1" fill-rule="nonzero"/></g><path fill="#faead3" d="M 471.648438 446.882812 L 471.640625 446.882812 C 471.640625 446.890625 471.640625 446.898438 471.644531 446.90625 L 471.5 446.90625 C 469.648438 446.90625 468.148438 448.40625 468.148438 450.253906 L 468.148438 495.28125 C 468.148438 497.132812 469.648438 498.632812 471.5 498.632812 L 471.734375 498.632812 C 473.585938 498.632812 475.082031 497.132812 475.082031 495.28125 L 475.082031 450.253906 C 475.082031 448.40625 473.585938 446.90625 471.734375 446.90625 L 471.648438 446.90625 C 471.648438 446.898438 471.648438 446.890625 471.648438 446.882812 Z M 471.648438 446.882812 " fill-opacity="1" fill-rule="nonzero"/><path fill="#faead3" d="M 202.304688 446.882812 L 202.296875 446.882812 C 202.296875 446.890625 202.296875 446.898438 202.300781 446.90625 L 202.046875 446.90625 C 200.257812 446.90625 198.804688 448.359375 198.804688 450.148438 L 198.804688 495.390625 C 198.804688 497.179688 200.257812 498.632812 202.046875 498.632812 L 202.496094 498.632812 C 204.289062 498.632812 205.738281 497.179688 205.738281 495.390625 L 205.738281 450.148438 C 205.738281 448.359375 204.289062 446.90625 202.496094 446.90625 L 202.304688 446.90625 C 202.304688 446.898438 202.304688 446.890625 202.304688 446.882812 Z M 202.304688 446.882812 " fill-opacity="1" fill-rule="nonzero"/><path fill="#faead3" d="M 659.140625 431.199219 L 659.195312 431.199219 L 659.195312 444.863281 L 659.140625 444.863281 Z M 659.140625 431.199219 " fill-opacity="1" fill-rule="nonzero"/><path fill="#faead3" d="M 679.253906 478.648438 L 679.253906 473.605469 C 679.253906 471.753906 677.753906 470.253906 675.90625 470.253906 L 675.71875 470.253906 C 673.871094 470.253906 672.371094 471.753906 672.371094 473.605469 L 672.371094 484.945312 C 672.347656 485.527344 672.175781 488.574219 669.722656 490.597656 C 667.976562 492.542969 663.613281 492.582031 661.84375 490.597656 C 659.765625 488.875 659.367188 486.445312 659.285156 485.609375 C 659.273438 485.507812 659.269531 485.40625 659.265625 485.300781 C 659.199219 475.636719 659.175781 465.871094 659.199219 456.140625 C 659.203125 454.289062 660.707031 452.796875 662.554688 452.800781 C 667.003906 452.804688 671.453125 452.8125 675.898438 452.820312 C 677.75 452.824219 679.253906 451.324219 679.253906 449.46875 L 679.253906 448.214844 C 679.253906 446.363281 677.753906 444.863281 675.90625 444.863281 L 662.492188 444.863281 C 660.640625 444.863281 659.140625 443.363281 659.140625 441.515625 L 659.140625 434.550781 C 659.140625 432.699219 657.640625 431.199219 655.792969 431.199219 L 655.613281 431.199219 C 653.761719 431.199219 652.261719 432.703125 652.265625 434.554688 C 652.289062 451.546875 652.3125 468.539062 652.332031 485.53125 C 651.964844 492.484375 658.40625 499.074219 666.117188 498.523438 C 666.285156 498.511719 666.453125 498.511719 666.617188 498.523438 C 673.28125 499.042969 679.023438 492.988281 679.253906 487.195312 C 679.445312 484.328125 679.074219 482.191406 679.253906 478.648438 Z M 679.253906 478.648438 " fill-opacity="1" fill-rule="nonzero"/><path fill="#faead3" d="M 202.046875 437.0625 L 202.496094 437.0625 C 202.925781 437.0625 203.339844 437.144531 203.738281 437.308594 C 204.136719 437.476562 204.484375 437.710938 204.789062 438.011719 C 205.09375 438.316406 205.328125 438.667969 205.492188 439.066406 C 205.65625 439.460938 205.738281 439.875 205.738281 440.304688 L 205.738281 440.753906 C 205.738281 441.183594 205.65625 441.597656 205.492188 441.996094 C 205.328125 442.394531 205.09375 442.746094 204.789062 443.046875 C 204.484375 443.351562 204.136719 443.585938 203.738281 443.75 C 203.339844 443.914062 202.925781 444 202.496094 444 L 202.046875 444 C 201.617188 444 201.203125 443.914062 200.808594 443.75 C 200.410156 443.585938 200.058594 443.351562 199.753906 443.046875 C 199.453125 442.746094 199.21875 442.394531 199.050781 441.996094 C 198.886719 441.597656 198.804688 441.183594 198.804688 440.753906 L 198.804688 440.304688 C 198.804688 439.875 198.886719 439.460938 199.050781 439.066406 C 199.21875 438.667969 199.453125 438.316406 199.753906 438.011719 C 200.058594 437.710938 200.410156 437.476562 200.808594 437.308594 C 201.203125 437.144531 201.617188 437.0625 202.046875 437.0625 Z M 202.046875 437.0625 " fill-opacity="1" fill-rule="nonzero"/><path fill="#faead3" d="M 471.5 437.0625 L 471.734375 437.0625 C 472.179688 437.0625 472.605469 437.148438 473.015625 437.320312 C 473.425781 437.488281 473.789062 437.730469 474.101562 438.042969 C 474.417969 438.359375 474.660156 438.722656 474.828125 439.132812 C 475 439.542969 475.082031 439.96875 475.082031 440.414062 L 475.082031 440.648438 C 475.082031 441.09375 475 441.519531 474.828125 441.929688 C 474.660156 442.339844 474.417969 442.703125 474.101562 443.015625 C 473.789062 443.332031 473.425781 443.574219 473.015625 443.742188 C 472.605469 443.914062 472.179688 444 471.734375 444 L 471.5 444 C 471.054688 444 470.628906 443.914062 470.21875 443.742188 C 469.808594 443.574219 469.445312 443.332031 469.128906 443.015625 C 468.816406 442.703125 468.574219 442.339844 468.40625 441.929688 C 468.234375 441.519531 468.148438 441.09375 468.148438 440.648438 L 468.148438 440.414062 C 468.148438 439.96875 468.234375 439.542969 468.40625 439.132812 C 468.574219 438.722656 468.816406 438.359375 469.128906 438.042969 C 469.445312 437.730469 469.808594 437.488281 470.21875 437.320312 C 470.628906 437.148438 471.054688 437.0625 471.5 437.0625 Z M 471.5 437.0625 " fill-opacity="1" fill-rule="nonzero"/><g transform="matrix(1, 0, 0, 1, 267, 519)"><g clip-path="url(#f781c1e007)"><g fill="#faead3" fill-opacity="1"><g transform="translate(1.891298, 21.417124)"><g><path d="M 7.015625 -4.515625 L 7.015625 -7.453125 L 9.796875 -7.453125 L 9.796875 -4.234375 C 9.796875 -3.429688 9.632812 -2.6875 9.3125 -2 C 8.988281 -1.3125 8.492188 -0.753906 7.828125 -0.328125 C 7.160156 0.0859375 6.289062 0.296875 5.21875 0.296875 C 4.113281 0.296875 3.222656 0.0859375 2.546875 -0.328125 C 1.878906 -0.753906 1.382812 -1.3125 1.0625 -2 C 0.75 -2.6875 0.59375 -3.4375 0.59375 -4.25 L 0.59375 -14.375 L 3.546875 -14.375 L 3.546875 -11.3125 L 9.796875 -11.3125 L 9.796875 -9.203125 L 3.546875 -9.203125 L 3.546875 -4.546875 C 3.546875 -3.847656 3.675781 -3.296875 3.9375 -2.890625 C 4.207031 -2.492188 4.648438 -2.296875 5.265625 -2.296875 C 5.859375 -2.296875 6.296875 -2.488281 6.578125 -2.875 C 6.867188 -3.257812 7.015625 -3.804688 7.015625 -4.515625 Z M 7.015625 -4.515625 "/></g></g></g><g fill="#faead3" fill-opacity="1"><g transform="translate(17.087641, 21.417124)"><g><path d="M 3.421875 -6.765625 L 8.046875 -6.765625 C 8.035156 -7.609375 7.789062 -8.234375 7.3125 -8.640625 C 6.832031 -9.046875 6.304688 -9.25 5.734375 -9.25 C 5.128906 -9.25 4.609375 -9.03125 4.171875 -8.59375 C 3.734375 -8.15625 3.484375 -7.546875 3.421875 -6.765625 Z M 11.125 -4.875 L 3.328125 -4.875 C 3.378906 -4.03125 3.628906 -3.347656 4.078125 -2.828125 C 4.535156 -2.316406 5.128906 -2.0625 5.859375 -2.0625 C 6.347656 -2.0625 6.78125 -2.175781 7.15625 -2.40625 C 7.539062 -2.644531 7.785156 -2.953125 7.890625 -3.328125 L 10.96875 -3.328125 C 10.632812 -2.171875 10.023438 -1.273438 9.140625 -0.640625 C 8.253906 -0.015625 7.207031 0.296875 6 0.296875 C 2.226562 0.296875 0.34375 -1.753906 0.34375 -5.859375 C 0.34375 -7.609375 0.820312 -9.003906 1.78125 -10.046875 C 2.738281 -11.085938 4.082031 -11.609375 5.8125 -11.609375 C 7.550781 -11.609375 8.867188 -11.046875 9.765625 -9.921875 C 10.671875 -8.796875 11.125 -7.113281 11.125 -4.875 Z M 11.125 -4.875 "/></g></g></g><g fill="#faead3" fill-opacity="1"><g transform="translate(33.432925, 21.417124)"><g><path d="M 3.59375 0 L 0.59375 0 L 0.59375 -11.3125 L 3.40625 -11.3125 L 3.40625 -9.953125 C 3.738281 -10.460938 4.082031 -10.835938 4.4375 -11.078125 C 4.800781 -11.316406 5.175781 -11.460938 5.5625 -11.515625 C 5.957031 -11.578125 6.359375 -11.609375 6.765625 -11.609375 L 7.15625 -11.609375 L 7.15625 -8.5625 C 6.875 -8.601562 6.597656 -8.625 6.328125 -8.625 C 4.503906 -8.625 3.59375 -7.710938 3.59375 -5.890625 Z M 3.59375 0 "/></g></g></g><g fill="#faead3" fill-opacity="1"><g transform="translate(45.044005, 21.417124)"><g><path d="M 7.453125 -4.296875 L 7.46875 -5.546875 C 7.226562 -5.296875 6.585938 -5.070312 5.546875 -4.875 C 4.703125 -4.71875 4.113281 -4.503906 3.78125 -4.234375 C 3.445312 -3.972656 3.28125 -3.597656 3.28125 -3.109375 C 3.28125 -2.265625 3.765625 -1.84375 4.734375 -1.84375 C 5.503906 -1.84375 6.144531 -2.085938 6.65625 -2.578125 C 7.164062 -3.066406 7.429688 -3.640625 7.453125 -4.296875 Z M 10.46875 0 L 7.6875 0 C 7.59375 -0.289062 7.53125 -0.628906 7.5 -1.015625 C 7.144531 -0.628906 6.675781 -0.3125 6.09375 -0.0625 C 5.507812 0.175781 4.835938 0.296875 4.078125 0.296875 C 2.785156 0.296875 1.832031 0.0078125 1.21875 -0.5625 C 0.601562 -1.132812 0.296875 -1.882812 0.296875 -2.8125 C 0.296875 -3.625 0.421875 -4.273438 0.671875 -4.765625 C 0.929688 -5.253906 1.296875 -5.628906 1.765625 -5.890625 C 2.234375 -6.160156 2.785156 -6.359375 3.421875 -6.484375 C 4.054688 -6.617188 4.75 -6.742188 5.5 -6.859375 C 6.25 -6.960938 6.753906 -7.101562 7.015625 -7.28125 C 7.273438 -7.46875 7.40625 -7.753906 7.40625 -8.140625 C 7.40625 -8.503906 7.234375 -8.789062 6.890625 -9 C 6.546875 -9.207031 6.082031 -9.3125 5.5 -9.3125 C 4.820312 -9.3125 4.328125 -9.15625 4.015625 -8.84375 C 3.710938 -8.539062 3.523438 -8.140625 3.453125 -7.640625 L 0.671875 -7.640625 C 0.679688 -8.421875 0.847656 -9.109375 1.171875 -9.703125 C 1.492188 -10.304688 2.015625 -10.773438 2.734375 -11.109375 C 3.453125 -11.441406 4.421875 -11.609375 5.640625 -11.609375 C 7.429688 -11.609375 8.679688 -11.222656 9.390625 -10.453125 C 10.109375 -9.679688 10.46875 -8.582031 10.46875 -7.15625 Z M 10.46875 0 "/></g></g></g><g fill="#faead3" fill-opacity="1"><g transform="translate(60.99865, 21.417124)"><g><path d="M 5.9375 -2.25 C 7.65625 -2.25 8.515625 -3.414062 8.515625 -5.75 C 8.515625 -6.757812 8.273438 -7.582031 7.796875 -8.21875 C 7.316406 -8.851562 6.703125 -9.171875 5.953125 -9.171875 C 5.253906 -9.171875 4.65625 -8.867188 4.15625 -8.265625 C 3.664062 -7.660156 3.421875 -6.882812 3.421875 -5.9375 C 3.421875 -3.476562 4.257812 -2.25 5.9375 -2.25 Z M 3.546875 5.359375 L 0.59375 5.359375 L 0.59375 -11.3125 L 3.46875 -11.3125 L 3.5 -9.9375 C 4.1875 -11.050781 5.234375 -11.609375 6.640625 -11.609375 C 7.597656 -11.609375 8.441406 -11.367188 9.171875 -10.890625 C 9.910156 -10.410156 10.488281 -9.71875 10.90625 -8.8125 C 11.332031 -7.90625 11.546875 -6.816406 11.546875 -5.546875 C 11.546875 -4.410156 11.359375 -3.398438 10.984375 -2.515625 C 10.617188 -1.640625 10.09375 -0.953125 9.40625 -0.453125 C 8.71875 0.046875 7.882812 0.296875 6.90625 0.296875 C 5.507812 0.296875 4.390625 -0.289062 3.546875 -1.46875 Z M 3.546875 5.359375 "/></g></g></g><g fill="#faead3" fill-opacity="1"><g transform="translate(77.803501, 21.417124)"><g><path d="M 3.65625 0 L 0.671875 0 L 0.671875 -11.3125 L 3.65625 -11.3125 Z M 3.65625 -12.671875 L 0.671875 -12.671875 L 0.671875 -15.453125 L 3.65625 -15.453125 Z M 3.65625 -12.671875 "/></g></g></g><g fill="#faead3" fill-opacity="1"><g transform="translate(87.002331, 21.417124)"><g><path d="M 7.453125 -4.296875 L 7.46875 -5.546875 C 7.226562 -5.296875 6.585938 -5.070312 5.546875 -4.875 C 4.703125 -4.71875 4.113281 -4.503906 3.78125 -4.234375 C 3.445312 -3.972656 3.28125 -3.597656 3.28125 -3.109375 C 3.28125 -2.265625 3.765625 -1.84375 4.734375 -1.84375 C 5.503906 -1.84375 6.144531 -2.085938 6.65625 -2.578125 C 7.164062 -3.066406 7.429688 -3.640625 7.453125 -4.296875 Z M 10.46875 0 L 7.6875 0 C 7.59375 -0.289062 7.53125 -0.628906 7.5 -1.015625 C 7.144531 -0.628906 6.675781 -0.3125 6.09375 -0.0625 C 5.507812 0.175781 4.835938 0.296875 4.078125 0.296875 C 2.785156 0.296875 1.832031 0.0078125 1.21875 -0.5625 C 0.601562 -1.132812 0.296875 -1.882812 0.296875 -2.8125 C 0.296875 -3.625 0.421875 -4.273438 0.671875 -4.765625 C 0.929688 -5.253906 1.296875 -5.628906 1.765625 -5.890625 C 2.234375 -6.160156 2.785156 -6.359375 3.421875 -6.484375 C 4.054688 -6.617188 4.75 -6.742188 5.5 -6.859375 C 6.25 -6.960938 6.753906 -7.101562 7.015625 -7.28125 C 7.273438 -7.46875 7.40625 -7.753906 7.40625 -8.140625 C 7.40625 -8.503906 7.234375 -8.789062 6.890625 -9 C 6.546875 -9.207031 6.082031 -9.3125 5.5 -9.3125 C 4.820312 -9.3125 4.328125 -9.15625 4.015625 -8.84375 C 3.710938 -8.539062 3.523438 -8.140625 3.453125 -7.640625 L 0.671875 -7.640625 C 0.679688 -8.421875 0.847656 -9.109375 1.171875 -9.703125 C 1.492188 -10.304688 2.015625 -10.773438 2.734375 -11.109375 C 3.453125 -11.441406 4.421875 -11.609375 5.640625 -11.609375 C 7.429688 -11.609375 8.679688 -11.222656 9.390625 -10.453125 C 10.109375 -9.679688 10.46875 -8.582031 10.46875 -7.15625 Z M 10.46875 0 "/></g></g></g><g fill="#faead3" fill-opacity="1"><g transform="translate(102.956975, 21.417124)"><g/></g></g><g fill="#faead3" fill-opacity="1"><g transform="translate(113.28177, 21.417124)"><g><path d="M 6.15625 -2.203125 C 7.988281 -2.203125 8.90625 -3.351562 8.90625 -5.65625 C 8.90625 -7.9375 7.988281 -9.078125 6.15625 -9.078125 C 4.332031 -9.078125 3.421875 -7.9375 3.421875 -5.65625 C 3.421875 -3.351562 4.332031 -2.203125 6.15625 -2.203125 Z M 6.15625 0.296875 C 4.945312 0.296875 3.90625 0.046875 3.03125 -0.453125 C 2.15625 -0.960938 1.488281 -1.664062 1.03125 -2.5625 C 0.570312 -3.457031 0.34375 -4.488281 0.34375 -5.65625 C 0.34375 -6.851562 0.578125 -7.898438 1.046875 -8.796875 C 1.523438 -9.691406 2.195312 -10.382812 3.0625 -10.875 C 3.9375 -11.363281 4.96875 -11.609375 6.15625 -11.609375 C 7.34375 -11.609375 8.363281 -11.363281 9.21875 -10.875 C 10.082031 -10.382812 10.742188 -9.691406 11.203125 -8.796875 C 11.671875 -7.910156 11.90625 -6.863281 11.90625 -5.65625 C 11.90625 -4.457031 11.671875 -3.414062 11.203125 -2.53125 C 10.742188 -1.644531 10.082031 -0.953125 9.21875 -0.453125 C 8.363281 0.046875 7.34375 0.296875 6.15625 0.296875 Z M 6.15625 0.296875 "/></g></g></g><g fill="#faead3" fill-opacity="1"><g transform="translate(130.454284, 21.417124)"><g><path d="M 7.78125 -4.09375 L 10.78125 -4.09375 C 10.675781 -3.21875 10.382812 -2.453125 9.90625 -1.796875 C 9.4375 -1.140625 8.828125 -0.625 8.078125 -0.25 C 7.335938 0.113281 6.507812 0.296875 5.59375 0.296875 C 4.050781 0.296875 2.796875 -0.210938 1.828125 -1.234375 C 0.867188 -2.253906 0.390625 -3.773438 0.390625 -5.796875 C 0.390625 -7.816406 0.875 -9.289062 1.84375 -10.21875 C 2.820312 -11.144531 4.101562 -11.609375 5.6875 -11.609375 C 7.15625 -11.609375 8.351562 -11.21875 9.28125 -10.4375 C 10.207031 -9.65625 10.71875 -8.597656 10.8125 -7.265625 L 7.796875 -7.265625 C 7.722656 -7.847656 7.488281 -8.300781 7.09375 -8.625 C 6.707031 -8.957031 6.226562 -9.125 5.65625 -9.125 C 5.03125 -9.125 4.488281 -8.882812 4.03125 -8.40625 C 3.582031 -7.9375 3.359375 -7.085938 3.359375 -5.859375 C 3.359375 -4.640625 3.578125 -3.722656 4.015625 -3.109375 C 4.460938 -2.503906 4.976562 -2.203125 5.5625 -2.203125 C 6.144531 -2.203125 6.644531 -2.363281 7.0625 -2.6875 C 7.476562 -3.007812 7.71875 -3.476562 7.78125 -4.09375 Z M 7.78125 -4.09375 "/></g></g></g><g fill="#faead3" fill-opacity="1"><g transform="translate(146.294025, 21.417124)"><g><path d="M 10.78125 0 L 7.953125 0 L 7.953125 -1.59375 C 7.191406 -0.332031 6.019531 0.296875 4.4375 0.296875 C 3.6875 0.296875 3.023438 0.117188 2.453125 -0.234375 C 1.878906 -0.585938 1.425781 -1.070312 1.09375 -1.6875 C 0.757812 -2.3125 0.59375 -3.035156 0.59375 -3.859375 L 0.59375 -11.3125 L 3.59375 -11.3125 L 3.59375 -4.328125 C 3.59375 -2.910156 4.226562 -2.203125 5.5 -2.203125 C 6.257812 -2.203125 6.832031 -2.441406 7.21875 -2.921875 C 7.613281 -3.410156 7.8125 -4.03125 7.8125 -4.78125 L 7.8125 -11.3125 L 10.78125 -11.3125 Z M 10.78125 0 "/></g></g></g><g fill="#faead3" fill-opacity="1"><g transform="translate(162.570381, 21.417124)"><g><path d="M 5.9375 -2.25 C 7.65625 -2.25 8.515625 -3.414062 8.515625 -5.75 C 8.515625 -6.757812 8.273438 -7.582031 7.796875 -8.21875 C 7.316406 -8.851562 6.703125 -9.171875 5.953125 -9.171875 C 5.253906 -9.171875 4.65625 -8.867188 4.15625 -8.265625 C 3.664062 -7.660156 3.421875 -6.882812 3.421875 -5.9375 C 3.421875 -3.476562 4.257812 -2.25 5.9375 -2.25 Z M 3.546875 5.359375 L 0.59375 5.359375 L 0.59375 -11.3125 L 3.46875 -11.3125 L 3.5 -9.9375 C 4.1875 -11.050781 5.234375 -11.609375 6.640625 -11.609375 C 7.597656 -11.609375 8.441406 -11.367188 9.171875 -10.890625 C 9.910156 -10.410156 10.488281 -9.71875 10.90625 -8.8125 C 11.332031 -7.90625 11.546875 -6.816406 11.546875 -5.546875 C 11.546875 -4.410156 11.359375 -3.398438 10.984375 -2.515625 C 10.617188 -1.640625 10.09375 -0.953125 9.40625 -0.453125 C 8.71875 0.046875 7.882812 0.296875 6.90625 0.296875 C 5.507812 0.296875 4.390625 -0.289062 3.546875 -1.46875 Z M 3.546875 5.359375 "/></g></g></g><g fill="#faead3" fill-opacity="1"><g transform="translate(179.375232, 21.417124)"><g><path d="M 7.453125 -4.296875 L 7.46875 -5.546875 C 7.226562 -5.296875 6.585938 -5.070312 5.546875 -4.875 C 4.703125 -4.71875 4.113281 -4.503906 3.78125 -4.234375 C 3.445312 -3.972656 3.28125 -3.597656 3.28125 -3.109375 C 3.28125 -2.265625 3.765625 -1.84375 4.734375 -1.84375 C 5.503906 -1.84375 6.144531 -2.085938 6.65625 -2.578125 C 7.164062 -3.066406 7.429688 -3.640625 7.453125 -4.296875 Z M 10.46875 0 L 7.6875 0 C 7.59375 -0.289062 7.53125 -0.628906 7.5 -1.015625 C 7.144531 -0.628906 6.675781 -0.3125 6.09375 -0.0625 C 5.507812 0.175781 4.835938 0.296875 4.078125 0.296875 C 2.785156 0.296875 1.832031 0.0078125 1.21875 -0.5625 C 0.601562 -1.132812 0.296875 -1.882812 0.296875 -2.8125 C 0.296875 -3.625 0.421875 -4.273438 0.671875 -4.765625 C 0.929688 -5.253906 1.296875 -5.628906 1.765625 -5.890625 C 2.234375 -6.160156 2.785156 -6.359375 3.421875 -6.484375 C 4.054688 -6.617188 4.75 -6.742188 5.5 -6.859375 C 6.25 -6.960938 6.753906 -7.101562 7.015625 -7.28125 C 7.273438 -7.46875 7.40625 -7.753906 7.40625 -8.140625 C 7.40625 -8.503906 7.234375 -8.789062 6.890625 -9 C 6.546875 -9.207031 6.082031 -9.3125 5.5 -9.3125 C 4.820312 -9.3125 4.328125 -9.15625 4.015625 -8.84375 C 3.710938 -8.539062 3.523438 -8.140625 3.453125 -7.640625 L 0.671875 -7.640625 C 0.679688 -8.421875 0.847656 -9.109375 1.171875 -9.703125 C 1.492188 -10.304688 2.015625 -10.773438 2.734375 -11.109375 C 3.453125 -11.441406 4.421875 -11.609375 5.640625 -11.609375 C 7.429688 -11.609375 8.679688 -11.222656 9.390625 -10.453125 C 10.109375 -9.679688 10.46875 -8.582031 10.46875 -7.15625 Z M 10.46875 0 "/></g></g></g><g fill="#faead3" fill-opacity="1"><g transform="translate(195.329877, 21.417124)"><g><path d="M 7.78125 -4.09375 L 10.78125 -4.09375 C 10.675781 -3.21875 10.382812 -2.453125 9.90625 -1.796875 C 9.4375 -1.140625 8.828125 -0.625 8.078125 -0.25 C 7.335938 0.113281 6.507812 0.296875 5.59375 0.296875 C 4.050781 0.296875 2.796875 -0.210938 1.828125 -1.234375 C 0.867188 -2.253906 0.390625 -3.773438 0.390625 -5.796875 C 0.390625 -7.816406 0.875 -9.289062 1.84375 -10.21875 C 2.820312 -11.144531 4.101562 -11.609375 5.6875 -11.609375 C 7.15625 -11.609375 8.351562 -11.21875 9.28125 -10.4375 C 10.207031 -9.65625 10.71875 -8.597656 10.8125 -7.265625 L 7.796875 -7.265625 C 7.722656 -7.847656 7.488281 -8.300781 7.09375 -8.625 C 6.707031 -8.957031 6.226562 -9.125 5.65625 -9.125 C 5.03125 -9.125 4.488281 -8.882812 4.03125 -8.40625 C 3.582031 -7.9375 3.359375 -7.085938 3.359375 -5.859375 C 3.359375 -4.640625 3.578125 -3.722656 4.015625 -3.109375 C 4.460938 -2.503906 4.976562 -2.203125 5.5625 -2.203125 C 6.144531 -2.203125 6.644531 -2.363281 7.0625 -2.6875 C 7.476562 -3.007812 7.71875 -3.476562 7.78125 -4.09375 Z M 7.78125 -4.09375 "/></g></g></g><g fill="#faead3" fill-opacity="1"><g transform="translate(211.169618, 21.417124)"><g><path d="M 3.65625 0 L 0.671875 0 L 0.671875 -11.3125 L 3.65625 -11.3125 Z M 3.65625 -12.671875 L 0.671875 -12.671875 L 0.671875 -15.453125 L 3.65625 -15.453125 Z M 3.65625 -12.671875 "/></g></g></g><g fill="#faead3" fill-opacity="1"><g transform="translate(220.368447, 21.417124)"><g><path d="M 6.15625 -2.203125 C 7.988281 -2.203125 8.90625 -3.351562 8.90625 -5.65625 C 8.90625 -7.9375 7.988281 -9.078125 6.15625 -9.078125 C 4.332031 -9.078125 3.421875 -7.9375 3.421875 -5.65625 C 3.421875 -3.351562 4.332031 -2.203125 6.15625 -2.203125 Z M 6.15625 0.296875 C 4.945312 0.296875 3.90625 0.046875 3.03125 -0.453125 C 2.15625 -0.960938 1.488281 -1.664062 1.03125 -2.5625 C 0.570312 -3.457031 0.34375 -4.488281 0.34375 -5.65625 C 0.34375 -6.851562 0.578125 -7.898438 1.046875 -8.796875 C 1.523438 -9.691406 2.195312 -10.382812 3.0625 -10.875 C 3.9375 -11.363281 4.96875 -11.609375 6.15625 -11.609375 C 7.34375 -11.609375 8.363281 -11.363281 9.21875 -10.875 C 10.082031 -10.382812 10.742188 -9.691406 11.203125 -8.796875 C 11.671875 -7.910156 11.90625 -6.863281 11.90625 -5.65625 C 11.90625 -4.457031 11.671875 -3.414062 11.203125 -2.53125 C 10.742188 -1.644531 10.082031 -0.953125 9.21875 -0.453125 C 8.363281 0.046875 7.34375 0.296875 6.15625 0.296875 Z M 6.15625 0.296875 "/></g></g></g><g fill="#faead3" fill-opacity="1"><g transform="translate(237.540961, 21.417124)"><g><path d="M 10.859375 0 L 7.84375 0 L 7.84375 -6.859375 C 7.84375 -7.734375 7.695312 -8.320312 7.40625 -8.625 C 7.125 -8.925781 6.625 -9.078125 5.90625 -9.078125 C 4.363281 -9.078125 3.59375 -8.210938 3.59375 -6.484375 L 3.59375 0 L 0.59375 0 L 0.59375 -11.3125 L 3.453125 -11.3125 L 3.453125 -9.65625 C 3.804688 -10.289062 4.273438 -10.773438 4.859375 -11.109375 C 5.453125 -11.441406 6.203125 -11.609375 7.109375 -11.609375 C 8.191406 -11.609375 9.085938 -11.285156 9.796875 -10.640625 C 10.503906 -10.003906 10.859375 -9.070312 10.859375 -7.84375 Z M 10.859375 0 "/></g></g></g><g fill="#faead3" fill-opacity="1"><g transform="translate(253.886245, 21.417124)"><g><path d="M 7.453125 -4.296875 L 7.46875 -5.546875 C 7.226562 -5.296875 6.585938 -5.070312 5.546875 -4.875 C 4.703125 -4.71875 4.113281 -4.503906 3.78125 -4.234375 C 3.445312 -3.972656 3.28125 -3.597656 3.28125 -3.109375 C 3.28125 -2.265625 3.765625 -1.84375 4.734375 -1.84375 C 5.503906 -1.84375 6.144531 -2.085938 6.65625 -2.578125 C 7.164062 -3.066406 7.429688 -3.640625 7.453125 -4.296875 Z M 10.46875 0 L 7.6875 0 C 7.59375 -0.289062 7.53125 -0.628906 7.5 -1.015625 C 7.144531 -0.628906 6.675781 -0.3125 6.09375 -0.0625 C 5.507812 0.175781 4.835938 0.296875 4.078125 0.296875 C 2.785156 0.296875 1.832031 0.0078125 1.21875 -0.5625 C 0.601562 -1.132812 0.296875 -1.882812 0.296875 -2.8125 C 0.296875 -3.625 0.421875 -4.273438 0.671875 -4.765625 C 0.929688 -5.253906 1.296875 -5.628906 1.765625 -5.890625 C 2.234375 -6.160156 2.785156 -6.359375 3.421875 -6.484375 C 4.054688 -6.617188 4.75 -6.742188 5.5 -6.859375 C 6.25 -6.960938 6.753906 -7.101562 7.015625 -7.28125 C 7.273438 -7.46875 7.40625 -7.753906 7.40625 -8.140625 C 7.40625 -8.503906 7.234375 -8.789062 6.890625 -9 C 6.546875 -9.207031 6.082031 -9.3125 5.5 -9.3125 C 4.820312 -9.3125 4.328125 -9.15625 4.015625 -8.84375 C 3.710938 -8.539062 3.523438 -8.140625 3.453125 -7.640625 L 0.671875 -7.640625 C 0.679688 -8.421875 0.847656 -9.109375 1.171875 -9.703125 C 1.492188 -10.304688 2.015625 -10.773438 2.734375 -11.109375 C 3.453125 -11.441406 4.421875 -11.609375 5.640625 -11.609375 C 7.429688 -11.609375 8.679688 -11.222656 9.390625 -10.453125 C 10.109375 -9.679688 10.46875 -8.582031 10.46875 -7.15625 Z M 10.46875 0 "/></g></g></g><g fill="#faead3" fill-opacity="1"><g transform="translate(269.84089, 21.417124)"><g><path d="M 3.59375 0 L 0.59375 0 L 0.59375 -15.453125 L 3.59375 -15.453125 Z M 3.59375 0 "/></g></g></g></g></g><g transform="matrix(1, 0, 0, 1, 229, 514)"><g clip-path="url(#4750c87673)"><g fill="#faead3" fill-opacity="1"><g transform="translate(1.99534, 30.725447)"><g><path d="M 11.828125 -22.515625 L 12.90625 -22.515625 L 12.90625 -13.78125 L 16.015625 -21.90625 L 17.15625 -21.453125 L 13.71875 -13.390625 L 19.828125 -19.65625 L 20.703125 -18.78125 L 14.4375 -12.640625 L 22.484375 -16.125 L 22.9375 -14.984375 L 14.8125 -11.765625 L 23.5625 -11.765625 L 23.5625 -10.6875 L 14.8125 -10.6875 L 22.9375 -7.546875 L 22.484375 -6.375 L 14.4375 -9.9375 L 20.703125 -3.734375 L 19.828125 -2.859375 L 13.71875 -9.265625 L 17.15625 -1.109375 L 16.015625 -0.65625 L 12.90625 -8.90625 L 12.90625 0 L 11.828125 0 L 11.828125 -8.90625 L 8.671875 -0.65625 L 7.5 -1.109375 L 10.953125 -9.265625 L 4.875 -2.859375 L 4 -3.734375 L 10.328125 -9.9375 L 2.203125 -6.375 L 1.75 -7.546875 L 10.015625 -10.6875 L 1.140625 -10.6875 L 1.140625 -11.765625 L 10.015625 -11.765625 L 1.75 -14.984375 L 2.203125 -16.125 L 10.328125 -12.640625 L 4 -18.78125 L 4.875 -19.65625 L 10.953125 -13.390625 L 7.5 -21.453125 L 8.671875 -21.90625 L 11.828125 -13.78125 Z M 11.828125 -22.515625 "/></g></g></g><g fill="#faead3" fill-opacity="1"><g transform="translate(33.437759, 30.725447)"><g/></g></g><g fill="#faead3" fill-opacity="1"><g transform="translate(48.030672, 30.725447)"><g/></g></g><g fill="#faead3" fill-opacity="1"><g transform="translate(62.623586, 30.725447)"><g/></g></g><g fill="#faead3" fill-opacity="1"><g transform="translate(77.216499, 30.725447)"><g/></g></g><g fill="#faead3" fill-opacity="1"><g transform="translate(91.809412, 30.725447)"><g/></g></g><g fill="#faead3" fill-opacity="1"><g transform="translate(106.402325, 30.725447)"><g/></g></g><g fill="#faead3" fill-opacity="1"><g transform="translate(120.995239, 30.725447)"><g/></g></g><g fill="#faead3" fill-opacity="1"><g transform="translate(135.588152, 30.725447)"><g/></g></g><g fill="#faead3" fill-opacity="1"><g transform="translate(150.181065, 30.725447)"><g/></g></g><g fill="#faead3" fill-opacity="1"><g transform="translate(164.773979, 30.725447)"><g/></g></g><g fill="#faead3" fill-opacity="1"><g transform="translate(179.366892, 30.725447)"><g/></g></g><g fill="#faead3" fill-opacity="1"><g transform="translate(193.959805, 30.725447)"><g/></g></g><g fill="#faead3" fill-opacity="1"><g transform="translate(208.552718, 30.725447)"><g/></g></g><g fill="#faead3" fill-opacity="1"><g transform="translate(223.145632, 30.725447)"><g/></g></g><g fill="#faead3" fill-opacity="1"><g transform="translate(237.738545, 30.725447)"><g/></g></g><g fill="#faead3" fill-opacity="1"><g transform="translate(252.331458, 30.725447)"><g/></g></g><g fill="#faead3" fill-opacity="1"><g transform="translate(266.924372, 30.725447)"><g/></g></g><g fill="#faead3" fill-opacity="1"><g transform="translate(281.517285, 30.725447)"><g/></g></g><g fill="#faead3" fill-opacity="1"><g transform="translate(296.110198, 30.725447)"><g/></g></g><g fill="#faead3" fill-opacity="1"><g transform="translate(310.703111, 30.725447)"><g/></g></g><g fill="#faead3" fill-opacity="1"><g transform="translate(325.30447, 30.725447)"><g><path d="M 11.828125 -22.515625 L 12.90625 -22.515625 L 12.90625 -13.78125 L 16.015625 -21.90625 L 17.15625 -21.453125 L 13.71875 -13.390625 L 19.828125 -19.65625 L 20.703125 -18.78125 L 14.4375 -12.640625 L 22.484375 -16.125 L 22.9375 -14.984375 L 14.8125 -11.765625 L 23.5625 -11.765625 L 23.5625 -10.6875 L 14.8125 -10.6875 L 22.9375 -7.546875 L 22.484375 -6.375 L 14.4375 -9.9375 L 20.703125 -3.734375 L 19.828125 -2.859375 L 13.71875 -9.265625 L 17.15625 -1.109375 L 16.015625 -0.65625 L 12.90625 -8.90625 L 12.90625 0 L 11.828125 0 L 11.828125 -8.90625 L 8.671875 -0.65625 L 7.5 -1.109375 L 10.953125 -9.265625 L 4.875 -2.859375 L 4 -3.734375 L 10.328125 -9.9375 L 2.203125 -6.375 L 1.75 -7.546875 L 10.015625 -10.6875 L 1.140625 -10.6875 L 1.140625 -11.765625 L 10.015625 -11.765625 L 1.75 -14.984375 L 2.203125 -16.125 L 10.328125 -12.640625 L 4 -18.78125 L 4.875 -19.65625 L 10.953125 -13.390625 L 7.5 -21.453125 L 8.671875 -21.90625 L 11.828125 -13.78125 Z M 11.828125 -22.515625 "/></g></g></g></g></g><g clip-path="url(#7697924c81)"><path fill="#afccd2" d="M 474.101562 393.675781 C 468.523438 392.746094 463.339844 390.371094 458.421875 387.113281 C 455.4375 385.132812 454.773438 381.105469 456.917969 378.261719 C 458.820312 375.738281 460.476562 373.121094 461.902344 370.429688 C 459.382812 369.730469 456.734375 367.214844 451.519531 361.964844 C 450.644531 363.894531 449.636719 365.78125 448.476562 367.617188 C 446.253906 371.136719 441.203125 371.59375 438.421875 368.484375 C 415.976562 343.355469 384.746094 324.4375 359.734375 349.519531 C 358.375 350.878906 356.664062 351.445312 355.003906 351.371094 C 354.230469 353.210938 353.933594 354.742188 354.144531 356.078125 C 354.765625 360.070312 358.238281 362.484375 363.835938 364.574219 C 368.707031 351.265625 395.519531 344.9375 409.800781 359.164062 C 409.929688 359.292969 410.066406 359.414062 410.207031 359.53125 C 416.289062 364.433594 422.558594 371.28125 428.660156 377.691406 C 431.488281 380.664062 430.703125 385.503906 427.035156 387.378906 C 426.582031 387.609375 426.125 387.832031 425.664062 388.050781 C 427.675781 389.21875 429.734375 390.464844 431.828125 391.789062 C 433.914062 393.105469 435.914062 394.425781 437.828125 395.734375 C 438.207031 395.484375 438.890625 395.078125 439.804688 394.753906 C 441.476562 394.160156 444.40625 392.828125 447.242188 394.96875 C 454.585938 400.523438 462.710938 404.824219 472.015625 406.332031 C 475.835938 406.953125 479.300781 404.027344 479.300781 400.21875 L 479.300781 399.765625 C 479.300781 396.761719 477.113281 394.179688 474.101562 393.675781 Z M 474.101562 393.675781 " fill-opacity="1" fill-rule="nonzero"/></g><path fill="#afccd2" d="M 401.972656 287.96875 C 411.425781 287.96875 420.308594 290.472656 427.992188 294.84375 C 426.679688 287.523438 423.035156 280.613281 415.6875 276.566406 C 411.261719 275.621094 406.675781 275.121094 401.972656 275.121094 C 387.03125 275.121094 373.242188 280.140625 362.195312 288.582031 C 357.933594 297.371094 356.519531 305.667969 356.617188 313.773438 C 365.839844 298.332031 382.71875 287.96875 401.972656 287.96875 Z M 401.972656 287.96875 " fill-opacity="1" fill-rule="nonzero"/><path fill="#afccd2" d="M 448.945312 367.910156 C 448.476562 367.746094 448.03125 367.53125 447.609375 367.289062 C 438.449219 382.992188 421.421875 393.566406 401.972656 393.566406 C 387.328125 393.566406 374.058594 387.570312 364.484375 377.90625 C 364.058594 381.582031 363.3125 385.351562 362.15625 389.230469 C 361.796875 390.445312 361.761719 391.660156 361.988281 392.796875 C 364.871094 395.019531 367.945312 397.003906 371.175781 398.730469 C 380.363281 403.632812 390.847656 406.417969 401.972656 406.417969 C 412.824219 406.417969 423.070312 403.765625 432.097656 399.082031 C 442.226562 393.828125 450.820312 386.011719 457.019531 376.5 C 455.714844 372.699219 452.875 369.300781 448.945312 367.910156 Z M 448.945312 367.910156 " fill-opacity="1" fill-rule="nonzero"/><path fill="#afccd2" d="M 442.71875 289.332031 C 444.359375 295.871094 444.695312 302.636719 443.976562 308.820312 C 450.742188 317.695312 454.769531 328.769531 454.769531 340.769531 C 454.769531 345.054688 454.253906 349.222656 453.285156 353.214844 C 453.292969 353.21875 453.300781 353.21875 453.308594 353.222656 C 458.042969 354.628906 461.871094 356.839844 464.863281 359.601562 C 466.652344 353.632812 467.621094 347.3125 467.621094 340.769531 C 467.621094 319.953125 457.878906 301.367188 442.71875 289.332031 Z M 442.71875 289.332031 " fill-opacity="1" fill-rule="nonzero"/><path fill="#afccd2" d="M 341.117188 316.148438 C 338.03125 323.753906 336.324219 332.066406 336.324219 340.769531 C 336.324219 354.972656 340.859375 368.136719 348.558594 378.890625 C 350.308594 360.921875 343.425781 334.824219 341.378906 320 C 341.265625 318.699219 341.179688 317.414062 341.117188 316.148438 Z M 341.117188 316.148438 " fill-opacity="1" fill-rule="nonzero"/><g clip-path="url(#1dc948a13e)"><path fill="#faead3" d="M 464.863281 359.601562 C 461.871094 356.839844 458.042969 354.628906 453.308594 353.222656 C 453.300781 353.21875 453.292969 353.21875 453.285156 353.214844 C 448.582031 351.835938 443.859375 355.34375 443.859375 360.25 L 443.859375 360.945312 C 443.859375 363.628906 445.347656 365.980469 447.609375 367.289062 C 448.03125 367.53125 448.476562 367.746094 448.945312 367.910156 C 452.875 369.300781 455.714844 372.699219 457.019531 376.5 C 457.828125 378.859375 458.042969 381.375 457.558594 383.660156 C 455.679688 392.28125 448.03125 398.546875 438.953125 398.890625 C 436.878906 398.972656 434.578125 399.035156 432.097656 399.082031 C 423.070312 403.765625 412.824219 406.417969 401.972656 406.417969 C 390.847656 406.417969 380.363281 403.632812 371.175781 398.730469 C 370.464844 398.71875 369.761719 398.707031 369.058594 398.699219 C 365.449219 398.644531 362.640625 396.042969 361.988281 392.796875 C 361.761719 391.660156 361.796875 390.445312 362.15625 389.230469 C 363.3125 385.351562 364.058594 381.582031 364.484375 377.90625 C 367.214844 354.390625 356.867188 334.734375 356.617188 313.773438 C 356.519531 305.667969 357.933594 297.371094 362.195312 288.582031 C 362.507812 287.933594 362.832031 287.289062 363.175781 286.636719 C 363.386719 286.242188 363.628906 285.859375 363.90625 285.511719 C 371.722656 275.609375 382.941406 273.167969 396.621094 272.953125 C 404.742188 272.546875 410.976562 273.96875 415.6875 276.566406 C 423.035156 280.613281 426.679688 287.523438 427.992188 294.84375 C 428.785156 299.25 428.730469 303.800781 428.125 307.964844 C 427.597656 311.601562 429.746094 315.09375 433.269531 316.136719 L 434.414062 316.472656 C 438.699219 317.742188 443.097656 314.910156 443.757812 310.488281 C 443.839844 309.9375 443.910156 309.382812 443.976562 308.820312 C 444.695312 302.636719 444.359375 295.871094 442.71875 289.332031 C 438.328125 271.832031 424.582031 255.957031 396.621094 257.269531 C 375.605469 257.269531 360.183594 263.859375 350.789062 276.851562 C 343.566406 286.835938 340.324219 300.042969 341.117188 316.148438 C 341.179688 317.414062 341.265625 318.699219 341.378906 320 C 343.425781 334.824219 350.308594 360.921875 348.558594 378.890625 C 347.617188 388.535156 344.191406 395.835938 336.199219 397.789062 C 333.035156 398.5625 330.832031 401.425781 330.746094 404.679688 L 330.699219 406.46875 C 330.589844 410.574219 333.871094 413.96875 337.976562 413.992188 C 370.320312 414.191406 408.582031 415.46875 439.546875 414.558594 C 469.917969 414.320312 483.230469 376.558594 464.863281 359.601562 Z M 464.863281 359.601562 " fill-opacity="1" fill-rule="nonzero"/></g><g clip-path="url(#c0c6dde774)"><path fill="#afccd2" d="M 474.101562 393.675781 C 468.523438 392.746094 463.339844 390.371094 458.421875 387.113281 C 457.519531 386.511719 456.828125 385.722656 456.363281 384.835938 C 452.375 387.808594 448.386719 390.777344 444.398438 393.75 C 445.410156 393.917969 446.390625 394.328125 447.242188 394.96875 C 454.585938 400.523438 462.710938 404.824219 472.015625 406.332031 C 475.835938 406.953125 479.300781 404.027344 479.300781 400.21875 L 479.300781 399.765625 C 479.300781 396.761719 477.113281 394.179688 474.101562 393.675781 Z M 474.101562 393.675781 " fill-opacity="1" fill-rule="nonzero"/></g></svg>