<svg xmlns="http://www.w3.org/2000/svg" xmlns:xlink="http://www.w3.org/1999/xlink" width="1080" zoomAndPan="magnify" viewBox="0 0 810 809.999993" height="1080" preserveAspectRatio="xMidYMid meet" version="1.0"><defs><g/><clipPath id="c709a90fea"><path d="M 78.328125 431 L 142 431 L 142 501.039062 L 78.328125 501.039062 Z M 78.328125 431 " clip-rule="nonzero"/></clipPath><clipPath id="9230b25395"><path d="M 335 429.039062 L 412 429.039062 L 412 501 L 335 501 Z M 335 429.039062 " clip-rule="nonzero"/></clipPath><clipPath id="6801fddf9d"><path d="M 681 447 L 731.578125 447 L 731.578125 498 L 681 498 Z M 681 447 " clip-rule="nonzero"/></clipPath><clipPath id="e18dffc442"><rect x="0" width="280" y="0" height="28"/></clipPath><clipPath id="3ddafd3ffc"><rect x="0" width="358" y="0" height="40"/></clipPath><clipPath id="e1a6ea4252"><path d="M 354 337 L 479.195312 337 L 479.195312 407 L 354 407 Z M 354 337 " clip-rule="nonzero"/></clipPath><clipPath id="72dde75a66"><path d="M 330.695312 257.125 L 474 257.125 L 474 414.625 L 330.695312 414.625 Z M 330.695312 257.125 " clip-rule="nonzero"/></clipPath><clipPath id="114c7d43df"><path d="M 444 384 L 479.195312 384 L 479.195312 407 L 444 407 Z M 444 384 " clip-rule="nonzero"/></clipPath></defs><path fill="#000000" d="M 520.679688 489.78125 C 519.820312 486.527344 520.324219 475.394531 520.203125 472.023438 C 519.285156 456.554688 505.816406 448.097656 494.367188 458.058594 C 489.820312 462.226562 489.214844 467.621094 489.109375 469.070312 C 489.105469 469.144531 489.101562 469.21875 489.101562 469.292969 C 489.085938 477.917969 489.066406 486.542969 489.050781 495.167969 C 489.046875 497.011719 487.550781 498.503906 485.703125 498.503906 L 485.699219 498.503906 C 483.808594 498.503906 482.300781 496.945312 482.351562 495.054688 C 482.726562 481.183594 478.378906 463.097656 489.210938 452.808594 C 496.324219 446.035156 513.101562 443.277344 521.378906 455.351562 C 530.164062 468.335938 526.261719 474.003906 527.140625 485.609375 C 527.457031 489.765625 527.585938 491.230469 529.769531 491.5625 C 531.429688 491.816406 532.679688 493.203125 532.679688 494.878906 L 532.679688 495.128906 C 532.679688 497.175781 530.855469 498.769531 528.832031 498.441406 C 524.097656 497.671875 521.574219 494.242188 520.679688 489.78125 Z M 520.679688 489.78125 " fill-opacity="1" fill-rule="nonzero"/><path fill="#000000" d="M 456.554688 448.09375 C 457.082031 447.5625 458.542969 447.191406 460.101562 446.992188 C 462.101562 446.734375 463.878906 448.292969 463.878906 450.3125 L 463.878906 450.480469 C 463.878906 452.1875 462.59375 453.617188 460.898438 453.804688 C 460.085938 453.894531 459.398438 454.167969 459.1875 454.894531 C 457.542969 459.609375 458.628906 467.082031 458.339844 472.367188 C 458.335938 472.433594 458.335938 472.5 458.335938 472.5625 C 458.761719 493.320312 437.609375 506.832031 420.527344 492.660156 C 420.449219 492.59375 420.371094 492.523438 420.292969 492.449219 C 409.578125 482.078125 413.933594 464.140625 413.554688 450.3125 C 413.5 448.425781 415.007812 446.863281 416.898438 446.863281 C 418.746094 446.863281 420.246094 448.355469 420.25 450.203125 C 420.265625 458.824219 420.28125 467.449219 420.300781 476.074219 C 420.300781 476.148438 420.300781 476.222656 420.308594 476.300781 C 420.414062 477.746094 421.015625 483.144531 425.5625 487.308594 C 437.027344 497.273438 450.480469 488.808594 451.402344 473.34375 C 452.164062 465.539062 448.652344 453.851562 456.554688 448.09375 Z M 456.554688 448.09375 " fill-opacity="1" fill-rule="nonzero"/><g clip-path="url(#c709a90fea)"><path fill="#000000" d="M 128.449219 476.90625 C 128.449219 474.738281 130.546875 473.183594 132.628906 473.804688 C 147.574219 478.242188 142.160156 500.773438 126.542969 500.894531 C 112.855469 501.296875 95.9375 500.730469 81.640625 500.644531 C 79.824219 500.632812 78.375 499.132812 78.421875 497.320312 L 78.441406 496.53125 C 78.480469 495.09375 79.457031 493.828125 80.851562 493.488281 C 90.972656 491.019531 84.535156 469.191406 83.144531 459.132812 C 82.460938 451.242188 83.859375 444.832031 87.304688 440.074219 C 91.457031 434.335938 98.277344 431.425781 107.566406 431.425781 C 124.96875 430.609375 129.917969 444.832031 128.40625 454.929688 C 128.113281 456.882812 126.171875 458.132812 124.273438 457.574219 L 123.769531 457.425781 C 122.210938 456.964844 121.261719 455.421875 121.496094 453.816406 C 122.488281 446.964844 120.121094 437.722656 107.566406 438.351562 C 101.519531 438.445312 96.558594 439.523438 93.101562 443.898438 C 92.980469 444.054688 92.871094 444.222656 92.78125 444.394531 C 84.359375 460.3125 97.460938 472.464844 92.328125 489.707031 C 91.714844 491.773438 93.226562 493.855469 95.382812 493.890625 C 106.285156 494.050781 119.203125 494.253906 126.28125 493.972656 C 130.296875 493.820312 133.675781 491.054688 134.507812 487.246094 C 135.070312 484.613281 133.515625 481.285156 130.699219 480.292969 C 129.375 479.824219 128.449219 478.621094 128.449219 477.214844 C 128.449219 477.113281 128.449219 477.011719 128.449219 476.90625 Z M 128.449219 476.90625 " fill-opacity="1" fill-rule="nonzero"/></g><path fill="#000000" d="M 187.382812 448.09375 C 187.90625 447.5625 189.367188 447.191406 190.925781 446.992188 C 192.929688 446.734375 194.703125 448.292969 194.703125 450.3125 L 194.703125 450.480469 C 194.703125 452.1875 193.417969 453.617188 191.722656 453.804688 C 190.910156 453.894531 190.222656 454.167969 190.011719 454.894531 C 188.371094 459.609375 189.457031 467.082031 189.164062 472.367188 C 189.160156 472.433594 189.160156 472.496094 189.160156 472.5625 C 189.585938 493.316406 168.4375 506.832031 151.355469 492.660156 C 151.273438 492.59375 151.195312 492.523438 151.117188 492.449219 C 140.40625 482.078125 144.757812 464.140625 144.378906 450.3125 C 144.328125 448.425781 145.832031 446.863281 147.722656 446.863281 C 149.570312 446.863281 151.070312 448.355469 151.074219 450.203125 C 151.089844 458.824219 151.109375 467.449219 151.125 476.074219 C 151.125 476.148438 151.128906 476.222656 151.132812 476.300781 C 151.238281 477.746094 151.84375 483.144531 156.386719 487.308594 C 167.851562 497.273438 181.304688 488.808594 182.226562 473.34375 C 182.988281 465.539062 179.476562 453.851562 187.382812 448.09375 Z M 187.382812 448.09375 " fill-opacity="1" fill-rule="nonzero"/><path fill="#000000" d="M 231.300781 490.742188 L 255.746094 490.742188 C 257.535156 490.742188 258.988281 492.191406 258.988281 493.980469 L 258.988281 494.429688 C 258.988281 496.21875 257.535156 497.667969 255.746094 497.667969 L 216.226562 497.667969 C 213.457031 497.667969 211.960938 494.421875 213.765625 492.320312 L 242 459.40625 C 243.800781 457.304688 242.304688 454.058594 239.535156 454.058594 L 214.214844 454.058594 C 212.425781 454.058594 210.972656 452.609375 210.972656 450.820312 L 210.972656 450.371094 C 210.972656 448.582031 212.425781 447.132812 214.214844 447.132812 L 254.609375 447.132812 C 257.378906 447.132812 258.875 450.378906 257.070312 452.480469 L 228.835938 485.394531 C 227.035156 487.496094 228.527344 490.742188 231.300781 490.742188 Z M 231.300781 490.742188 " fill-opacity="1" fill-rule="nonzero"/><path fill="#000000" d="M 307.671875 491.050781 C 307.859375 491.382812 308.511719 491.511719 309.277344 491.550781 C 310.992188 491.640625 312.351562 493.023438 312.351562 494.738281 L 312.351562 495.265625 C 312.351562 497.164062 310.71875 498.675781 308.828125 498.496094 C 305.367188 498.164062 302.757812 496.671875 301.207031 493.871094 C 300.21875 492.089844 297.832031 491.71875 296.246094 493 C 288.398438 499.34375 276.175781 500.972656 268.191406 494.835938 C 264.816406 492.179688 262.957031 488.371094 262.957031 484.121094 C 263.609375 466.945312 279.167969 466.1875 295.617188 466.027344 C 297.847656 466.007812 299.398438 463.792969 298.640625 461.695312 C 296.800781 456.597656 292.214844 452.820312 285.519531 453.117188 C 285.433594 453.121094 285.347656 453.121094 285.261719 453.117188 C 276.5 452.664062 270.828125 458.1875 269.636719 463.953125 C 269.335938 465.421875 268.015625 466.457031 266.515625 466.476562 L 266.15625 466.484375 C 264.074219 466.511719 262.503906 464.605469 262.9375 462.570312 C 263.550781 459.691406 264.96875 455.738281 268.25 452.410156 C 275.332031 444.539062 293.960938 443.730469 301.070312 452.371094 C 311.34375 463.957031 303.46875 481.070312 307.671875 491.050781 Z M 298.507812 477.0625 C 299.097656 474.984375 297.539062 472.910156 295.375 472.921875 C 285.523438 472.980469 275.984375 473.566406 272.210938 477.480469 C 266.808594 483.675781 271.054688 491.921875 279.746094 491.75 C 288.921875 491.984375 296.027344 485.769531 298.507812 477.0625 Z M 298.507812 477.0625 " fill-opacity="1" fill-rule="nonzero"/><g clip-path="url(#9230b25395)"><path fill="#000000" d="M 400.085938 489.597656 C 402.703125 491.359375 405.464844 492.644531 408.4375 493.148438 C 410.039062 493.417969 411.207031 494.816406 411.207031 496.441406 L 411.207031 496.6875 C 411.207031 498.746094 409.359375 500.328125 407.328125 499.992188 C 402.371094 499.175781 398.042969 496.851562 394.132812 493.847656 C 392.972656 492.957031 391.367188 492.890625 390.171875 493.730469 C 378.855469 501.675781 361.492188 501.832031 350.292969 493.675781 L 350.21875 493.773438 C 322.027344 475.074219 335.734375 428.503906 370.222656 429.054688 C 398.570312 428.121094 415.441406 463.042969 399.285156 484.8125 C 398.144531 486.351562 398.496094 488.527344 400.085938 489.597656 Z M 370.222656 435.980469 C 353.296875 435.648438 340.25 451.296875 341.804688 467.230469 C 342.082031 470.066406 345.535156 471.300781 347.53125 469.269531 C 360.851562 455.703125 377.480469 465.933594 389.4375 479.523438 C 390.917969 481.207031 393.605469 480.957031 394.789062 479.054688 C 405.714844 461.46875 392.238281 435.257812 370.222656 435.980469 Z M 353.351562 487.355469 C 361.476562 493.742188 374.121094 494.542969 383.371094 489.742188 C 385.324219 488.726562 385.742188 486.109375 384.238281 484.503906 C 380.988281 481.035156 377.648438 477.332031 374.410156 474.679688 C 374.335938 474.617188 374.261719 474.554688 374.191406 474.484375 C 363.558594 463.722656 339.855469 474.707031 353.351562 487.355469 Z M 353.351562 487.355469 " fill-opacity="1" fill-rule="nonzero"/></g><path fill="#000000" d="M 571.667969 478.425781 L 574.710938 478.390625 C 576.875 478.367188 578.492188 480.371094 578.019531 482.480469 C 572.292969 507.871094 530.328125 502.890625 534.550781 473.25 L 534.671875 473.25 C 536.078125 451.53125 556.226562 439.589844 572.695312 449.929688 C 572.820312 450.007812 572.941406 450.09375 573.058594 450.183594 C 576.320312 452.835938 578.117188 456.585938 578.117188 460.765625 C 577.617188 477.890625 561.613281 478.730469 545.46875 478.863281 C 543.171875 478.882812 541.574219 481.152344 542.335938 483.320312 C 547.109375 496.949219 572.222656 493.246094 571.667969 478.425781 Z M 545.847656 471.953125 C 555.855469 471.882812 564.730469 471.332031 568.726562 467.539062 C 568.820312 467.449219 568.910156 467.355469 568.992188 467.253906 C 574.199219 461.074219 569.949219 452.964844 561.328125 453.132812 C 552.203125 452.902344 545.125 459.046875 542.609375 467.679688 C 541.984375 469.824219 543.613281 471.96875 545.847656 471.953125 Z M 545.847656 471.953125 " fill-opacity="1" fill-rule="nonzero"/><path fill="#000000" d="M 592.867188 491.074219 C 593.027344 491.347656 593.503906 491.476562 594.09375 491.53125 C 595.832031 491.6875 597.183594 493.105469 597.183594 494.851562 L 597.183594 495.15625 C 597.183594 497.164062 595.425781 498.714844 593.429688 498.480469 C 582.546875 497.199219 584.914062 483.46875 584.707031 475.449219 L 584.632812 475.449219 L 584.632812 434.542969 C 584.632812 432.695312 586.132812 431.199219 587.984375 431.199219 L 588.21875 431.199219 C 590.066406 431.199219 591.566406 432.695312 591.566406 434.542969 L 591.566406 469.96875 L 591.640625 469.96875 C 592.121094 473.9375 590.417969 487.804688 592.867188 491.074219 Z M 592.867188 491.074219 " fill-opacity="1" fill-rule="nonzero"/><path fill="#000000" d="M 645.277344 491.050781 C 645.460938 491.375 646.089844 491.503906 646.835938 491.546875 C 648.59375 491.648438 649.953125 493.125 649.953125 494.886719 L 649.953125 495.148438 C 649.953125 497.109375 648.269531 498.683594 646.320312 498.484375 C 642.933594 498.132812 640.375 496.65625 638.835938 493.917969 C 637.824219 492.117188 635.417969 491.738281 633.808594 493.035156 C 625.960938 499.347656 613.765625 500.964844 605.796875 494.835938 C 602.421875 492.179688 600.5625 488.371094 600.5625 484.121094 C 601.210938 466.945312 616.769531 466.1875 633.21875 466.027344 C 635.515625 466.007812 637.105469 463.734375 636.347656 461.570312 C 631.886719 448.8125 609.585938 451.226562 607.207031 463.746094 C 606.910156 465.3125 605.5625 466.457031 603.964844 466.480469 L 603.65625 466.484375 C 601.535156 466.515625 599.929688 464.597656 600.3125 462.515625 C 603.054688 447.578125 626.199219 439.652344 638.675781 452.371094 C 648.945312 463.957031 641.074219 481.070312 645.273438 491.050781 Z M 636.070312 477.199219 C 636.695312 475.054688 635.070312 472.910156 632.835938 472.921875 C 623.035156 472.984375 613.570312 473.585938 609.816406 477.480469 C 604.414062 483.675781 608.660156 491.921875 617.351562 491.75 C 626.476562 491.980469 633.558594 485.835938 636.070312 477.199219 Z M 636.070312 477.199219 " fill-opacity="1" fill-rule="nonzero"/><g clip-path="url(#6801fddf9d)"><path fill="#000000" d="M 731.488281 472.441406 C 731.488281 486.234375 720.253906 497.457031 706.449219 497.457031 C 692.640625 497.457031 681.410156 486.234375 681.410156 472.441406 C 681.410156 458.648438 692.640625 447.429688 706.449219 447.429688 C 720.253906 447.429688 731.488281 458.648438 731.488281 472.441406 Z M 724.554688 472.441406 C 724.554688 462.46875 716.429688 454.355469 706.449219 454.355469 C 696.464844 454.355469 688.34375 462.46875 688.34375 472.441406 C 688.34375 482.414062 696.464844 490.53125 706.449219 490.53125 C 716.433594 490.53125 724.554688 482.414062 724.554688 472.441406 Z M 724.554688 472.441406 " fill-opacity="1" fill-rule="nonzero"/></g><path fill="#000000" d="M 471.597656 446.863281 L 471.59375 446.863281 C 471.59375 446.871094 471.59375 446.878906 471.59375 446.886719 L 471.449219 446.886719 C 469.601562 446.886719 468.101562 448.382812 468.101562 450.230469 L 468.101562 495.207031 C 468.101562 497.054688 469.601562 498.554688 471.449219 498.554688 L 471.683594 498.554688 C 473.535156 498.554688 475.035156 497.054688 475.035156 495.207031 L 475.035156 450.230469 C 475.035156 448.382812 473.535156 446.886719 471.683594 446.886719 L 471.597656 446.886719 C 471.597656 446.878906 471.597656 446.871094 471.597656 446.863281 Z M 471.597656 446.863281 " fill-opacity="1" fill-rule="nonzero"/><path fill="#000000" d="M 202.289062 446.863281 L 202.28125 446.863281 C 202.28125 446.871094 202.28125 446.878906 202.285156 446.886719 L 202.03125 446.886719 C 200.242188 446.886719 198.789062 448.335938 198.789062 450.125 L 198.789062 495.3125 C 198.789062 497.101562 200.242188 498.554688 202.03125 498.554688 L 202.480469 498.554688 C 204.273438 498.554688 205.722656 497.101562 205.722656 495.3125 L 205.722656 450.125 C 205.722656 448.335938 204.273438 446.886719 202.480469 446.886719 L 202.289062 446.886719 C 202.289062 446.878906 202.289062 446.871094 202.289062 446.863281 Z M 202.289062 446.863281 " fill-opacity="1" fill-rule="nonzero"/><path fill="#000000" d="M 659.070312 431.199219 L 659.121094 431.199219 L 659.121094 444.847656 L 659.070312 444.847656 Z M 659.070312 431.199219 " fill-opacity="1" fill-rule="nonzero"/><path fill="#000000" d="M 679.179688 478.589844 L 679.179688 473.554688 C 679.179688 471.707031 677.679688 470.207031 675.828125 470.207031 L 675.644531 470.207031 C 673.792969 470.207031 672.296875 471.707031 672.296875 473.554688 L 672.296875 484.882812 C 672.273438 485.464844 672.101562 488.507812 669.648438 490.53125 C 667.902344 492.46875 663.539062 492.507812 661.769531 490.527344 C 659.691406 488.804688 659.296875 486.378906 659.210938 485.546875 C 659.199219 485.441406 659.195312 485.339844 659.195312 485.238281 C 659.125 475.585938 659.101562 465.828125 659.125 456.109375 C 659.132812 454.261719 660.632812 452.769531 662.480469 452.773438 C 666.929688 452.78125 671.378906 452.785156 675.824219 452.792969 C 677.675781 452.796875 679.179688 451.296875 679.179688 449.445312 L 679.179688 448.191406 C 679.179688 446.34375 677.679688 444.847656 675.828125 444.847656 L 662.417969 444.847656 C 660.566406 444.847656 659.070312 443.347656 659.070312 441.5 L 659.070312 434.542969 C 659.070312 432.695312 657.570312 431.199219 655.71875 431.199219 L 655.542969 431.199219 C 653.691406 431.199219 652.191406 432.699219 652.191406 434.546875 C 652.214844 451.519531 652.238281 468.496094 652.261719 485.46875 C 651.894531 492.410156 658.335938 498.996094 666.042969 498.445312 C 666.210938 498.433594 666.378906 498.433594 666.542969 498.445312 C 673.207031 498.964844 678.945312 492.917969 679.179688 487.128906 C 679.367188 484.265625 678.996094 482.132812 679.179688 478.589844 Z M 679.179688 478.589844 " fill-opacity="1" fill-rule="nonzero"/><path fill="#000000" d="M 202.03125 437.054688 L 202.480469 437.054688 C 202.910156 437.054688 203.324219 437.136719 203.722656 437.300781 C 204.121094 437.464844 204.46875 437.699219 204.773438 438.003906 C 205.078125 438.308594 205.3125 438.65625 205.476562 439.054688 C 205.640625 439.449219 205.722656 439.863281 205.722656 440.292969 L 205.722656 440.742188 C 205.722656 441.171875 205.640625 441.585938 205.476562 441.980469 C 205.3125 442.378906 205.078125 442.730469 204.773438 443.03125 C 204.46875 443.335938 204.121094 443.570312 203.722656 443.734375 C 203.324219 443.898438 202.910156 443.980469 202.480469 443.980469 L 202.03125 443.980469 C 201.601562 443.980469 201.1875 443.898438 200.792969 443.734375 C 200.394531 443.570312 200.042969 443.335938 199.738281 443.03125 C 199.4375 442.730469 199.203125 442.378906 199.039062 441.980469 C 198.871094 441.585938 198.789062 441.171875 198.789062 440.742188 L 198.789062 440.292969 C 198.789062 439.863281 198.871094 439.449219 199.039062 439.054688 C 199.203125 438.65625 199.4375 438.308594 199.738281 438.003906 C 200.042969 437.699219 200.394531 437.464844 200.792969 437.300781 C 201.1875 437.136719 201.601562 437.054688 202.03125 437.054688 Z M 202.03125 437.054688 " fill-opacity="1" fill-rule="nonzero"/><path fill="#000000" d="M 471.449219 437.054688 L 471.683594 437.054688 C 472.128906 437.054688 472.554688 437.140625 472.964844 437.308594 C 473.375 437.480469 473.738281 437.722656 474.054688 438.035156 C 474.367188 438.347656 474.609375 438.710938 474.777344 439.121094 C 474.949219 439.53125 475.035156 439.957031 475.035156 440.398438 L 475.035156 440.636719 C 475.035156 441.078125 474.949219 441.503906 474.777344 441.914062 C 474.609375 442.324219 474.367188 442.6875 474.054688 443 C 473.738281 443.316406 473.375 443.554688 472.964844 443.726562 C 472.554688 443.894531 472.128906 443.980469 471.683594 443.980469 L 471.449219 443.980469 C 471.003906 443.980469 470.578125 443.894531 470.167969 443.726562 C 469.757812 443.554688 469.394531 443.316406 469.082031 443 C 468.765625 442.6875 468.527344 442.324219 468.355469 441.914062 C 468.183594 441.503906 468.101562 441.078125 468.101562 440.636719 L 468.101562 440.398438 C 468.101562 439.957031 468.183594 439.53125 468.355469 439.121094 C 468.527344 438.710938 468.765625 438.347656 469.082031 438.035156 C 469.394531 437.722656 469.757812 437.480469 470.167969 437.308594 C 470.578125 437.140625 471.003906 437.054688 471.449219 437.054688 Z M 471.449219 437.054688 " fill-opacity="1" fill-rule="nonzero"/><g transform="matrix(1, 0, 0, 1, 267, 519)"><g clip-path="url(#e18dffc442)"><g fill="#000000" fill-opacity="1"><g transform="translate(1.891298, 21.416948)"><g><path d="M 7.015625 -4.515625 L 7.015625 -7.453125 L 9.796875 -7.453125 L 9.796875 -4.234375 C 9.796875 -3.429688 9.632812 -2.6875 9.3125 -2 C 8.988281 -1.3125 8.492188 -0.753906 7.828125 -0.328125 C 7.160156 0.0859375 6.289062 0.296875 5.21875 0.296875 C 4.113281 0.296875 3.222656 0.0859375 2.546875 -0.328125 C 1.878906 -0.753906 1.382812 -1.3125 1.0625 -2 C 0.75 -2.6875 0.59375 -3.4375 0.59375 -4.25 L 0.59375 -14.375 L 3.546875 -14.375 L 3.546875 -11.3125 L 9.796875 -11.3125 L 9.796875 -9.203125 L 3.546875 -9.203125 L 3.546875 -4.546875 C 3.546875 -3.847656 3.675781 -3.296875 3.9375 -2.890625 C 4.207031 -2.492188 4.648438 -2.296875 5.265625 -2.296875 C 5.859375 -2.296875 6.296875 -2.488281 6.578125 -2.875 C 6.867188 -3.257812 7.015625 -3.804688 7.015625 -4.515625 Z M 7.015625 -4.515625 "/></g></g></g><g fill="#000000" fill-opacity="1"><g transform="translate(17.087641, 21.416948)"><g><path d="M 3.421875 -6.765625 L 8.046875 -6.765625 C 8.035156 -7.609375 7.789062 -8.234375 7.3125 -8.640625 C 6.832031 -9.046875 6.304688 -9.25 5.734375 -9.25 C 5.128906 -9.25 4.609375 -9.03125 4.171875 -8.59375 C 3.734375 -8.15625 3.484375 -7.546875 3.421875 -6.765625 Z M 11.125 -4.875 L 3.328125 -4.875 C 3.378906 -4.03125 3.628906 -3.347656 4.078125 -2.828125 C 4.535156 -2.316406 5.128906 -2.0625 5.859375 -2.0625 C 6.347656 -2.0625 6.78125 -2.175781 7.15625 -2.40625 C 7.539062 -2.644531 7.785156 -2.953125 7.890625 -3.328125 L 10.96875 -3.328125 C 10.632812 -2.171875 10.023438 -1.273438 9.140625 -0.640625 C 8.253906 -0.015625 7.207031 0.296875 6 0.296875 C 2.226562 0.296875 0.34375 -1.753906 0.34375 -5.859375 C 0.34375 -7.609375 0.820312 -9.003906 1.78125 -10.046875 C 2.738281 -11.085938 4.082031 -11.609375 5.8125 -11.609375 C 7.550781 -11.609375 8.867188 -11.046875 9.765625 -9.921875 C 10.671875 -8.796875 11.125 -7.113281 11.125 -4.875 Z M 11.125 -4.875 "/></g></g></g><g fill="#000000" fill-opacity="1"><g transform="translate(33.432925, 21.416948)"><g><path d="M 3.59375 0 L 0.59375 0 L 0.59375 -11.3125 L 3.40625 -11.3125 L 3.40625 -9.953125 C 3.738281 -10.460938 4.082031 -10.835938 4.4375 -11.078125 C 4.800781 -11.316406 5.175781 -11.460938 5.5625 -11.515625 C 5.957031 -11.578125 6.359375 -11.609375 6.765625 -11.609375 L 7.15625 -11.609375 L 7.15625 -8.5625 C 6.875 -8.601562 6.597656 -8.625 6.328125 -8.625 C 4.503906 -8.625 3.59375 -7.710938 3.59375 -5.890625 Z M 3.59375 0 "/></g></g></g><g fill="#000000" fill-opacity="1"><g transform="translate(45.044005, 21.416948)"><g><path d="M 7.453125 -4.296875 L 7.46875 -5.546875 C 7.226562 -5.296875 6.585938 -5.070312 5.546875 -4.875 C 4.703125 -4.71875 4.113281 -4.503906 3.78125 -4.234375 C 3.445312 -3.972656 3.28125 -3.597656 3.28125 -3.109375 C 3.28125 -2.265625 3.765625 -1.84375 4.734375 -1.84375 C 5.503906 -1.84375 6.144531 -2.085938 6.65625 -2.578125 C 7.164062 -3.066406 7.429688 -3.640625 7.453125 -4.296875 Z M 10.46875 0 L 7.6875 0 C 7.59375 -0.289062 7.53125 -0.628906 7.5 -1.015625 C 7.144531 -0.628906 6.675781 -0.3125 6.09375 -0.0625 C 5.507812 0.175781 4.835938 0.296875 4.078125 0.296875 C 2.785156 0.296875 1.832031 0.0078125 1.21875 -0.5625 C 0.601562 -1.132812 0.296875 -1.882812 0.296875 -2.8125 C 0.296875 -3.625 0.421875 -4.273438 0.671875 -4.765625 C 0.929688 -5.253906 1.296875 -5.628906 1.765625 -5.890625 C 2.234375 -6.160156 2.785156 -6.359375 3.421875 -6.484375 C 4.054688 -6.617188 4.75 -6.742188 5.5 -6.859375 C 6.25 -6.960938 6.753906 -7.101562 7.015625 -7.28125 C 7.273438 -7.46875 7.40625 -7.753906 7.40625 -8.140625 C 7.40625 -8.503906 7.234375 -8.789062 6.890625 -9 C 6.546875 -9.207031 6.082031 -9.3125 5.5 -9.3125 C 4.820312 -9.3125 4.328125 -9.15625 4.015625 -8.84375 C 3.710938 -8.539062 3.523438 -8.140625 3.453125 -7.640625 L 0.671875 -7.640625 C 0.679688 -8.421875 0.847656 -9.109375 1.171875 -9.703125 C 1.492188 -10.304688 2.015625 -10.773438 2.734375 -11.109375 C 3.453125 -11.441406 4.421875 -11.609375 5.640625 -11.609375 C 7.429688 -11.609375 8.679688 -11.222656 9.390625 -10.453125 C 10.109375 -9.679688 10.46875 -8.582031 10.46875 -7.15625 Z M 10.46875 0 "/></g></g></g><g fill="#000000" fill-opacity="1"><g transform="translate(60.99865, 21.416948)"><g><path d="M 5.9375 -2.25 C 7.65625 -2.25 8.515625 -3.414062 8.515625 -5.75 C 8.515625 -6.757812 8.273438 -7.582031 7.796875 -8.21875 C 7.316406 -8.851562 6.703125 -9.171875 5.953125 -9.171875 C 5.253906 -9.171875 4.65625 -8.867188 4.15625 -8.265625 C 3.664062 -7.660156 3.421875 -6.882812 3.421875 -5.9375 C 3.421875 -3.476562 4.257812 -2.25 5.9375 -2.25 Z M 3.546875 5.359375 L 0.59375 5.359375 L 0.59375 -11.3125 L 3.46875 -11.3125 L 3.5 -9.9375 C 4.1875 -11.050781 5.234375 -11.609375 6.640625 -11.609375 C 7.597656 -11.609375 8.441406 -11.367188 9.171875 -10.890625 C 9.910156 -10.410156 10.488281 -9.71875 10.90625 -8.8125 C 11.332031 -7.90625 11.546875 -6.816406 11.546875 -5.546875 C 11.546875 -4.410156 11.359375 -3.398438 10.984375 -2.515625 C 10.617188 -1.640625 10.09375 -0.953125 9.40625 -0.453125 C 8.71875 0.046875 7.882812 0.296875 6.90625 0.296875 C 5.507812 0.296875 4.390625 -0.289062 3.546875 -1.46875 Z M 3.546875 5.359375 "/></g></g></g><g fill="#000000" fill-opacity="1"><g transform="translate(77.803501, 21.416948)"><g><path d="M 3.65625 0 L 0.671875 0 L 0.671875 -11.3125 L 3.65625 -11.3125 Z M 3.65625 -12.671875 L 0.671875 -12.671875 L 0.671875 -15.453125 L 3.65625 -15.453125 Z M 3.65625 -12.671875 "/></g></g></g><g fill="#000000" fill-opacity="1"><g transform="translate(87.002331, 21.416948)"><g><path d="M 7.453125 -4.296875 L 7.46875 -5.546875 C 7.226562 -5.296875 6.585938 -5.070312 5.546875 -4.875 C 4.703125 -4.71875 4.113281 -4.503906 3.78125 -4.234375 C 3.445312 -3.972656 3.28125 -3.597656 3.28125 -3.109375 C 3.28125 -2.265625 3.765625 -1.84375 4.734375 -1.84375 C 5.503906 -1.84375 6.144531 -2.085938 6.65625 -2.578125 C 7.164062 -3.066406 7.429688 -3.640625 7.453125 -4.296875 Z M 10.46875 0 L 7.6875 0 C 7.59375 -0.289062 7.53125 -0.628906 7.5 -1.015625 C 7.144531 -0.628906 6.675781 -0.3125 6.09375 -0.0625 C 5.507812 0.175781 4.835938 0.296875 4.078125 0.296875 C 2.785156 0.296875 1.832031 0.0078125 1.21875 -0.5625 C 0.601562 -1.132812 0.296875 -1.882812 0.296875 -2.8125 C 0.296875 -3.625 0.421875 -4.273438 0.671875 -4.765625 C 0.929688 -5.253906 1.296875 -5.628906 1.765625 -5.890625 C 2.234375 -6.160156 2.785156 -6.359375 3.421875 -6.484375 C 4.054688 -6.617188 4.75 -6.742188 5.5 -6.859375 C 6.25 -6.960938 6.753906 -7.101562 7.015625 -7.28125 C 7.273438 -7.46875 7.40625 -7.753906 7.40625 -8.140625 C 7.40625 -8.503906 7.234375 -8.789062 6.890625 -9 C 6.546875 -9.207031 6.082031 -9.3125 5.5 -9.3125 C 4.820312 -9.3125 4.328125 -9.15625 4.015625 -8.84375 C 3.710938 -8.539062 3.523438 -8.140625 3.453125 -7.640625 L 0.671875 -7.640625 C 0.679688 -8.421875 0.847656 -9.109375 1.171875 -9.703125 C 1.492188 -10.304688 2.015625 -10.773438 2.734375 -11.109375 C 3.453125 -11.441406 4.421875 -11.609375 5.640625 -11.609375 C 7.429688 -11.609375 8.679688 -11.222656 9.390625 -10.453125 C 10.109375 -9.679688 10.46875 -8.582031 10.46875 -7.15625 Z M 10.46875 0 "/></g></g></g><g fill="#000000" fill-opacity="1"><g transform="translate(102.956975, 21.416948)"><g/></g></g><g fill="#000000" fill-opacity="1"><g transform="translate(113.28177, 21.416948)"><g><path d="M 6.15625 -2.203125 C 7.988281 -2.203125 8.90625 -3.351562 8.90625 -5.65625 C 8.90625 -7.9375 7.988281 -9.078125 6.15625 -9.078125 C 4.332031 -9.078125 3.421875 -7.9375 3.421875 -5.65625 C 3.421875 -3.351562 4.332031 -2.203125 6.15625 -2.203125 Z M 6.15625 0.296875 C 4.945312 0.296875 3.90625 0.046875 3.03125 -0.453125 C 2.15625 -0.960938 1.488281 -1.664062 1.03125 -2.5625 C 0.570312 -3.457031 0.34375 -4.488281 0.34375 -5.65625 C 0.34375 -6.851562 0.578125 -7.898438 1.046875 -8.796875 C 1.523438 -9.691406 2.195312 -10.382812 3.0625 -10.875 C 3.9375 -11.363281 4.96875 -11.609375 6.15625 -11.609375 C 7.34375 -11.609375 8.363281 -11.363281 9.21875 -10.875 C 10.082031 -10.382812 10.742188 -9.691406 11.203125 -8.796875 C 11.671875 -7.910156 11.90625 -6.863281 11.90625 -5.65625 C 11.90625 -4.457031 11.671875 -3.414062 11.203125 -2.53125 C 10.742188 -1.644531 10.082031 -0.953125 9.21875 -0.453125 C 8.363281 0.046875 7.34375 0.296875 6.15625 0.296875 Z M 6.15625 0.296875 "/></g></g></g><g fill="#000000" fill-opacity="1"><g transform="translate(130.454284, 21.416948)"><g><path d="M 7.78125 -4.09375 L 10.78125 -4.09375 C 10.675781 -3.21875 10.382812 -2.453125 9.90625 -1.796875 C 9.4375 -1.140625 8.828125 -0.625 8.078125 -0.25 C 7.335938 0.113281 6.507812 0.296875 5.59375 0.296875 C 4.050781 0.296875 2.796875 -0.210938 1.828125 -1.234375 C 0.867188 -2.253906 0.390625 -3.773438 0.390625 -5.796875 C 0.390625 -7.816406 0.875 -9.289062 1.84375 -10.21875 C 2.820312 -11.144531 4.101562 -11.609375 5.6875 -11.609375 C 7.15625 -11.609375 8.351562 -11.21875 9.28125 -10.4375 C 10.207031 -9.65625 10.71875 -8.597656 10.8125 -7.265625 L 7.796875 -7.265625 C 7.722656 -7.847656 7.488281 -8.300781 7.09375 -8.625 C 6.707031 -8.957031 6.226562 -9.125 5.65625 -9.125 C 5.03125 -9.125 4.488281 -8.882812 4.03125 -8.40625 C 3.582031 -7.9375 3.359375 -7.085938 3.359375 -5.859375 C 3.359375 -4.640625 3.578125 -3.722656 4.015625 -3.109375 C 4.460938 -2.503906 4.976562 -2.203125 5.5625 -2.203125 C 6.144531 -2.203125 6.644531 -2.363281 7.0625 -2.6875 C 7.476562 -3.007812 7.71875 -3.476562 7.78125 -4.09375 Z M 7.78125 -4.09375 "/></g></g></g><g fill="#000000" fill-opacity="1"><g transform="translate(146.294025, 21.416948)"><g><path d="M 10.78125 0 L 7.953125 0 L 7.953125 -1.59375 C 7.191406 -0.332031 6.019531 0.296875 4.4375 0.296875 C 3.6875 0.296875 3.023438 0.117188 2.453125 -0.234375 C 1.878906 -0.585938 1.425781 -1.070312 1.09375 -1.6875 C 0.757812 -2.3125 0.59375 -3.035156 0.59375 -3.859375 L 0.59375 -11.3125 L 3.59375 -11.3125 L 3.59375 -4.328125 C 3.59375 -2.910156 4.226562 -2.203125 5.5 -2.203125 C 6.257812 -2.203125 6.832031 -2.441406 7.21875 -2.921875 C 7.613281 -3.410156 7.8125 -4.03125 7.8125 -4.78125 L 7.8125 -11.3125 L 10.78125 -11.3125 Z M 10.78125 0 "/></g></g></g><g fill="#000000" fill-opacity="1"><g transform="translate(162.570381, 21.416948)"><g><path d="M 5.9375 -2.25 C 7.65625 -2.25 8.515625 -3.414062 8.515625 -5.75 C 8.515625 -6.757812 8.273438 -7.582031 7.796875 -8.21875 C 7.316406 -8.851562 6.703125 -9.171875 5.953125 -9.171875 C 5.253906 -9.171875 4.65625 -8.867188 4.15625 -8.265625 C 3.664062 -7.660156 3.421875 -6.882812 3.421875 -5.9375 C 3.421875 -3.476562 4.257812 -2.25 5.9375 -2.25 Z M 3.546875 5.359375 L 0.59375 5.359375 L 0.59375 -11.3125 L 3.46875 -11.3125 L 3.5 -9.9375 C 4.1875 -11.050781 5.234375 -11.609375 6.640625 -11.609375 C 7.597656 -11.609375 8.441406 -11.367188 9.171875 -10.890625 C 9.910156 -10.410156 10.488281 -9.71875 10.90625 -8.8125 C 11.332031 -7.90625 11.546875 -6.816406 11.546875 -5.546875 C 11.546875 -4.410156 11.359375 -3.398438 10.984375 -2.515625 C 10.617188 -1.640625 10.09375 -0.953125 9.40625 -0.453125 C 8.71875 0.046875 7.882812 0.296875 6.90625 0.296875 C 5.507812 0.296875 4.390625 -0.289062 3.546875 -1.46875 Z M 3.546875 5.359375 "/></g></g></g><g fill="#000000" fill-opacity="1"><g transform="translate(179.375232, 21.416948)"><g><path d="M 7.453125 -4.296875 L 7.46875 -5.546875 C 7.226562 -5.296875 6.585938 -5.070312 5.546875 -4.875 C 4.703125 -4.71875 4.113281 -4.503906 3.78125 -4.234375 C 3.445312 -3.972656 3.28125 -3.597656 3.28125 -3.109375 C 3.28125 -2.265625 3.765625 -1.84375 4.734375 -1.84375 C 5.503906 -1.84375 6.144531 -2.085938 6.65625 -2.578125 C 7.164062 -3.066406 7.429688 -3.640625 7.453125 -4.296875 Z M 10.46875 0 L 7.6875 0 C 7.59375 -0.289062 7.53125 -0.628906 7.5 -1.015625 C 7.144531 -0.628906 6.675781 -0.3125 6.09375 -0.0625 C 5.507812 0.175781 4.835938 0.296875 4.078125 0.296875 C 2.785156 0.296875 1.832031 0.0078125 1.21875 -0.5625 C 0.601562 -1.132812 0.296875 -1.882812 0.296875 -2.8125 C 0.296875 -3.625 0.421875 -4.273438 0.671875 -4.765625 C 0.929688 -5.253906 1.296875 -5.628906 1.765625 -5.890625 C 2.234375 -6.160156 2.785156 -6.359375 3.421875 -6.484375 C 4.054688 -6.617188 4.75 -6.742188 5.5 -6.859375 C 6.25 -6.960938 6.753906 -7.101562 7.015625 -7.28125 C 7.273438 -7.46875 7.40625 -7.753906 7.40625 -8.140625 C 7.40625 -8.503906 7.234375 -8.789062 6.890625 -9 C 6.546875 -9.207031 6.082031 -9.3125 5.5 -9.3125 C 4.820312 -9.3125 4.328125 -9.15625 4.015625 -8.84375 C 3.710938 -8.539062 3.523438 -8.140625 3.453125 -7.640625 L 0.671875 -7.640625 C 0.679688 -8.421875 0.847656 -9.109375 1.171875 -9.703125 C 1.492188 -10.304688 2.015625 -10.773438 2.734375 -11.109375 C 3.453125 -11.441406 4.421875 -11.609375 5.640625 -11.609375 C 7.429688 -11.609375 8.679688 -11.222656 9.390625 -10.453125 C 10.109375 -9.679688 10.46875 -8.582031 10.46875 -7.15625 Z M 10.46875 0 "/></g></g></g><g fill="#000000" fill-opacity="1"><g transform="translate(195.329877, 21.416948)"><g><path d="M 7.78125 -4.09375 L 10.78125 -4.09375 C 10.675781 -3.21875 10.382812 -2.453125 9.90625 -1.796875 C 9.4375 -1.140625 8.828125 -0.625 8.078125 -0.25 C 7.335938 0.113281 6.507812 0.296875 5.59375 0.296875 C 4.050781 0.296875 2.796875 -0.210938 1.828125 -1.234375 C 0.867188 -2.253906 0.390625 -3.773438 0.390625 -5.796875 C 0.390625 -7.816406 0.875 -9.289062 1.84375 -10.21875 C 2.820312 -11.144531 4.101562 -11.609375 5.6875 -11.609375 C 7.15625 -11.609375 8.351562 -11.21875 9.28125 -10.4375 C 10.207031 -9.65625 10.71875 -8.597656 10.8125 -7.265625 L 7.796875 -7.265625 C 7.722656 -7.847656 7.488281 -8.300781 7.09375 -8.625 C 6.707031 -8.957031 6.226562 -9.125 5.65625 -9.125 C 5.03125 -9.125 4.488281 -8.882812 4.03125 -8.40625 C 3.582031 -7.9375 3.359375 -7.085938 3.359375 -5.859375 C 3.359375 -4.640625 3.578125 -3.722656 4.015625 -3.109375 C 4.460938 -2.503906 4.976562 -2.203125 5.5625 -2.203125 C 6.144531 -2.203125 6.644531 -2.363281 7.0625 -2.6875 C 7.476562 -3.007812 7.71875 -3.476562 7.78125 -4.09375 Z M 7.78125 -4.09375 "/></g></g></g><g fill="#000000" fill-opacity="1"><g transform="translate(211.169618, 21.416948)"><g><path d="M 3.65625 0 L 0.671875 0 L 0.671875 -11.3125 L 3.65625 -11.3125 Z M 3.65625 -12.671875 L 0.671875 -12.671875 L 0.671875 -15.453125 L 3.65625 -15.453125 Z M 3.65625 -12.671875 "/></g></g></g><g fill="#000000" fill-opacity="1"><g transform="translate(220.368447, 21.416948)"><g><path d="M 6.15625 -2.203125 C 7.988281 -2.203125 8.90625 -3.351562 8.90625 -5.65625 C 8.90625 -7.9375 7.988281 -9.078125 6.15625 -9.078125 C 4.332031 -9.078125 3.421875 -7.9375 3.421875 -5.65625 C 3.421875 -3.351562 4.332031 -2.203125 6.15625 -2.203125 Z M 6.15625 0.296875 C 4.945312 0.296875 3.90625 0.046875 3.03125 -0.453125 C 2.15625 -0.960938 1.488281 -1.664062 1.03125 -2.5625 C 0.570312 -3.457031 0.34375 -4.488281 0.34375 -5.65625 C 0.34375 -6.851562 0.578125 -7.898438 1.046875 -8.796875 C 1.523438 -9.691406 2.195312 -10.382812 3.0625 -10.875 C 3.9375 -11.363281 4.96875 -11.609375 6.15625 -11.609375 C 7.34375 -11.609375 8.363281 -11.363281 9.21875 -10.875 C 10.082031 -10.382812 10.742188 -9.691406 11.203125 -8.796875 C 11.671875 -7.910156 11.90625 -6.863281 11.90625 -5.65625 C 11.90625 -4.457031 11.671875 -3.414062 11.203125 -2.53125 C 10.742188 -1.644531 10.082031 -0.953125 9.21875 -0.453125 C 8.363281 0.046875 7.34375 0.296875 6.15625 0.296875 Z M 6.15625 0.296875 "/></g></g></g><g fill="#000000" fill-opacity="1"><g transform="translate(237.540961, 21.416948)"><g><path d="M 10.859375 0 L 7.84375 0 L 7.84375 -6.859375 C 7.84375 -7.734375 7.695312 -8.320312 7.40625 -8.625 C 7.125 -8.925781 6.625 -9.078125 5.90625 -9.078125 C 4.363281 -9.078125 3.59375 -8.210938 3.59375 -6.484375 L 3.59375 0 L 0.59375 0 L 0.59375 -11.3125 L 3.453125 -11.3125 L 3.453125 -9.65625 C 3.804688 -10.289062 4.273438 -10.773438 4.859375 -11.109375 C 5.453125 -11.441406 6.203125 -11.609375 7.109375 -11.609375 C 8.191406 -11.609375 9.085938 -11.285156 9.796875 -10.640625 C 10.503906 -10.003906 10.859375 -9.070312 10.859375 -7.84375 Z M 10.859375 0 "/></g></g></g><g fill="#000000" fill-opacity="1"><g transform="translate(253.886245, 21.416948)"><g><path d="M 7.453125 -4.296875 L 7.46875 -5.546875 C 7.226562 -5.296875 6.585938 -5.070312 5.546875 -4.875 C 4.703125 -4.71875 4.113281 -4.503906 3.78125 -4.234375 C 3.445312 -3.972656 3.28125 -3.597656 3.28125 -3.109375 C 3.28125 -2.265625 3.765625 -1.84375 4.734375 -1.84375 C 5.503906 -1.84375 6.144531 -2.085938 6.65625 -2.578125 C 7.164062 -3.066406 7.429688 -3.640625 7.453125 -4.296875 Z M 10.46875 0 L 7.6875 0 C 7.59375 -0.289062 7.53125 -0.628906 7.5 -1.015625 C 7.144531 -0.628906 6.675781 -0.3125 6.09375 -0.0625 C 5.507812 0.175781 4.835938 0.296875 4.078125 0.296875 C 2.785156 0.296875 1.832031 0.0078125 1.21875 -0.5625 C 0.601562 -1.132812 0.296875 -1.882812 0.296875 -2.8125 C 0.296875 -3.625 0.421875 -4.273438 0.671875 -4.765625 C 0.929688 -5.253906 1.296875 -5.628906 1.765625 -5.890625 C 2.234375 -6.160156 2.785156 -6.359375 3.421875 -6.484375 C 4.054688 -6.617188 4.75 -6.742188 5.5 -6.859375 C 6.25 -6.960938 6.753906 -7.101562 7.015625 -7.28125 C 7.273438 -7.46875 7.40625 -7.753906 7.40625 -8.140625 C 7.40625 -8.503906 7.234375 -8.789062 6.890625 -9 C 6.546875 -9.207031 6.082031 -9.3125 5.5 -9.3125 C 4.820312 -9.3125 4.328125 -9.15625 4.015625 -8.84375 C 3.710938 -8.539062 3.523438 -8.140625 3.453125 -7.640625 L 0.671875 -7.640625 C 0.679688 -8.421875 0.847656 -9.109375 1.171875 -9.703125 C 1.492188 -10.304688 2.015625 -10.773438 2.734375 -11.109375 C 3.453125 -11.441406 4.421875 -11.609375 5.640625 -11.609375 C 7.429688 -11.609375 8.679688 -11.222656 9.390625 -10.453125 C 10.109375 -9.679688 10.46875 -8.582031 10.46875 -7.15625 Z M 10.46875 0 "/></g></g></g><g fill="#000000" fill-opacity="1"><g transform="translate(269.84089, 21.416948)"><g><path d="M 3.59375 0 L 0.59375 0 L 0.59375 -15.453125 L 3.59375 -15.453125 Z M 3.59375 0 "/></g></g></g></g></g><g transform="matrix(1, 0, 0, 1, 229, 514)"><g clip-path="url(#3ddafd3ffc)"><g fill="#000000" fill-opacity="1"><g transform="translate(1.99534, 30.725271)"><g><path d="M 11.828125 -22.515625 L 12.90625 -22.515625 L 12.90625 -13.78125 L 16.015625 -21.90625 L 17.15625 -21.453125 L 13.71875 -13.390625 L 19.828125 -19.65625 L 20.703125 -18.78125 L 14.4375 -12.640625 L 22.484375 -16.125 L 22.9375 -14.984375 L 14.8125 -11.765625 L 23.5625 -11.765625 L 23.5625 -10.6875 L 14.8125 -10.6875 L 22.9375 -7.546875 L 22.484375 -6.375 L 14.4375 -9.9375 L 20.703125 -3.734375 L 19.828125 -2.859375 L 13.71875 -9.265625 L 17.15625 -1.109375 L 16.015625 -0.65625 L 12.90625 -8.90625 L 12.90625 0 L 11.828125 0 L 11.828125 -8.90625 L 8.671875 -0.65625 L 7.5 -1.109375 L 10.953125 -9.265625 L 4.875 -2.859375 L 4 -3.734375 L 10.328125 -9.9375 L 2.203125 -6.375 L 1.75 -7.546875 L 10.015625 -10.6875 L 1.140625 -10.6875 L 1.140625 -11.765625 L 10.015625 -11.765625 L 1.75 -14.984375 L 2.203125 -16.125 L 10.328125 -12.640625 L 4 -18.78125 L 4.875 -19.65625 L 10.953125 -13.390625 L 7.5 -21.453125 L 8.671875 -21.90625 L 11.828125 -13.78125 Z M 11.828125 -22.515625 "/></g></g></g><g fill="#000000" fill-opacity="1"><g transform="translate(33.437759, 30.725271)"><g/></g></g><g fill="#000000" fill-opacity="1"><g transform="translate(48.030672, 30.725271)"><g/></g></g><g fill="#000000" fill-opacity="1"><g transform="translate(62.623586, 30.725271)"><g/></g></g><g fill="#000000" fill-opacity="1"><g transform="translate(77.216499, 30.725271)"><g/></g></g><g fill="#000000" fill-opacity="1"><g transform="translate(91.809412, 30.725271)"><g/></g></g><g fill="#000000" fill-opacity="1"><g transform="translate(106.402325, 30.725271)"><g/></g></g><g fill="#000000" fill-opacity="1"><g transform="translate(120.995239, 30.725271)"><g/></g></g><g fill="#000000" fill-opacity="1"><g transform="translate(135.588152, 30.725271)"><g/></g></g><g fill="#000000" fill-opacity="1"><g transform="translate(150.181065, 30.725271)"><g/></g></g><g fill="#000000" fill-opacity="1"><g transform="translate(164.773979, 30.725271)"><g/></g></g><g fill="#000000" fill-opacity="1"><g transform="translate(179.366892, 30.725271)"><g/></g></g><g fill="#000000" fill-opacity="1"><g transform="translate(193.959805, 30.725271)"><g/></g></g><g fill="#000000" fill-opacity="1"><g transform="translate(208.552718, 30.725271)"><g/></g></g><g fill="#000000" fill-opacity="1"><g transform="translate(223.145632, 30.725271)"><g/></g></g><g fill="#000000" fill-opacity="1"><g transform="translate(237.738545, 30.725271)"><g/></g></g><g fill="#000000" fill-opacity="1"><g transform="translate(252.331458, 30.725271)"><g/></g></g><g fill="#000000" fill-opacity="1"><g transform="translate(266.924372, 30.725271)"><g/></g></g><g fill="#000000" fill-opacity="1"><g transform="translate(281.517285, 30.725271)"><g/></g></g><g fill="#000000" fill-opacity="1"><g transform="translate(296.110198, 30.725271)"><g/></g></g><g fill="#000000" fill-opacity="1"><g transform="translate(310.703111, 30.725271)"><g/></g></g><g fill="#000000" fill-opacity="1"><g transform="translate(325.30447, 30.725271)"><g><path d="M 11.828125 -22.515625 L 12.90625 -22.515625 L 12.90625 -13.78125 L 16.015625 -21.90625 L 17.15625 -21.453125 L 13.71875 -13.390625 L 19.828125 -19.65625 L 20.703125 -18.78125 L 14.4375 -12.640625 L 22.484375 -16.125 L 22.9375 -14.984375 L 14.8125 -11.765625 L 23.5625 -11.765625 L 23.5625 -10.6875 L 14.8125 -10.6875 L 22.9375 -7.546875 L 22.484375 -6.375 L 14.4375 -9.9375 L 20.703125 -3.734375 L 19.828125 -2.859375 L 13.71875 -9.265625 L 17.15625 -1.109375 L 16.015625 -0.65625 L 12.90625 -8.90625 L 12.90625 0 L 11.828125 0 L 11.828125 -8.90625 L 8.671875 -0.65625 L 7.5 -1.109375 L 10.953125 -9.265625 L 4.875 -2.859375 L 4 -3.734375 L 10.328125 -9.9375 L 2.203125 -6.375 L 1.75 -7.546875 L 10.015625 -10.6875 L 1.140625 -10.6875 L 1.140625 -11.765625 L 10.015625 -11.765625 L 1.75 -14.984375 L 2.203125 -16.125 L 10.328125 -12.640625 L 4 -18.78125 L 4.875 -19.65625 L 10.953125 -13.390625 L 7.5 -21.453125 L 8.671875 -21.90625 L 11.828125 -13.78125 Z M 11.828125 -22.515625 "/></g></g></g></g></g><g clip-path="url(#e1a6ea4252)"><path fill="#737373" d="M 474.101562 393.675781 C 468.523438 392.746094 463.339844 390.371094 458.421875 387.113281 C 455.4375 385.132812 454.773438 381.105469 456.917969 378.261719 C 458.820312 375.738281 460.476562 373.121094 461.902344 370.429688 C 459.382812 369.730469 456.734375 367.214844 451.519531 361.964844 C 450.644531 363.894531 449.636719 365.78125 448.476562 367.617188 C 446.253906 371.136719 441.203125 371.59375 438.421875 368.484375 C 415.976562 343.355469 384.746094 324.4375 359.734375 349.519531 C 358.375 350.878906 356.664062 351.445312 355.003906 351.371094 C 354.230469 353.210938 353.933594 354.742188 354.144531 356.078125 C 354.765625 360.070312 358.238281 362.484375 363.835938 364.574219 C 368.707031 351.265625 395.519531 344.9375 409.800781 359.164062 C 409.929688 359.292969 410.066406 359.414062 410.207031 359.53125 C 416.289062 364.433594 422.558594 371.28125 428.660156 377.691406 C 431.488281 380.664062 430.703125 385.503906 427.035156 387.378906 C 426.582031 387.609375 426.125 387.832031 425.664062 388.050781 C 427.675781 389.21875 429.734375 390.464844 431.828125 391.789062 C 433.914062 393.105469 435.914062 394.425781 437.828125 395.734375 C 438.207031 395.484375 438.890625 395.078125 439.804688 394.753906 C 441.476562 394.160156 444.40625 392.828125 447.242188 394.96875 C 454.585938 400.523438 462.710938 404.824219 472.015625 406.332031 C 475.835938 406.953125 479.300781 404.027344 479.300781 400.21875 L 479.300781 399.765625 C 479.300781 396.761719 477.113281 394.179688 474.101562 393.675781 Z M 474.101562 393.675781 " fill-opacity="1" fill-rule="nonzero"/></g><path fill="#737373" d="M 401.972656 287.96875 C 411.425781 287.96875 420.308594 290.472656 427.992188 294.84375 C 426.679688 287.523438 423.035156 280.613281 415.6875 276.566406 C 411.261719 275.621094 406.675781 275.121094 401.972656 275.121094 C 387.03125 275.121094 373.242188 280.140625 362.195312 288.582031 C 357.933594 297.371094 356.519531 305.667969 356.617188 313.773438 C 365.839844 298.332031 382.71875 287.96875 401.972656 287.96875 Z M 401.972656 287.96875 " fill-opacity="1" fill-rule="nonzero"/><path fill="#737373" d="M 448.945312 367.910156 C 448.476562 367.746094 448.03125 367.53125 447.609375 367.289062 C 438.449219 382.992188 421.421875 393.566406 401.972656 393.566406 C 387.328125 393.566406 374.058594 387.570312 364.484375 377.90625 C 364.058594 381.582031 363.3125 385.351562 362.15625 389.234375 C 361.796875 390.445312 361.761719 391.660156 361.988281 392.796875 C 364.871094 395.019531 367.945312 397.003906 371.175781 398.730469 C 380.363281 403.632812 390.847656 406.417969 401.972656 406.417969 C 412.824219 406.417969 423.070312 403.765625 432.097656 399.082031 C 442.226562 393.828125 450.820312 386.011719 457.019531 376.5 C 455.714844 372.699219 452.875 369.300781 448.945312 367.910156 Z M 448.945312 367.910156 " fill-opacity="1" fill-rule="nonzero"/><path fill="#737373" d="M 442.71875 289.332031 C 444.359375 295.871094 444.695312 302.636719 443.976562 308.820312 C 450.742188 317.695312 454.769531 328.769531 454.769531 340.769531 C 454.769531 345.054688 454.253906 349.222656 453.285156 353.214844 C 453.292969 353.21875 453.300781 353.21875 453.308594 353.222656 C 458.042969 354.628906 461.871094 356.839844 464.863281 359.601562 C 466.652344 353.632812 467.621094 347.3125 467.621094 340.769531 C 467.621094 319.953125 457.878906 301.367188 442.71875 289.332031 Z M 442.71875 289.332031 " fill-opacity="1" fill-rule="nonzero"/><path fill="#737373" d="M 341.117188 316.148438 C 338.03125 323.753906 336.324219 332.066406 336.324219 340.769531 C 336.324219 354.972656 340.859375 368.136719 348.558594 378.890625 C 350.308594 360.921875 343.425781 334.824219 341.378906 320 C 341.265625 318.699219 341.179688 317.414062 341.117188 316.148438 Z M 341.117188 316.148438 " fill-opacity="1" fill-rule="nonzero"/><g clip-path="url(#72dde75a66)"><path fill="#000000" d="M 464.863281 359.601562 C 461.871094 356.839844 458.042969 354.628906 453.308594 353.222656 C 453.300781 353.21875 453.292969 353.21875 453.285156 353.214844 C 448.582031 351.835938 443.859375 355.34375 443.859375 360.25 L 443.859375 360.945312 C 443.859375 363.628906 445.347656 365.980469 447.609375 367.289062 C 448.03125 367.53125 448.476562 367.746094 448.945312 367.910156 C 452.875 369.300781 455.714844 372.699219 457.019531 376.5 C 457.828125 378.859375 458.042969 381.375 457.558594 383.660156 C 455.679688 392.285156 448.03125 398.546875 438.953125 398.890625 C 436.878906 398.972656 434.578125 399.035156 432.097656 399.082031 C 423.070312 403.765625 412.824219 406.417969 401.972656 406.417969 C 390.847656 406.417969 380.363281 403.632812 371.175781 398.730469 C 370.464844 398.71875 369.761719 398.707031 369.058594 398.699219 C 365.449219 398.644531 362.640625 396.042969 361.988281 392.796875 C 361.761719 391.660156 361.796875 390.445312 362.15625 389.234375 C 363.3125 385.351562 364.058594 381.582031 364.484375 377.90625 C 367.214844 354.390625 356.867188 334.734375 356.617188 313.773438 C 356.519531 305.667969 357.933594 297.371094 362.195312 288.582031 C 362.507812 287.933594 362.832031 287.289062 363.175781 286.636719 C 363.386719 286.242188 363.628906 285.859375 363.90625 285.511719 C 371.722656 275.609375 382.941406 273.167969 396.621094 272.953125 C 404.742188 272.546875 410.976562 273.96875 415.6875 276.566406 C 423.035156 280.613281 426.679688 287.523438 427.992188 294.84375 C 428.785156 299.25 428.730469 303.800781 428.125 307.964844 C 427.597656 311.601562 429.746094 315.09375 433.269531 316.136719 L 434.414062 316.472656 C 438.699219 317.742188 443.097656 314.910156 443.757812 310.488281 C 443.839844 309.9375 443.910156 309.382812 443.976562 308.820312 C 444.695312 302.636719 444.359375 295.871094 442.71875 289.332031 C 438.328125 271.832031 424.582031 255.957031 396.621094 257.269531 C 375.605469 257.269531 360.183594 263.859375 350.789062 276.851562 C 343.566406 286.835938 340.324219 300.042969 341.117188 316.148438 C 341.179688 317.414062 341.265625 318.699219 341.378906 320 C 343.425781 334.824219 350.308594 360.921875 348.558594 378.890625 C 347.617188 388.535156 344.191406 395.835938 336.199219 397.789062 C 333.035156 398.5625 330.832031 401.429688 330.746094 404.679688 L 330.699219 406.46875 C 330.589844 410.574219 333.871094 413.96875 337.976562 413.992188 C 370.320312 414.191406 408.582031 415.46875 439.546875 414.558594 C 469.917969 414.320312 483.230469 376.558594 464.863281 359.601562 Z M 464.863281 359.601562 " fill-opacity="1" fill-rule="nonzero"/></g><g clip-path="url(#114c7d43df)"><path fill="#737373" d="M 474.101562 393.675781 C 468.523438 392.746094 463.339844 390.371094 458.421875 387.113281 C 457.519531 386.511719 456.828125 385.722656 456.363281 384.835938 C 452.375 387.808594 448.386719 390.777344 444.398438 393.75 C 445.410156 393.917969 446.390625 394.328125 447.242188 394.96875 C 454.585938 400.523438 462.710938 404.824219 472.015625 406.332031 C 475.835938 406.953125 479.300781 404.027344 479.300781 400.21875 L 479.300781 399.765625 C 479.300781 396.761719 477.113281 394.179688 474.101562 393.675781 Z M 474.101562 393.675781 " fill-opacity="1" fill-rule="nonzero"/></g></svg>