<svg xmlns="http://www.w3.org/2000/svg" xmlns:xlink="http://www.w3.org/1999/xlink" width="1080" zoomAndPan="magnify" viewBox="0 0 810 809.999993" height="1080" preserveAspectRatio="xMidYMid meet" version="1.0"><defs><clipPath id="4e968ee2b5"><path d="M 64 235.699219 L 250 235.699219 L 250 441 L 64 441 Z M 64 235.699219 " clip-rule="nonzero"/></clipPath><clipPath id="912a7e42d1"><path d="M 605 279 L 750.253906 279 L 750.253906 434 L 605 434 Z M 605 279 " clip-rule="nonzero"/></clipPath><clipPath id="5704019943"><path d="M 59.503906 450 L 193 450 L 193 573.949219 L 59.503906 573.949219 Z M 59.503906 450 " clip-rule="nonzero"/></clipPath><clipPath id="2d3b0c311a"><path d="M 663 482 L 750.253906 482 L 750.253906 570 L 663 570 Z M 663 482 " clip-rule="nonzero"/></clipPath></defs><path fill="#3f1f1f" d="M 383.042969 556.394531 C 381.542969 550.714844 382.425781 531.289062 382.210938 525.410156 C 380.609375 498.417969 357.128906 483.664062 337.175781 501.046875 C 329.25 508.3125 328.199219 517.730469 328.015625 520.253906 C 328.003906 520.386719 328 520.515625 328 520.648438 C 327.96875 535.695312 327.941406 550.742188 327.910156 565.789062 C 327.902344 569.011719 325.292969 571.617188 322.074219 571.617188 L 322.066406 571.617188 C 318.773438 571.617188 316.148438 568.890625 316.234375 565.597656 C 316.890625 541.390625 309.304688 509.839844 328.1875 491.886719 C 340.585938 480.066406 369.832031 475.253906 384.257812 496.320312 C 399.574219 518.976562 392.769531 528.867188 394.300781 549.117188 C 394.851562 556.367188 395.078125 558.921875 398.886719 559.503906 C 401.78125 559.945312 403.957031 562.363281 403.957031 565.289062 L 403.957031 565.726562 C 403.957031 569.296875 400.777344 572.074219 397.253906 571.503906 C 388.996094 570.164062 384.597656 564.175781 383.042969 556.394531 Z M 383.042969 556.394531 " fill-opacity="1" fill-rule="nonzero"/><path fill="#3f1f1f" d="M 271.269531 483.660156 C 272.1875 482.730469 274.734375 482.085938 277.449219 481.734375 C 280.9375 481.28125 284.03125 484.007812 284.03125 487.527344 L 284.03125 487.824219 C 284.03125 490.796875 281.792969 493.296875 278.835938 493.625 C 277.425781 493.777344 276.226562 494.253906 275.855469 495.519531 C 272.992188 503.746094 274.886719 516.785156 274.378906 526.011719 C 274.375 526.125 274.371094 526.238281 274.375 526.355469 C 275.113281 562.566406 238.246094 586.140625 208.472656 561.414062 C 208.332031 561.300781 208.195312 561.175781 208.066406 561.050781 C 189.386719 542.957031 196.976562 511.65625 196.3125 487.53125 C 196.222656 484.234375 198.847656 481.507812 202.148438 481.507812 C 205.367188 481.507812 207.976562 484.117188 207.984375 487.335938 C 208.015625 502.382812 208.042969 517.429688 208.074219 532.476562 C 208.074219 532.609375 208.078125 532.738281 208.089844 532.871094 C 208.273438 535.398438 209.324219 544.8125 217.25 552.082031 C 237.230469 569.464844 260.679688 554.699219 262.285156 527.714844 C 263.613281 514.09375 257.492188 493.707031 271.269531 483.660156 Z M 271.269531 483.660156 " fill-opacity="1" fill-rule="nonzero"/><g clip-path="url(#4e968ee2b5)"><path fill="#3f1f1f" d="M 211.546875 369.222656 C 211.546875 362.855469 217.6875 358.304688 223.792969 360.121094 C 267.59375 373.136719 251.71875 439.234375 205.960938 439.59375 C 165.839844 440.773438 116.265625 439.113281 74.363281 438.859375 C 69.039062 438.828125 64.789062 434.429688 64.929688 429.109375 L 64.992188 426.792969 C 65.101562 422.578125 67.960938 418.863281 72.054688 417.863281 C 101.714844 410.621094 82.847656 346.589844 78.769531 317.078125 C 76.765625 293.933594 80.867188 275.125 90.960938 261.171875 C 103.136719 244.335938 123.117188 235.800781 150.347656 235.800781 C 201.339844 233.402344 215.84375 275.125 211.417969 304.753906 C 210.5625 310.484375 204.867188 314.152344 199.308594 312.507812 L 197.828125 312.070312 C 193.261719 310.714844 190.480469 306.195312 191.164062 301.484375 C 194.078125 281.378906 187.140625 254.269531 150.34375 256.121094 C 132.617188 256.394531 118.082031 259.558594 107.957031 272.390625 C 107.601562 272.84375 107.28125 273.339844 107.011719 273.847656 C 82.328125 320.535156 120.730469 356.195312 105.691406 406.777344 C 103.890625 412.835938 108.316406 418.945312 114.632812 419.039062 C 146.589844 419.519531 184.449219 420.109375 205.195312 419.289062 C 216.953125 418.84375 226.867188 410.730469 229.296875 399.558594 C 230.945312 391.832031 226.394531 382.070312 218.140625 379.152344 C 214.253906 377.777344 211.546875 374.25 211.546875 370.125 C 211.546875 369.828125 211.546875 369.527344 211.546875 369.222656 Z M 211.546875 369.222656 " fill-opacity="1" fill-rule="nonzero"/></g><path fill="#3f1f1f" d="M 384.253906 284.699219 C 385.792969 283.140625 390.078125 282.054688 394.636719 281.464844 C 400.507812 280.703125 405.710938 285.285156 405.710938 291.203125 L 405.710938 291.699219 C 405.710938 296.703125 401.945312 300.90625 396.972656 301.453125 C 394.597656 301.714844 392.582031 302.511719 391.960938 304.644531 C 387.148438 318.472656 390.332031 340.398438 389.480469 355.910156 C 389.46875 356.097656 389.46875 356.289062 389.472656 356.480469 C 390.714844 417.363281 328.730469 457.007812 278.671875 415.4375 C 278.433594 415.238281 278.203125 415.03125 277.980469 414.816406 C 246.582031 384.394531 259.339844 331.769531 258.226562 291.210938 C 258.074219 285.667969 262.488281 281.085938 268.03125 281.085938 C 273.445312 281.085938 277.835938 285.46875 277.847656 290.878906 C 277.898438 316.179688 277.949219 341.480469 278 366.777344 C 278 367 278.003906 367.21875 278.023438 367.441406 C 278.332031 371.6875 280.101562 387.519531 293.421875 399.738281 C 327.019531 428.96875 366.445312 404.140625 369.144531 358.773438 C 371.375 335.871094 361.085938 301.59375 384.253906 284.699219 Z M 384.253906 284.699219 " fill-opacity="1" fill-rule="nonzero"/><path fill="#3f1f1f" d="M 512.957031 409.804688 L 584.597656 409.804688 C 589.847656 409.804688 594.101562 414.058594 594.101562 419.308594 L 594.101562 420.625 C 594.101562 425.871094 589.847656 430.125 584.597656 430.125 L 468.785156 430.125 C 460.667969 430.125 456.289062 420.605469 461.570312 414.441406 L 544.316406 317.882812 C 549.597656 311.71875 545.21875 302.195312 537.101562 302.195312 L 462.898438 302.195312 C 457.648438 302.195312 453.394531 297.941406 453.394531 292.695312 L 453.394531 291.378906 C 453.394531 286.132812 457.648438 281.878906 462.898438 281.878906 L 581.273438 281.878906 C 589.390625 281.878906 593.769531 291.398438 588.488281 297.5625 L 505.742188 394.121094 C 500.460938 400.285156 504.839844 409.804688 512.957031 409.804688 Z M 512.957031 409.804688 " fill-opacity="1" fill-rule="nonzero"/><g clip-path="url(#912a7e42d1)"><path fill="#3f1f1f" d="M 736.777344 410.714844 C 737.332031 411.691406 739.238281 412.0625 741.484375 412.183594 C 746.507812 412.445312 750.488281 416.507812 750.488281 421.539062 L 750.488281 423.078125 C 750.488281 428.644531 745.714844 433.082031 740.171875 432.550781 C 730.027344 431.582031 722.378906 427.203125 717.828125 418.988281 C 714.933594 413.765625 707.941406 412.675781 703.300781 416.433594 C 680.296875 435.039062 644.476562 439.828125 621.074219 421.820312 C 611.1875 414.023438 605.738281 402.855469 605.738281 390.382812 C 607.644531 340 653.242188 337.777344 701.453125 337.308594 C 707.992188 337.246094 712.53125 330.746094 710.3125 324.59375 C 704.925781 309.640625 691.476562 298.566406 671.855469 299.433594 C 671.605469 299.441406 671.355469 299.441406 671.109375 299.429688 C 645.421875 298.101562 628.804688 314.308594 625.316406 331.226562 C 624.429688 335.527344 620.558594 338.5625 616.164062 338.628906 L 615.113281 338.644531 C 609.011719 338.730469 604.410156 333.132812 605.675781 327.164062 C 607.472656 318.71875 611.632812 307.117188 621.253906 297.355469 C 642.007812 274.273438 696.601562 271.898438 717.433594 297.238281 C 747.535156 331.234375 724.464844 381.433594 736.773438 410.714844 Z M 709.917969 369.675781 C 711.652344 363.578125 707.082031 357.496094 700.742188 357.535156 C 671.863281 357.703125 643.917969 359.421875 632.851562 370.90625 C 617.027344 389.078125 629.472656 413.265625 654.9375 412.769531 C 681.828125 413.453125 702.65625 395.21875 709.917969 369.675781 Z M 709.917969 369.675781 " fill-opacity="1" fill-rule="nonzero"/></g><g clip-path="url(#5704019943)"><path fill="#3f1f1f" d="M 172.84375 556.074219 C 177.40625 559.148438 182.214844 561.390625 187.394531 562.269531 C 190.1875 562.742188 192.222656 565.179688 192.222656 568.011719 L 192.222656 568.441406 C 192.222656 572.035156 189.003906 574.792969 185.460938 574.210938 C 176.824219 572.785156 169.28125 568.730469 162.460938 563.488281 C 160.441406 561.933594 157.644531 561.816406 155.558594 563.28125 C 135.832031 577.148438 105.570312 577.421875 86.046875 563.1875 L 85.917969 563.359375 C 36.78125 530.730469 60.671875 449.472656 120.789062 450.441406 C 170.199219 448.808594 199.605469 509.742188 171.445312 547.722656 C 169.457031 550.40625 170.070312 554.207031 172.84375 556.074219 Z M 120.785156 462.523438 C 91.285156 461.941406 68.546875 489.246094 71.253906 517.046875 C 71.734375 521.996094 77.753906 524.152344 81.234375 520.601562 C 104.453125 496.933594 133.441406 514.785156 154.277344 538.496094 C 156.855469 541.429688 161.546875 541 163.609375 537.679688 C 182.65625 506.992188 159.160156 461.265625 120.785156 462.523438 Z M 91.382812 552.160156 C 105.546875 563.304688 127.585938 564.703125 143.703125 556.324219 C 147.113281 554.554688 147.839844 549.988281 145.214844 547.183594 C 139.550781 541.136719 133.730469 534.675781 128.085938 530.046875 C 127.953125 529.9375 127.828125 529.824219 127.707031 529.703125 C 109.167969 510.925781 67.855469 530.09375 91.378906 552.160156 Z M 91.382812 552.160156 " fill-opacity="1" fill-rule="nonzero"/></g><path fill="#3f1f1f" d="M 471.914062 536.582031 L 477.21875 536.523438 C 480.992188 536.480469 483.8125 539.976562 482.984375 543.65625 C 473.003906 587.957031 399.859375 579.265625 407.214844 527.550781 L 407.433594 527.550781 C 409.882812 489.652344 444.996094 468.820312 473.710938 486.859375 C 473.925781 486.996094 474.136719 487.144531 474.335938 487.304688 C 480.027344 491.933594 483.15625 498.472656 483.15625 505.765625 C 482.285156 535.648438 454.386719 537.113281 426.25 537.34375 C 422.242188 537.375 419.460938 541.339844 420.785156 545.125 C 429.109375 568.902344 472.882812 562.4375 471.914062 536.582031 Z M 426.914062 525.289062 C 444.351562 525.167969 459.820312 524.207031 466.785156 517.585938 C 466.949219 517.429688 467.105469 517.261719 467.253906 517.089844 C 476.328125 506.308594 468.917969 492.15625 453.894531 492.449219 C 437.992188 492.046875 425.648438 502.769531 421.265625 517.828125 C 420.175781 521.574219 423.011719 525.316406 426.914062 525.289062 Z M 426.914062 525.289062 " fill-opacity="1" fill-rule="nonzero"/><path fill="#3f1f1f" d="M 508.867188 558.648438 C 509.144531 559.128906 509.976562 559.351562 511.003906 559.445312 C 514.035156 559.722656 516.390625 562.195312 516.390625 565.242188 L 516.390625 565.777344 C 516.390625 569.277344 513.324219 571.984375 509.847656 571.574219 C 490.882812 569.339844 495.003906 545.378906 494.644531 531.390625 L 494.515625 531.390625 L 494.515625 460.015625 C 494.515625 456.789062 497.128906 454.175781 500.355469 454.175781 L 500.765625 454.175781 C 503.988281 454.175781 506.601562 456.789062 506.601562 460.015625 L 506.601562 521.828125 L 506.730469 521.828125 C 507.5625 528.753906 504.597656 552.945312 508.867188 558.648438 Z M 508.867188 558.648438 " fill-opacity="1" fill-rule="nonzero"/><path fill="#3f1f1f" d="M 600.214844 558.609375 C 600.539062 559.175781 601.636719 559.402344 602.933594 559.476562 C 605.996094 559.652344 608.371094 562.230469 608.371094 565.300781 L 608.371094 565.757812 C 608.371094 569.179688 605.4375 571.929688 602.035156 571.578125 C 596.136719 570.964844 591.675781 568.390625 588.996094 563.613281 C 587.230469 560.472656 583.035156 559.8125 580.230469 562.070312 C 566.546875 573.085938 545.296875 575.902344 531.402344 565.214844 C 525.519531 560.578125 522.28125 553.9375 522.28125 546.515625 C 523.414062 516.550781 550.53125 515.230469 579.203125 514.949219 C 583.203125 514.910156 585.976562 510.949219 584.65625 507.171875 C 576.882812 484.914062 538.007812 489.121094 533.863281 510.972656 C 533.347656 513.699219 530.992188 515.699219 528.214844 515.738281 L 527.667969 515.746094 C 523.976562 515.800781 521.179688 512.457031 521.84375 508.824219 C 526.625 482.757812 566.964844 468.929688 588.714844 491.117188 C 606.617188 511.335938 592.894531 541.195312 600.214844 558.609375 Z M 584.175781 534.441406 C 585.261719 530.699219 582.433594 526.957031 578.535156 526.980469 C 561.449219 527.089844 544.957031 528.136719 538.40625 534.929688 C 528.992188 545.738281 536.394531 560.128906 551.542969 559.832031 C 567.453125 560.234375 579.792969 549.507812 584.171875 534.441406 Z M 584.175781 534.441406 " fill-opacity="1" fill-rule="nonzero"/><g clip-path="url(#2d3b0c311a)"><path fill="#3f1f1f" d="M 750.488281 526.140625 C 750.488281 550.207031 730.910156 569.785156 706.84375 569.785156 C 682.777344 569.785156 663.199219 550.207031 663.199219 526.140625 C 663.199219 502.074219 682.777344 482.496094 706.84375 482.496094 C 730.910156 482.496094 750.488281 502.074219 750.488281 526.140625 Z M 738.402344 526.140625 C 738.402344 508.738281 724.246094 494.582031 706.84375 494.582031 C 689.441406 494.582031 675.285156 508.738281 675.285156 526.140625 C 675.285156 543.542969 689.441406 557.699219 706.84375 557.699219 C 724.246094 557.699219 738.402344 543.542969 738.402344 526.140625 Z M 738.402344 526.140625 " fill-opacity="1" fill-rule="nonzero"/></g><path fill="#3f1f1f" d="M 297.488281 481.507812 L 297.480469 481.507812 C 297.480469 481.523438 297.480469 481.535156 297.480469 481.550781 L 297.230469 481.550781 C 294.007812 481.550781 291.394531 484.164062 291.394531 487.386719 L 291.394531 565.859375 C 291.394531 569.085938 294.007812 571.699219 297.230469 571.699219 L 297.640625 571.699219 C 300.863281 571.699219 303.476562 569.085938 303.476562 565.859375 L 303.476562 487.386719 C 303.476562 484.164062 300.863281 481.550781 297.640625 481.550781 L 297.488281 481.550781 C 297.488281 481.535156 297.488281 481.523438 297.488281 481.507812 Z M 297.488281 481.507812 " fill-opacity="1" fill-rule="nonzero"/><path fill="#3f1f1f" d="M 427.9375 281.085938 L 427.921875 281.085938 C 427.921875 281.105469 427.925781 281.128906 427.925781 281.152344 L 427.191406 281.152344 C 421.941406 281.152344 417.6875 285.40625 417.6875 290.652344 L 417.6875 423.222656 C 417.6875 428.46875 421.941406 432.722656 427.191406 432.722656 L 428.503906 432.722656 C 433.753906 432.722656 438.007812 428.46875 438.007812 423.222656 L 438.007812 290.65625 C 438.007812 285.40625 433.753906 281.152344 428.503906 281.152344 L 427.9375 281.152344 C 427.9375 281.128906 427.9375 281.109375 427.9375 281.085938 Z M 427.9375 281.085938 " fill-opacity="1" fill-rule="nonzero"/><path fill="#3f1f1f" d="M 624.257812 454.175781 L 624.351562 454.175781 L 624.351562 477.992188 L 624.257812 477.992188 Z M 624.257812 454.175781 " fill-opacity="1" fill-rule="nonzero"/><path fill="#3f1f1f" d="M 659.3125 536.871094 L 659.3125 528.082031 C 659.3125 524.855469 656.699219 522.242188 653.472656 522.242188 L 653.152344 522.242188 C 649.925781 522.242188 647.3125 524.855469 647.3125 528.082031 L 647.3125 547.84375 C 647.273438 548.863281 646.972656 554.171875 642.703125 557.699219 C 639.65625 561.082031 632.050781 561.152344 628.96875 557.699219 C 625.34375 554.695312 624.65625 550.457031 624.503906 549.003906 C 624.488281 548.824219 624.480469 548.648438 624.476562 548.464844 C 624.355469 531.625 624.316406 514.601562 624.359375 497.640625 C 624.367188 494.417969 626.988281 491.816406 630.210938 491.820312 C 637.960938 491.832031 645.714844 491.84375 653.464844 491.855469 C 656.691406 491.863281 659.3125 489.246094 659.3125 486.019531 L 659.3125 483.828125 C 659.3125 480.605469 656.699219 477.992188 653.472656 477.992188 L 630.097656 477.992188 C 626.871094 477.992188 624.257812 475.378906 624.257812 472.152344 L 624.257812 460.015625 C 624.257812 456.789062 621.644531 454.175781 618.421875 454.175781 L 618.113281 454.175781 C 614.882812 454.175781 612.269531 456.796875 612.273438 460.023438 C 612.3125 489.636719 612.355469 519.253906 612.394531 548.867188 C 611.753906 560.980469 622.980469 572.46875 636.417969 571.507812 C 636.707031 571.488281 637 571.488281 637.289062 571.511719 C 648.898438 572.414062 658.90625 561.863281 659.3125 551.765625 C 659.640625 546.773438 658.996094 543.046875 659.3125 536.871094 Z M 659.3125 536.871094 " fill-opacity="1" fill-rule="nonzero"/><path fill="#3f1f1f" d="M 427.191406 252.3125 L 428.503906 252.3125 C 429.128906 252.3125 429.746094 252.371094 430.359375 252.496094 C 430.972656 252.617188 431.566406 252.796875 432.140625 253.035156 C 432.71875 253.273438 433.265625 253.566406 433.785156 253.914062 C 434.304688 254.257812 434.785156 254.652344 435.222656 255.09375 C 435.664062 255.535156 436.058594 256.015625 436.40625 256.535156 C 436.753906 257.054688 437.046875 257.601562 437.285156 258.175781 C 437.523438 258.753906 437.703125 259.347656 437.824219 259.960938 C 437.945312 260.570312 438.007812 261.191406 438.007812 261.8125 L 438.007812 263.128906 C 438.007812 263.753906 437.945312 264.371094 437.824219 264.980469 C 437.703125 265.59375 437.523438 266.1875 437.285156 266.765625 C 437.046875 267.339844 436.753906 267.890625 436.40625 268.40625 C 436.058594 268.925781 435.664062 269.40625 435.222656 269.847656 C 434.785156 270.289062 434.304688 270.683594 433.785156 271.03125 C 433.265625 271.375 432.71875 271.667969 432.140625 271.90625 C 431.566406 272.144531 430.972656 272.328125 430.359375 272.449219 C 429.746094 272.570312 429.128906 272.632812 428.503906 272.632812 L 427.191406 272.632812 C 426.566406 272.632812 425.949219 272.570312 425.335938 272.449219 C 424.726562 272.328125 424.132812 272.144531 423.554688 271.90625 C 422.976562 271.667969 422.429688 271.375 421.910156 271.03125 C 421.394531 270.683594 420.914062 270.289062 420.472656 269.847656 C 420.03125 269.40625 419.636719 268.925781 419.289062 268.40625 C 418.941406 267.890625 418.652344 267.339844 418.410156 266.765625 C 418.171875 266.1875 417.992188 265.59375 417.871094 264.980469 C 417.75 264.371094 417.6875 263.753906 417.6875 263.128906 L 417.6875 261.8125 C 417.6875 261.191406 417.75 260.570312 417.871094 259.960938 C 417.992188 259.347656 418.171875 258.753906 418.410156 258.175781 C 418.652344 257.601562 418.941406 257.054688 419.289062 256.535156 C 419.636719 256.015625 420.03125 255.535156 420.472656 255.09375 C 420.914062 254.652344 421.394531 254.257812 421.910156 253.914062 C 422.429688 253.566406 422.976562 253.273438 423.554688 253.035156 C 424.132812 252.796875 424.726562 252.617188 425.335938 252.496094 C 425.949219 252.371094 426.566406 252.3125 427.191406 252.3125 Z M 427.191406 252.3125 " fill-opacity="1" fill-rule="nonzero"/><path fill="#3f1f1f" d="M 297.230469 464.394531 L 297.640625 464.394531 C 298.023438 464.394531 298.402344 464.433594 298.78125 464.507812 C 299.15625 464.582031 299.519531 464.695312 299.875 464.839844 C 300.230469 464.988281 300.566406 465.167969 300.882812 465.378906 C 301.203125 465.59375 301.496094 465.835938 301.769531 466.105469 C 302.039062 466.375 302.28125 466.671875 302.496094 466.992188 C 302.707031 467.308594 302.886719 467.644531 303.035156 468 C 303.179688 468.355469 303.292969 468.71875 303.367188 469.09375 C 303.441406 469.46875 303.476562 469.851562 303.476562 470.234375 L 303.476562 470.644531 C 303.476562 471.027344 303.441406 471.40625 303.367188 471.78125 C 303.292969 472.160156 303.179688 472.523438 303.035156 472.878906 C 302.886719 473.230469 302.707031 473.566406 302.496094 473.886719 C 302.28125 474.207031 302.039062 474.5 301.769531 474.773438 C 301.496094 475.042969 301.203125 475.285156 300.882812 475.496094 C 300.566406 475.710938 300.230469 475.890625 299.875 476.035156 C 299.519531 476.183594 299.15625 476.292969 298.78125 476.371094 C 298.402344 476.445312 298.023438 476.480469 297.640625 476.480469 L 297.230469 476.480469 C 296.847656 476.480469 296.46875 476.445312 296.089844 476.371094 C 295.714844 476.292969 295.351562 476.183594 294.996094 476.035156 C 294.640625 475.890625 294.304688 475.710938 293.988281 475.496094 C 293.667969 475.285156 293.375 475.042969 293.101562 474.773438 C 292.832031 474.5 292.589844 474.207031 292.375 473.886719 C 292.164062 473.566406 291.984375 473.230469 291.835938 472.878906 C 291.691406 472.523438 291.578125 472.160156 291.503906 471.78125 C 291.429688 471.40625 291.394531 471.027344 291.394531 470.644531 L 291.394531 470.234375 C 291.394531 469.851562 291.429688 469.46875 291.503906 469.09375 C 291.578125 468.71875 291.691406 468.355469 291.835938 468 C 291.984375 467.644531 292.164062 467.308594 292.375 466.992188 C 292.589844 466.671875 292.832031 466.375 293.101562 466.105469 C 293.375 465.835938 293.667969 465.59375 293.988281 465.378906 C 294.304688 465.167969 294.640625 464.988281 294.996094 464.839844 C 295.351562 464.695312 295.714844 464.582031 296.089844 464.507812 C 296.46875 464.433594 296.847656 464.394531 297.230469 464.394531 Z M 297.230469 464.394531 " fill-opacity="1" fill-rule="nonzero"/></svg>