<svg xmlns="http://www.w3.org/2000/svg" xmlns:xlink="http://www.w3.org/1999/xlink" width="1080" zoomAndPan="magnify" viewBox="0 0 810 809.999993" height="1080" preserveAspectRatio="xMidYMid meet" version="1.0"><defs><clipPath id="13c6282b84"><path d="M 64 235.699219 L 250 235.699219 L 250 440 L 64 440 Z M 64 235.699219 " clip-rule="nonzero"/></clipPath><clipPath id="92306b5d21"><path d="M 605 279 L 750.253906 279 L 750.253906 433 L 605 433 Z M 605 279 " clip-rule="nonzero"/></clipPath><clipPath id="3795a6aa6b"><path d="M 59.503906 450 L 193 450 L 193 573.949219 L 59.503906 573.949219 Z M 59.503906 450 " clip-rule="nonzero"/></clipPath><clipPath id="16a793a304"><path d="M 662 482 L 750.253906 482 L 750.253906 570 L 662 570 Z M 662 482 " clip-rule="nonzero"/></clipPath></defs><path fill="#000000" d="M 382.933594 556.074219 C 381.433594 550.402344 382.316406 530.992188 382.101562 525.117188 C 380.5 498.152344 357.027344 483.414062 337.082031 500.78125 C 329.160156 508.039062 328.109375 517.445312 327.921875 519.96875 C 327.914062 520.101562 327.910156 520.230469 327.910156 520.363281 C 327.878906 535.394531 327.847656 550.425781 327.820312 565.460938 C 327.8125 568.675781 325.203125 571.28125 321.984375 571.28125 L 321.980469 571.28125 C 318.683594 571.28125 316.058594 568.558594 316.148438 565.265625 C 316.800781 541.082031 309.222656 509.5625 328.097656 491.628906 C 340.492188 479.820312 369.726562 475.011719 384.148438 496.058594 C 399.457031 518.691406 392.65625 528.574219 394.1875 548.800781 C 394.738281 556.046875 394.964844 558.597656 398.773438 559.179688 C 401.664062 559.617188 403.84375 562.035156 403.84375 564.957031 L 403.84375 565.398438 C 403.84375 568.960938 400.660156 571.738281 397.140625 571.167969 C 388.886719 569.828125 384.488281 563.847656 382.933594 556.074219 Z M 382.933594 556.074219 " fill-opacity="1" fill-rule="nonzero"/><path fill="#000000" d="M 271.199219 483.410156 C 272.117188 482.484375 274.664062 481.835938 277.375 481.488281 C 280.863281 481.035156 283.957031 483.757812 283.957031 487.273438 L 283.957031 487.570312 C 283.957031 490.542969 281.71875 493.039062 278.761719 493.363281 C 277.351562 493.519531 276.152344 493.996094 275.78125 495.261719 C 272.921875 503.476562 274.8125 516.503906 274.308594 525.71875 C 274.300781 525.832031 274.300781 525.945312 274.300781 526.0625 C 275.039062 562.238281 238.183594 585.789062 208.421875 561.089844 C 208.28125 560.972656 208.144531 560.847656 208.015625 560.722656 C 189.34375 542.648438 196.929688 511.378906 196.269531 487.277344 C 196.175781 483.984375 198.800781 481.261719 202.097656 481.261719 C 205.316406 481.261719 207.925781 483.867188 207.933594 487.082031 C 207.964844 502.113281 207.992188 517.148438 208.023438 532.179688 C 208.023438 532.3125 208.027344 532.441406 208.039062 532.574219 C 208.222656 535.097656 209.273438 544.5 217.195312 551.761719 C 237.167969 569.132812 260.613281 554.378906 262.214844 527.421875 C 263.542969 513.816406 257.425781 493.449219 271.199219 483.410156 Z M 271.199219 483.410156 " fill-opacity="1" fill-rule="nonzero"/><g clip-path="url(#13c6282b84)"><path fill="#000000" d="M 211.496094 369.089844 C 211.496094 362.730469 217.632812 358.183594 223.738281 359.996094 C 267.523438 372.996094 251.65625 439.027344 205.914062 439.386719 C 165.804688 440.566406 116.246094 438.910156 74.359375 438.65625 C 69.039062 438.625 64.789062 434.230469 64.929688 428.914062 L 64.988281 426.601562 C 65.101562 422.390625 67.957031 418.679688 72.050781 417.679688 C 101.699219 410.445312 82.839844 346.476562 78.761719 316.996094 C 76.761719 293.875 80.863281 275.085938 90.949219 261.144531 C 103.121094 244.328125 123.09375 235.800781 150.316406 235.800781 C 201.289062 233.402344 215.792969 275.085938 211.367188 304.683594 C 210.511719 310.40625 204.816406 314.074219 199.261719 312.429688 L 197.78125 311.992188 C 193.21875 310.640625 190.4375 306.125 191.117188 301.417969 C 194.03125 281.335938 187.097656 254.25 150.3125 256.101562 C 132.59375 256.375 118.0625 259.535156 107.941406 272.351562 C 107.582031 272.804688 107.265625 273.300781 106.996094 273.808594 C 82.320312 320.453125 120.710938 356.074219 105.675781 406.605469 C 103.875 412.65625 108.300781 418.761719 114.617188 418.855469 C 146.558594 419.335938 184.40625 419.921875 205.144531 419.105469 C 216.902344 418.660156 226.808594 410.554688 229.238281 399.394531 C 230.886719 391.675781 226.339844 381.921875 218.085938 379.007812 C 214.199219 377.636719 211.496094 374.109375 211.496094 369.992188 C 211.496094 369.691406 211.496094 369.390625 211.496094 369.089844 Z M 211.496094 369.089844 " fill-opacity="1" fill-rule="nonzero"/></g><path fill="#000000" d="M 384.140625 284.648438 C 385.683594 283.09375 389.964844 282.007812 394.523438 281.417969 C 400.390625 280.660156 405.589844 285.234375 405.589844 291.148438 L 405.589844 291.644531 C 405.589844 296.640625 401.828125 300.839844 396.859375 301.386719 C 394.484375 301.648438 392.46875 302.445312 391.847656 304.574219 C 387.039062 318.390625 390.21875 340.296875 389.367188 355.789062 C 389.359375 355.976562 389.355469 356.167969 389.359375 356.359375 C 390.601562 417.183594 328.640625 456.785156 278.597656 415.253906 C 278.359375 415.058594 278.128906 414.851562 277.90625 414.636719 C 246.515625 384.242188 259.273438 331.675781 258.160156 291.15625 C 258.007812 285.617188 262.417969 281.039062 267.960938 281.039062 C 273.371094 281.039062 277.761719 285.417969 277.773438 290.824219 C 277.824219 316.097656 277.875 341.371094 277.925781 366.648438 C 277.925781 366.867188 277.929688 367.085938 277.949219 367.308594 C 278.257812 371.550781 280.023438 387.367188 293.34375 399.574219 C 326.929688 428.773438 366.34375 403.96875 369.039062 358.652344 C 371.269531 335.769531 360.984375 301.527344 384.140625 284.648438 Z M 384.140625 284.648438 " fill-opacity="1" fill-rule="nonzero"/><path fill="#000000" d="M 512.804688 409.628906 L 584.421875 409.628906 C 589.667969 409.628906 593.921875 413.878906 593.921875 419.125 L 593.921875 420.4375 C 593.921875 425.679688 589.667969 429.929688 584.421875 429.929688 L 468.648438 429.929688 C 460.53125 429.929688 456.152344 420.417969 461.433594 414.261719 L 544.152344 317.800781 C 549.429688 311.640625 545.054688 302.128906 536.9375 302.128906 L 462.761719 302.128906 C 457.511719 302.128906 453.261719 297.878906 453.261719 292.636719 L 453.261719 291.324219 C 453.261719 286.082031 457.511719 281.832031 462.761719 281.832031 L 581.09375 281.832031 C 589.210938 281.832031 593.589844 291.34375 588.308594 297.5 L 505.59375 393.960938 C 500.3125 400.117188 504.691406 409.628906 512.804688 409.628906 Z M 512.804688 409.628906 " fill-opacity="1" fill-rule="nonzero"/><g clip-path="url(#92306b5d21)"><path fill="#000000" d="M 736.546875 410.539062 C 737.101562 411.511719 739.007812 411.886719 741.253906 412.003906 C 746.277344 412.269531 750.253906 416.324219 750.253906 421.351562 L 750.253906 422.890625 C 750.253906 428.453125 745.480469 432.882812 739.941406 432.355469 C 729.800781 431.386719 722.152344 427.011719 717.605469 418.804688 C 714.710938 413.585938 707.722656 412.5 703.082031 416.25 C 680.085938 434.839844 644.28125 439.621094 620.882812 421.632812 C 611 413.84375 605.554688 402.691406 605.554688 390.226562 C 607.457031 339.894531 653.042969 337.675781 701.234375 337.207031 C 707.769531 337.144531 712.308594 330.652344 710.09375 324.503906 C 704.703125 309.566406 691.261719 298.503906 671.644531 299.367188 C 671.398438 299.378906 671.148438 299.378906 670.902344 299.363281 C 645.222656 298.039062 628.613281 314.230469 625.125 331.128906 C 624.238281 335.425781 620.367188 338.460938 615.976562 338.523438 L 614.921875 338.539062 C 608.824219 338.628906 604.222656 333.035156 605.492188 327.074219 C 607.285156 318.636719 611.445312 307.046875 621.0625 297.292969 C 641.808594 274.234375 696.386719 271.863281 717.210938 297.175781 C 747.300781 331.136719 724.242188 381.285156 736.546875 410.539062 Z M 709.699219 369.542969 C 711.429688 363.449219 706.863281 357.375 700.523438 357.414062 C 671.65625 357.582031 643.71875 359.296875 632.660156 370.769531 C 616.835938 388.921875 629.277344 413.089844 654.734375 412.59375 C 681.617188 413.273438 702.4375 395.058594 709.699219 369.542969 Z M 709.699219 369.542969 " fill-opacity="1" fill-rule="nonzero"/></g><g clip-path="url(#3795a6aa6b)"><path fill="#000000" d="M 172.804688 555.75 C 177.367188 558.824219 182.175781 561.0625 187.351562 561.941406 C 190.144531 562.414062 192.175781 564.847656 192.175781 567.679688 L 192.175781 568.109375 C 192.175781 571.695312 188.960938 574.453125 185.417969 573.871094 C 176.785156 572.449219 169.246094 568.394531 162.425781 563.160156 C 160.40625 561.605469 157.609375 561.488281 155.527344 562.953125 C 135.804688 576.808594 105.554688 577.078125 86.035156 562.859375 L 85.910156 563.03125 C 36.789062 530.4375 60.671875 449.257812 120.765625 450.222656 C 170.160156 448.59375 199.558594 509.46875 171.40625 547.410156 C 169.417969 550.089844 170.03125 553.886719 172.804688 555.75 Z M 120.765625 462.296875 C 91.273438 461.714844 68.542969 488.992188 71.25 516.765625 C 71.730469 521.707031 77.746094 523.863281 81.226562 520.316406 C 104.4375 496.671875 133.414062 514.507812 154.246094 538.191406 C 156.824219 541.125 161.511719 540.691406 163.574219 537.375 C 182.613281 506.71875 159.128906 461.039062 120.765625 462.296875 Z M 91.371094 551.84375 C 105.53125 562.976562 127.5625 564.371094 143.675781 556.003906 C 147.082031 554.234375 147.808594 549.671875 145.1875 546.871094 C 139.527344 540.828125 133.707031 534.375 128.0625 529.753906 C 127.929688 529.644531 127.804688 529.527344 127.683594 529.40625 C 109.152344 510.648438 67.855469 529.796875 91.371094 551.84375 Z M 91.371094 551.84375 " fill-opacity="1" fill-rule="nonzero"/></g><path fill="#000000" d="M 471.773438 536.28125 L 477.078125 536.222656 C 480.851562 536.175781 483.667969 539.667969 482.839844 543.347656 C 472.863281 587.601562 399.742188 578.921875 407.097656 527.257812 L 407.3125 527.257812 C 409.761719 489.398438 444.867188 468.585938 473.570312 486.605469 C 473.785156 486.742188 473.996094 486.890625 474.195312 487.054688 C 479.882812 491.675781 483.011719 498.210938 483.011719 505.496094 C 482.140625 535.347656 454.253906 536.808594 426.125 537.039062 C 422.121094 537.074219 419.339844 541.035156 420.664062 544.8125 C 428.984375 568.566406 472.742188 562.109375 471.777344 536.28125 Z M 426.789062 525 C 444.222656 524.875 459.6875 523.917969 466.648438 517.304688 C 466.8125 517.148438 466.96875 516.980469 467.113281 516.808594 C 476.1875 506.035156 468.777344 491.898438 453.761719 492.191406 C 437.863281 491.789062 425.523438 502.5 421.144531 517.546875 C 420.054688 521.285156 422.890625 525.027344 426.789062 525 Z M 426.789062 525 " fill-opacity="1" fill-rule="nonzero"/><path fill="#000000" d="M 508.714844 558.324219 C 508.992188 558.804688 509.824219 559.027344 510.847656 559.121094 C 513.882812 559.398438 516.238281 561.867188 516.238281 564.910156 L 516.238281 565.445312 C 516.238281 568.945312 513.171875 571.644531 509.695312 571.238281 C 490.734375 569.003906 494.855469 545.070312 494.496094 531.09375 L 494.367188 531.09375 L 494.367188 459.789062 C 494.367188 456.570312 496.980469 453.957031 500.203125 453.957031 L 500.613281 453.957031 C 503.835938 453.957031 506.449219 456.570312 506.449219 459.789062 L 506.449219 521.539062 L 506.578125 521.539062 C 507.410156 528.457031 504.445312 552.628906 508.714844 558.324219 Z M 508.714844 558.324219 " fill-opacity="1" fill-rule="nonzero"/><path fill="#000000" d="M 600.03125 558.285156 C 600.355469 558.851562 601.449219 559.078125 602.75 559.152344 C 605.8125 559.328125 608.1875 561.902344 608.1875 564.96875 L 608.1875 565.429688 C 608.1875 568.84375 605.253906 571.589844 601.851562 571.238281 C 595.953125 570.628906 591.496094 568.058594 588.816406 563.285156 C 587.050781 560.148438 582.859375 559.484375 580.054688 561.742188 C 566.375 572.75 545.132812 575.5625 531.242188 564.882812 C 525.363281 560.25 522.125 553.617188 522.125 546.203125 C 523.253906 516.269531 550.363281 514.949219 579.027344 514.671875 C 583.027344 514.632812 585.796875 510.675781 584.480469 506.898438 C 576.707031 484.664062 537.84375 488.867188 533.703125 510.695312 C 533.183594 513.421875 530.832031 515.417969 528.054688 515.457031 L 527.511719 515.464844 C 523.820312 515.519531 521.019531 512.179688 521.6875 508.550781 C 526.464844 482.507812 566.792969 468.695312 588.535156 490.859375 C 606.429688 511.058594 592.714844 540.886719 600.03125 558.285156 L 600.035156 558.285156 Z M 583.996094 534.140625 C 585.082031 530.402344 582.253906 526.664062 578.359375 526.6875 C 561.28125 526.796875 544.792969 527.839844 538.246094 534.628906 C 528.832031 545.429688 536.234375 559.800781 551.375 559.507812 C 567.28125 559.910156 579.617188 549.191406 583.996094 534.140625 Z M 583.996094 534.140625 " fill-opacity="1" fill-rule="nonzero"/><g clip-path="url(#16a793a304)"><path fill="#000000" d="M 750.253906 525.847656 C 750.253906 549.890625 730.683594 569.449219 706.625 569.449219 C 682.566406 569.449219 662.996094 549.890625 662.996094 525.847656 C 662.996094 501.808594 682.566406 482.246094 706.625 482.246094 C 730.683594 482.246094 750.253906 501.808594 750.253906 525.847656 Z M 738.171875 525.847656 C 738.171875 508.464844 724.019531 494.320312 706.625 494.320312 C 689.230469 494.320312 675.074219 508.464844 675.074219 525.847656 C 675.074219 543.234375 689.230469 557.375 706.625 557.375 C 724.019531 557.375 738.171875 543.234375 738.171875 525.847656 Z M 738.171875 525.847656 " fill-opacity="1" fill-rule="nonzero"/></g><path fill="#000000" d="M 297.410156 481.261719 L 297.398438 481.261719 C 297.398438 481.277344 297.398438 481.289062 297.398438 481.300781 L 297.148438 481.300781 C 293.925781 481.300781 291.3125 483.914062 291.3125 487.132812 L 291.3125 565.53125 C 291.3125 568.75 293.925781 571.363281 297.148438 571.363281 L 297.558594 571.363281 C 300.78125 571.363281 303.394531 568.75 303.394531 565.53125 L 303.394531 487.132812 C 303.394531 483.914062 300.78125 481.304688 297.558594 481.304688 L 297.40625 481.304688 C 297.40625 481.289062 297.410156 481.277344 297.410156 481.261719 Z M 297.410156 481.261719 " fill-opacity="1" fill-rule="nonzero"/><path fill="#000000" d="M 427.8125 281.039062 L 427.796875 281.039062 C 427.796875 281.0625 427.800781 281.082031 427.800781 281.105469 L 427.066406 281.105469 C 421.820312 281.105469 417.566406 285.355469 417.566406 290.597656 L 417.566406 423.03125 C 417.566406 428.273438 421.820312 432.527344 427.066406 432.527344 L 428.378906 432.527344 C 433.625 432.527344 437.878906 428.273438 437.878906 423.03125 L 437.878906 290.601562 C 437.878906 285.355469 433.625 281.105469 428.378906 281.105469 L 427.8125 281.105469 C 427.8125 281.085938 427.8125 281.0625 427.8125 281.039062 Z M 427.8125 281.039062 " fill-opacity="1" fill-rule="nonzero"/><path fill="#000000" d="M 624.066406 453.957031 L 624.160156 453.957031 L 624.160156 477.746094 L 624.066406 477.746094 Z M 624.066406 453.957031 " fill-opacity="1" fill-rule="nonzero"/><path fill="#000000" d="M 659.109375 536.566406 L 659.109375 527.789062 C 659.109375 524.566406 656.496094 521.957031 653.273438 521.957031 L 652.949219 521.957031 C 649.726562 521.957031 647.113281 524.566406 647.113281 527.789062 L 647.113281 547.53125 C 647.074219 548.546875 646.773438 553.851562 642.503906 557.375 C 639.460938 560.757812 631.855469 560.824219 628.773438 557.375 C 625.152344 554.375 624.464844 550.140625 624.3125 548.691406 C 624.296875 548.511719 624.289062 548.332031 624.285156 548.152344 C 624.164062 531.328125 624.125 514.324219 624.167969 497.378906 C 624.175781 494.160156 626.796875 491.558594 630.015625 491.5625 C 637.765625 491.574219 645.515625 491.585938 653.261719 491.597656 C 656.488281 491.605469 659.109375 488.992188 659.109375 485.765625 L 659.109375 483.578125 C 659.109375 480.359375 656.496094 477.746094 653.273438 477.746094 L 629.902344 477.746094 C 626.679688 477.746094 624.066406 475.136719 624.066406 471.914062 L 624.066406 459.789062 C 624.066406 456.570312 621.453125 453.957031 618.230469 453.957031 L 617.921875 453.957031 C 614.695312 453.957031 612.082031 456.574219 612.085938 459.796875 C 612.125 489.382812 612.167969 518.96875 612.207031 548.554688 C 611.566406 560.65625 622.789062 572.132812 636.222656 571.171875 C 636.511719 571.152344 636.804688 571.152344 637.09375 571.175781 C 648.699219 572.078125 658.703125 561.539062 659.109375 551.449219 C 659.4375 546.460938 658.792969 542.738281 659.109375 536.566406 Z M 659.109375 536.566406 " fill-opacity="1" fill-rule="nonzero"/><path fill="#000000" d="M 427.066406 252.292969 L 428.378906 252.292969 C 429.003906 252.292969 429.621094 252.355469 430.234375 252.476562 C 430.84375 252.597656 431.4375 252.777344 432.015625 253.015625 C 432.589844 253.257812 433.140625 253.546875 433.65625 253.894531 C 434.175781 254.242188 434.65625 254.632812 435.097656 255.074219 C 435.539062 255.515625 435.933594 255.996094 436.277344 256.515625 C 436.625 257.03125 436.917969 257.578125 437.15625 258.15625 C 437.394531 258.730469 437.574219 259.324219 437.695312 259.9375 C 437.820312 260.546875 437.878906 261.164062 437.878906 261.789062 L 437.878906 263.101562 C 437.878906 263.722656 437.820312 264.339844 437.695312 264.953125 C 437.574219 265.5625 437.394531 266.15625 437.15625 266.734375 C 436.917969 267.308594 436.625 267.855469 436.277344 268.375 C 435.933594 268.894531 435.539062 269.371094 435.097656 269.8125 C 434.65625 270.253906 434.175781 270.648438 433.65625 270.992188 C 433.140625 271.339844 432.589844 271.632812 432.015625 271.871094 C 431.4375 272.109375 430.84375 272.289062 430.234375 272.410156 C 429.621094 272.53125 429.003906 272.59375 428.378906 272.59375 L 427.066406 272.59375 C 426.441406 272.59375 425.824219 272.53125 425.214844 272.410156 C 424.601562 272.289062 424.007812 272.109375 423.429688 271.871094 C 422.855469 271.632812 422.308594 271.339844 421.789062 270.992188 C 421.269531 270.648438 420.789062 270.253906 420.347656 269.8125 C 419.90625 269.371094 419.515625 268.894531 419.167969 268.375 C 418.820312 267.855469 418.527344 267.308594 418.289062 266.734375 C 418.050781 266.15625 417.871094 265.5625 417.75 264.953125 C 417.628906 264.339844 417.566406 263.722656 417.566406 263.101562 L 417.566406 261.789062 C 417.566406 261.164062 417.628906 260.546875 417.75 259.9375 C 417.871094 259.324219 418.050781 258.730469 418.289062 258.15625 C 418.527344 257.578125 418.820312 257.03125 419.167969 256.515625 C 419.515625 255.996094 419.90625 255.515625 420.347656 255.074219 C 420.789062 254.632812 421.269531 254.242188 421.789062 253.894531 C 422.308594 253.546875 422.855469 253.257812 423.429688 253.015625 C 424.007812 252.777344 424.601562 252.597656 425.214844 252.476562 C 425.824219 252.355469 426.441406 252.292969 427.066406 252.292969 Z M 427.066406 252.292969 " fill-opacity="1" fill-rule="nonzero"/><path fill="#000000" d="M 297.148438 464.167969 L 297.558594 464.167969 C 297.941406 464.167969 298.324219 464.203125 298.699219 464.277344 C 299.074219 464.351562 299.4375 464.464844 299.792969 464.609375 C 300.148438 464.757812 300.484375 464.9375 300.800781 465.148438 C 301.121094 465.363281 301.414062 465.605469 301.6875 465.875 C 301.957031 466.144531 302.199219 466.441406 302.410156 466.757812 C 302.625 467.078125 302.804688 467.414062 302.953125 467.765625 C 303.097656 468.121094 303.207031 468.484375 303.285156 468.859375 C 303.359375 469.234375 303.394531 469.617188 303.394531 470 L 303.394531 470.40625 C 303.394531 470.789062 303.359375 471.171875 303.285156 471.546875 C 303.207031 471.921875 303.097656 472.285156 302.953125 472.640625 C 302.804688 472.992188 302.625 473.328125 302.410156 473.648438 C 302.199219 473.964844 301.957031 474.261719 301.6875 474.53125 C 301.414062 474.800781 301.121094 475.042969 300.800781 475.257812 C 300.484375 475.46875 300.148438 475.648438 299.792969 475.796875 C 299.4375 475.941406 299.074219 476.054688 298.699219 476.128906 C 298.324219 476.203125 297.941406 476.238281 297.558594 476.238281 L 297.148438 476.238281 C 296.765625 476.238281 296.386719 476.203125 296.011719 476.128906 C 295.636719 476.054688 295.269531 475.941406 294.917969 475.796875 C 294.5625 475.648438 294.226562 475.46875 293.90625 475.257812 C 293.589844 475.042969 293.292969 474.800781 293.023438 474.53125 C 292.753906 474.261719 292.511719 473.964844 292.296875 473.648438 C 292.085938 473.328125 291.90625 472.992188 291.757812 472.640625 C 291.613281 472.285156 291.5 471.921875 291.425781 471.546875 C 291.351562 471.171875 291.3125 470.789062 291.3125 470.40625 L 291.3125 470 C 291.3125 469.617188 291.351562 469.234375 291.425781 468.859375 C 291.5 468.484375 291.613281 468.121094 291.757812 467.765625 C 291.90625 467.414062 292.085938 467.078125 292.296875 466.757812 C 292.511719 466.441406 292.753906 466.144531 293.023438 465.875 C 293.292969 465.605469 293.589844 465.363281 293.90625 465.148438 C 294.226562 464.9375 294.5625 464.757812 294.917969 464.609375 C 295.269531 464.464844 295.636719 464.351562 296.011719 464.277344 C 296.386719 464.203125 296.765625 464.167969 297.148438 464.167969 Z M 297.148438 464.167969 " fill-opacity="1" fill-rule="nonzero"/></svg>