<svg xmlns="http://www.w3.org/2000/svg" xmlns:xlink="http://www.w3.org/1999/xlink" width="1080" zoomAndPan="magnify" viewBox="0 0 810 809.999993" height="1080" preserveAspectRatio="xMidYMid meet" version="1.0"><defs><clipPath id="d1343cb026"><path d="M 249 410 L 631.882812 410 L 631.882812 620 L 249 620 Z M 249 410 " clip-rule="nonzero"/></clipPath><clipPath id="9d89ade483"><path d="M 178.132812 164.042969 L 614 164.042969 L 614 646 L 178.132812 646 Z M 178.132812 164.042969 " clip-rule="nonzero"/></clipPath><clipPath id="cfa96d9d3d"><path d="M 525 553 L 631.882812 553 L 631.882812 620 L 525 620 Z M 525 553 " clip-rule="nonzero"/></clipPath></defs><g clip-path="url(#d1343cb026)"><path fill="#000000" d="M 615.984375 580.984375 C 598.949219 578.140625 583.125 570.882812 568.113281 560.9375 C 558.996094 554.894531 556.972656 542.601562 563.519531 533.914062 C 569.324219 526.214844 574.386719 518.222656 578.734375 510.007812 C 571.039062 507.863281 562.953125 500.179688 547.03125 484.164062 C 544.367188 490.042969 541.28125 495.808594 537.742188 501.414062 C 530.960938 512.164062 515.535156 513.558594 507.046875 504.058594 C 438.511719 427.34375 343.160156 369.574219 266.789062 446.164062 C 262.648438 450.316406 257.421875 452.042969 252.355469 451.8125 C 249.988281 457.425781 249.085938 462.101562 249.722656 466.1875 C 251.628906 478.375 262.230469 485.738281 279.316406 492.125 C 294.183594 451.488281 376.0625 432.167969 419.65625 475.605469 C 420.054688 476 420.464844 476.371094 420.902344 476.722656 C 439.464844 491.695312 458.617188 512.605469 477.246094 532.175781 C 485.875 541.246094 483.480469 556.023438 472.273438 561.753906 C 470.894531 562.460938 469.496094 563.140625 468.089844 563.800781 C 474.234375 567.375 480.515625 571.175781 486.917969 575.21875 C 493.289062 579.242188 499.394531 583.265625 505.234375 587.257812 C 506.390625 586.5 508.472656 585.253906 511.261719 584.265625 C 516.371094 582.453125 525.320312 578.390625 533.972656 584.929688 C 556.402344 601.886719 581.210938 615.015625 609.621094 619.625 C 621.277344 621.515625 631.859375 612.582031 631.859375 600.960938 L 631.859375 599.570312 C 631.859375 590.402344 625.171875 582.515625 615.984375 580.984375 Z M 615.984375 580.984375 " fill-opacity="1" fill-rule="nonzero"/></g><path fill="#000000" d="M 395.753906 258.234375 C 424.625 258.234375 451.742188 265.871094 475.207031 279.214844 C 471.199219 256.875 460.066406 235.777344 437.636719 223.414062 C 424.125 220.527344 410.117188 219 395.753906 219 C 350.132812 219 308.03125 234.332031 274.308594 260.097656 C 261.292969 286.9375 256.976562 312.273438 257.273438 337.015625 C 285.433594 289.875 336.964844 258.234375 395.753906 258.234375 Z M 395.753906 258.234375 " fill-opacity="1" fill-rule="nonzero"/><path fill="#000000" d="M 539.179688 502.3125 C 537.742188 501.804688 536.382812 501.15625 535.097656 500.414062 C 507.128906 548.351562 455.144531 580.640625 395.753906 580.640625 C 351.042969 580.640625 310.527344 562.335938 281.296875 532.832031 C 279.992188 544.050781 277.71875 555.558594 274.191406 567.410156 C 273.089844 571.117188 272.984375 574.828125 273.683594 578.296875 C 282.484375 585.078125 291.859375 591.140625 301.726562 596.40625 C 329.785156 611.375 361.792969 619.878906 395.753906 619.878906 C 428.894531 619.878906 460.175781 611.785156 487.742188 597.488281 C 518.664062 581.445312 544.902344 557.582031 563.824219 528.535156 C 559.847656 516.933594 551.179688 506.554688 539.179688 502.3125 Z M 539.179688 502.3125 " fill-opacity="1" fill-rule="nonzero"/><path fill="#000000" d="M 520.164062 262.394531 C 525.175781 282.363281 526.199219 303.015625 524.003906 321.894531 C 544.667969 348.996094 556.957031 382.804688 556.957031 419.4375 C 556.957031 432.523438 555.378906 445.25 552.421875 457.441406 C 552.449219 457.449219 552.472656 457.453125 552.5 457.460938 C 566.953125 461.757812 578.644531 468.503906 587.777344 476.9375 C 593.242188 458.714844 596.195312 439.414062 596.195312 419.4375 C 596.195312 355.878906 566.453125 299.144531 520.164062 262.394531 Z M 520.164062 262.394531 " fill-opacity="1" fill-rule="nonzero"/><path fill="#000000" d="M 209.957031 344.269531 C 200.527344 367.492188 195.316406 392.867188 195.316406 419.4375 C 195.316406 462.804688 209.167969 503 232.667969 535.832031 C 238.011719 480.976562 217.003906 401.285156 210.75 356.03125 C 210.40625 352.054688 210.148438 348.136719 209.957031 344.269531 Z M 209.957031 344.269531 " fill-opacity="1" fill-rule="nonzero"/><g clip-path="url(#9d89ade483)"><path fill="#737373" d="M 587.777344 476.9375 C 578.644531 468.503906 566.953125 461.757812 552.5 457.460938 C 552.472656 457.453125 552.449219 457.449219 552.421875 457.441406 C 538.0625 453.226562 523.644531 463.9375 523.644531 478.917969 L 523.644531 481.042969 C 523.644531 489.234375 528.1875 496.417969 535.097656 500.414062 C 536.382812 501.15625 537.742188 501.804688 539.179688 502.3125 C 551.179688 506.554688 559.847656 516.933594 563.824219 528.535156 C 566.292969 535.742188 566.957031 543.421875 565.472656 550.398438 C 559.742188 576.726562 536.382812 595.847656 508.667969 596.894531 C 502.332031 597.144531 495.316406 597.339844 487.742188 597.488281 C 460.175781 611.785156 428.894531 619.878906 395.753906 619.878906 C 361.792969 619.878906 329.785156 611.375 301.726562 596.40625 C 299.5625 596.375 297.410156 596.339844 295.269531 596.308594 C 284.242188 596.144531 275.667969 588.203125 273.683594 578.296875 C 272.984375 574.828125 273.089844 571.117188 274.191406 567.410156 C 277.71875 555.558594 279.992188 544.050781 281.296875 532.832031 C 289.640625 461.035156 258.035156 401.015625 257.273438 337.015625 C 256.976562 312.273438 261.292969 286.9375 274.308594 260.097656 C 275.261719 258.128906 276.257812 256.152344 277.308594 254.164062 C 277.945312 252.964844 278.691406 251.796875 279.535156 250.726562 C 303.390625 220.492188 337.644531 213.035156 379.417969 212.390625 C 404.214844 211.140625 423.246094 215.480469 437.636719 223.414062 C 460.066406 235.777344 471.199219 256.875 475.207031 279.214844 C 477.617188 292.671875 477.449219 306.570312 475.609375 319.285156 C 474 330.390625 480.554688 341.042969 491.316406 344.230469 L 494.804688 345.261719 C 507.898438 349.140625 521.320312 340.492188 523.339844 326.988281 C 523.589844 325.308594 523.808594 323.605469 524.007812 321.894531 C 526.199219 303.015625 525.175781 282.363281 520.164062 262.394531 C 506.757812 208.957031 464.792969 160.488281 379.421875 164.503906 C 315.253906 164.503906 268.171875 184.621094 239.480469 224.292969 C 217.433594 254.777344 207.527344 295.097656 209.957031 344.269531 C 210.148438 348.136719 210.40625 352.054688 210.75 356.03125 C 217.003906 401.285156 238.011719 480.976562 232.667969 535.832031 C 229.800781 565.28125 219.34375 587.574219 194.929688 593.535156 C 185.28125 595.890625 178.546875 604.644531 178.285156 614.578125 L 178.140625 620.03125 C 177.808594 632.570312 187.828125 642.9375 200.367188 643.011719 C 299.113281 643.613281 415.933594 647.523438 510.484375 644.738281 C 603.210938 644.011719 643.859375 528.71875 587.777344 476.9375 Z M 587.777344 476.9375 " fill-opacity="1" fill-rule="nonzero"/></g><g clip-path="url(#cfa96d9d3d)"><path fill="#000000" d="M 615.984375 580.984375 C 598.949219 578.140625 583.125 570.882812 568.113281 560.9375 C 565.351562 559.105469 563.242188 556.695312 561.824219 553.988281 C 549.644531 563.058594 537.46875 572.132812 525.292969 581.203125 C 528.378906 581.71875 531.371094 582.964844 533.972656 584.929688 C 556.402344 601.886719 581.210938 615.015625 609.621094 619.625 C 621.277344 621.515625 631.859375 612.582031 631.859375 600.960938 L 631.859375 599.570312 C 631.859375 590.402344 625.171875 582.515625 615.984375 580.984375 Z M 615.984375 580.984375 " fill-opacity="1" fill-rule="nonzero"/></g></svg>