<svg version="1.1" id="Layer_1" xmlns="http://www.w3.org/2000/svg" xmlns:xlink="http://www.w3.org/1999/xlink" x="0px" y="0px"
	 width="100%" viewBox="0 0 709 272" enable-background="new 0 0 709 272" xml:space="preserve">
<path fill="none" opacity="1.000000" stroke="#9C446E" stroke-linecap="round" stroke-linejoin="round" stroke-width="8.000000"
	d="
M335.500000,194.500000 
	C339.166656,191.166672 343.104980,188.083130 346.445801,184.450165 
	C354.429962,175.767776 354.881897,165.236038 352.376465,154.528915 
	C350.917480,148.294022 348.386169,142.302658 345.544922,136.478088 
	C341.944183,129.096649 340.203491,121.295319 339.264587,113.026726 
	C338.108490,102.844879 339.430542,92.607620 337.541748,82.492203 
	C333.842651,62.681366 323.702850,47.664875 305.494019,38.511917 
	C293.866089,32.666962 281.237488,30.409769 268.504120,30.688059 
	C249.176071,31.110481 230.901413,35.659061 217.048981,50.545582 
	C207.494675,60.813152 202.298843,73.290443 199.396912,86.978142 
	C197.034531,98.120842 197.249695,109.318466 197.632584,120.495461 
	C197.946106,129.647812 200.424438,138.602310 202.648758,147.462662 
	C204.021744,152.931763 204.006256,157.968231 200.922791,162.446838 
	C194.567841,171.677139 194.452057,181.691681 196.622910,191.974045 
	C197.194153,194.679794 198.201752,197.832077 201.500000,199.000000 
"/>
<path fill="none" opacity="1.000000" stroke="#9C446E" stroke-linecap="round" stroke-linejoin="round" stroke-width="8.000000"
	d="
M166.000000,82.000000 
	C164.890732,80.887970 164.166611,79.632217 163.980942,78.002174 
	C161.361313,55.005577 147.567337,41.509674 126.485420,34.544117 
	C108.045738,28.451567 91.098869,31.005310 76.548729,44.552338 
	C74.363602,46.586819 72.014671,46.347115 69.501930,46.526989 
	C56.275635,47.473785 48.443844,50.526234 44.710377,61.571114 
	C42.204170,68.985344 41.710648,76.822983 43.058247,85.072166 
	C43.925900,90.383408 47.945419,94.889359 46.255634,101.069893 
	C44.931591,105.912682 46.796772,111.392464 46.737083,116.496925 
	C46.683308,121.095627 49.101910,124.440277 50.709908,127.902512 
	C59.838661,147.557953 75.767014,158.986023 97.027145,161.794525 
	C111.190842,163.665573 124.612282,159.782776 136.492279,151.488953 
	C139.908264,149.104126 143.211182,146.418549 146.263504,143.731369 
	C148.510498,141.753159 149.543030,137.770309 151.579117,135.059418 
	C154.930008,130.597992 157.343750,125.544937 158.757416,120.432915 
	C160.426834,114.396118 160.799728,107.878471 160.364014,101.509300 
	C160.301025,100.588394 159.712479,98.943863 160.080933,98.582527 
	C164.646957,94.104790 163.085938,87.633705 165.500000,82.500000 
"/>
<path fill="none" opacity="1.000000" stroke="#9C446E" stroke-linecap="round" stroke-linejoin="round" stroke-width="8.000000"
	d="
M422.500000,174.500000 
	C415.784210,170.849121 408.436554,172.246445 401.517334,172.742126 
	C393.845032,173.291763 386.547180,176.300537 380.504913,181.505707 
	C372.092438,188.752701 367.058777,197.928070 366.608215,209.004395 
	C366.127655,220.818176 366.485931,232.666702 366.515320,244.499969 
	C366.519653,246.253479 366.729156,248.006485 366.892090,250.500000 
	C376.653748,250.500000 386.349457,250.871231 395.986877,250.284637 
	C399.070618,250.096939 401.996521,250.604996 405.000549,250.585785 
	C428.999573,250.432129 453.000000,250.502991 477.000000,250.494949 
	C479.212036,250.494202 481.476715,250.765289 483.500000,249.500000 
"/>
<path fill="none" opacity="1.000000" stroke="#9C446E" stroke-linecap="round" stroke-linejoin="round" stroke-width="8.000000"
	d="
M484.500000,249.500000 
	C494.833344,251.654205 505.166656,249.918594 516.000000,250.686462 
	C516.000000,244.168549 516.097839,238.832062 515.977600,233.500504 
	C515.786011,225.000748 516.118835,216.510086 515.607361,207.993546 
	C514.795044,194.467773 508.025940,184.689026 496.918823,178.137650 
	C485.588379,171.454529 473.174103,170.374863 460.500000,174.500000 
"/>
<path fill="none" opacity="1.000000" stroke="#9C446E" stroke-linecap="round" stroke-linejoin="round" stroke-width="8.000000"
	d="
M263.500000,65.500000 
	C266.754944,66.795570 268.697510,69.655029 270.958466,72.039383 
	C280.992096,82.620552 293.383331,88.699478 307.513672,91.429230 
	C310.084381,91.925842 312.833405,91.510788 315.499969,91.496811 
	C317.929047,91.484085 319.989746,92.155876 319.966278,94.999725 
	C319.889374,104.333801 320.843628,113.878021 319.214691,122.948761 
	C316.965973,135.470657 310.049988,145.813141 299.543243,153.558670 
	C294.842316,157.024185 289.378632,158.943253 284.408112,161.842438 
	C282.470184,162.972748 279.501282,162.449875 276.999756,162.477112 
	C270.667145,162.546036 264.257660,163.086578 258.028015,162.282944 
	C254.209869,161.790375 250.539307,159.397797 247.022202,157.459702 
	C232.343399,149.370911 223.350861,136.797501 220.737701,120.461975 
	C219.385910,112.011551 220.409714,103.165146 220.555466,94.500931 
	C220.598755,91.927109 222.827866,90.963287 225.004761,90.523590 
	C240.778549,87.337463 252.364197,77.794052 262.523315,66.020119 
	C263.391083,65.014412 262.754944,63.986935 263.000000,63.000000 
"/>
<path fill="none" opacity="1.000000" stroke="#9C446E" stroke-linecap="round" stroke-linejoin="round" stroke-width="8.000000"
	d="
M499.000000,90.000000 
	C499.473572,86.088463 501.461914,82.532921 501.522552,78.500336 
	C501.803131,59.837498 490.560822,45.310219 473.994110,38.514336 
	C461.787384,33.506958 448.887665,32.510269 436.014893,33.665962 
	C423.547943,34.785221 413.258972,40.542831 407.043488,52.023544 
	C405.845673,54.236088 404.292084,54.949184 402.000763,54.496101 
	C391.601318,52.439739 383.221680,57.184460 379.467102,66.987396 
	C376.669769,74.290894 377.280060,81.340073 379.916046,88.530777 
	C380.826263,91.013817 382.351318,91.395096 384.498413,91.526192 
	C386.332916,91.638191 388.243988,90.982674 390.000000,92.000000 
"/>
<path fill="none" opacity="1.000000" stroke="#9C446E" stroke-linecap="round" stroke-linejoin="round" stroke-width="8.000000"
	d="
M607.000000,187.500000 
	C600.221924,181.151428 591.797485,177.117447 584.504089,171.494659 
	C582.643250,170.060028 580.783447,171.538864 579.009338,171.649551 
	C573.636963,171.984711 568.299866,172.777206 562.973145,173.868958 
	C554.871765,175.529343 548.748840,180.414902 543.118042,185.627502 
	C533.824951,194.230545 528.525269,204.923584 527.268066,217.977661 
	C526.332092,227.696350 527.047852,237.341431 526.484070,246.999069 
	C526.291565,250.298035 527.702454,251.723557 531.000854,251.513306 
	C540.157349,250.929581 549.457825,250.697830 558.486023,250.967819 
	C571.325256,251.351761 584.168335,251.218872 597.001221,251.425781 
	C615.163147,251.718613 633.338928,251.752869 651.496582,251.347519 
	C657.018555,251.224228 662.499939,251.475845 668.000000,251.495819 
	C673.333252,251.515182 678.666870,251.523560 683.999939,251.487534 
	C685.920837,251.474548 687.840759,251.318359 690.500000,251.192596 
	C690.500000,242.681580 690.102844,234.317566 690.588989,226.005203 
	C691.408997,211.984451 687.463501,199.452698 678.357727,189.125473 
	C669.945068,179.584427 659.281982,173.183701 646.000793,172.485046 
	C644.994812,172.432098 644.002747,172.147430 642.999512,172.003250 
	C638.059570,171.293381 633.405151,170.539932 628.908020,174.392609 
	C622.872559,179.563171 614.751099,182.093369 610.000000,189.000000 
"/>
<path fill="none" opacity="1.000000" stroke="#9C446E" stroke-linecap="round" stroke-linejoin="round" stroke-width="8.000000"
	d="
M491.500031,91.999985 
	C485.000031,84.166649 478.465942,76.361191 472.022430,68.481674 
	C470.262177,66.329147 468.060455,65.966675 465.499908,65.974602 
	C449.333435,66.024689 433.166565,66.026665 417.000092,65.973953 
	C414.281982,65.965096 412.319458,66.637131 410.415741,68.930031 
	C404.309113,76.284943 397.814148,83.316757 391.557220,90.549500 
	C391.248138,90.906822 390.716614,91.407898 390.865234,92.518044 
	C391.710602,98.833466 390.470428,105.322403 390.845764,111.478920 
	C391.970123,129.921677 399.395264,145.330063 415.919067,155.629837 
	C424.419525,160.928421 433.435181,162.435547 443.000092,162.476700 
	C454.863495,162.527740 465.068573,157.794968 473.933411,150.419983 
	C482.789764,143.052063 488.080566,133.150269 490.375275,121.974388 
	C491.918640,114.457870 490.912292,106.668633 491.020782,99.000298 
	C491.051483,96.831703 491.333344,94.666664 491.500000,92.500000 
"/>
<path fill="none" opacity="1.000000" stroke="#9C446E" stroke-linecap="round" stroke-linejoin="round" stroke-width="9.000000"
	d="
M60.000000,144.000000 
	C51.383198,149.183167 42.634964,154.266022 37.027386,163.017548 
	C30.703712,172.886627 26.977051,182.969345 26.970011,195.499695 
	C26.960947,211.629379 27.055958,227.837830 26.508379,244.000290 
	C26.433229,246.218384 26.305130,248.465881 27.948601,251.035797 
	C35.333332,250.726074 43.197208,251.752502 50.983261,250.403397 
	C53.671101,249.937668 55.930294,251.121124 58.500595,251.106827 
	C88.499664,250.940094 118.500000,251.000000 148.500000,251.000000 
	C157.500000,251.000000 166.502106,250.885818 175.499054,251.051682 
	C179.551224,251.126404 181.068497,249.465027 181.040787,245.499710 
	C180.938293,230.833755 181.403427,216.151917 180.867508,201.504852 
	C180.466248,190.537827 180.011169,179.528091 174.135315,169.421326 
	C168.805923,160.254547 161.880661,152.980865 152.934814,147.608536 
	C151.051895,146.477768 149.325256,145.179367 147.500000,144.000000 
"/>
<path fill="none" opacity="1.000000" stroke="#9C446E" stroke-linecap="round" stroke-linejoin="round" stroke-width="8.000000"
	d="
M658.000000,101.500000 
	C666.463989,102.676277 673.494202,100.306740 679.025635,93.520889 
	C689.696533,80.430023 683.515747,62.316135 668.454895,57.645542 
	C664.530945,56.428658 662.166870,54.795151 660.401367,51.046467 
	C655.206604,40.016735 645.477966,35.736137 633.996277,34.535507 
	C633.024353,34.433872 631.995605,34.810730 631.000793,35.004051 
	C627.323914,35.718582 624.134399,35.981766 620.387573,33.683304 
	C612.399475,28.783068 603.873962,28.896952 596.047180,34.565159 
	C593.503296,36.407440 590.941162,35.717113 588.510376,35.416370 
	C572.957825,33.492222 562.239746,39.775616 556.011536,54.005051 
	C555.222961,55.806591 553.735596,56.656841 551.995239,56.973812 
	C541.762024,58.837601 535.632141,65.571663 533.749573,75.049568 
	C531.955078,84.083679 536.241211,91.297440 543.277039,97.743340 
	C548.714294,102.724670 554.315369,100.928284 560.000000,101.500000 
"/>
<path fill="none" opacity="1.000000" stroke="#9C446E" stroke-linecap="round" stroke-linejoin="round" stroke-width="8.000000"
	d="
M335.500000,195.000000 
	C336.358215,199.034134 339.055756,202.218491 340.677612,205.922226 
	C343.734772,212.903656 344.903564,220.052429 344.982025,227.500183 
	C345.062836,235.169601 345.000000,242.840530 345.000000,251.000000 
	C332.176514,251.000000 319.816833,250.545990 307.505981,251.126633 
	C294.992249,251.716858 282.497986,251.420197 269.999939,251.428940 
	C257.668884,251.437576 245.340866,251.704529 232.994125,251.125366 
	C220.771011,250.552002 208.500000,251.000000 195.355286,251.000000 
	C196.331223,235.571381 193.079865,219.911865 199.971436,204.986816 
	C207.691910,188.266693 220.608200,178.036362 238.534073,174.682053 
	C244.440552,173.576813 250.685898,171.770767 256.466217,172.341827 
	C264.357605,173.121460 272.239288,173.330887 279.982544,172.762360 
	C288.195251,172.159378 296.176453,173.580673 303.940826,174.859375 
	C314.456757,176.591248 323.645996,182.425110 330.956757,190.538956 
	C332.234985,191.957596 333.306488,193.526855 335.000000,194.500000 
"/>
<path fill="none" opacity="1.000000" stroke="#9C446E" stroke-linecap="round" stroke-linejoin="round" stroke-width="8.000000"
	d="
M159.500000,99.000000 
	C154.769470,97.188484 151.585785,93.053993 146.578995,91.277367 
	C139.437943,88.743401 132.109314,89.294800 124.980217,88.767410 
	C109.136124,87.595322 96.623055,80.545609 85.483337,70.017632 
	C83.937378,68.556572 82.166664,67.333336 80.500000,66.000000 
"/>
<path fill="none" opacity="1.000000" stroke="#9C446E" stroke-linecap="round" stroke-linejoin="round" stroke-width="8.000000"
	d="
M608.500000,66.500000 
	C608.670288,67.956970 608.096313,69.333778 609.918884,70.615349 
	C612.593506,72.496063 614.899719,74.938782 617.430786,77.081734 
	C625.667053,84.054893 634.617004,85.246025 644.505981,81.515854 
	C646.130188,80.903206 647.886353,80.629456 649.488892,79.972832 
	C652.737183,78.641830 654.554199,80.297447 655.424133,83.024208 
	C656.130615,85.238472 656.227539,87.659851 656.489502,90.001175 
	C657.613159,100.046158 655.733093,109.996147 655.453064,119.998688 
	C655.340454,124.019447 652.094238,127.699280 654.288757,132.132462 
	C652.259949,133.593277 650.244751,134.778275 648.935120,136.961060 
	C645.538757,142.621582 640.953796,147.215302 635.554565,151.076279 
	C633.993469,152.192657 631.174683,153.767685 631.692810,155.440277 
	C633.295105,160.612717 631.638428,165.916702 633.000000,171.000000 
"/>
<path fill="none" opacity="1.000000" stroke="#9C446E" stroke-linecap="round" stroke-linejoin="round" stroke-width="8.000000"
	d="
M608.500000,70.000000 
	C605.963684,70.640808 604.680359,72.850136 603.026367,74.526031 
	C594.308105,83.360039 584.203308,85.872025 572.503540,81.490479 
	C571.809387,81.230515 571.195801,80.745361 570.495483,80.513611 
	C563.497375,78.197746 562.225830,79.940041 561.757935,86.518349 
	C561.218750,94.097275 561.576111,101.871986 561.574036,109.499886 
	C561.571960,117.001167 564.572876,124.059425 563.420593,131.924088 
	C565.696472,133.167130 567.544678,135.250046 568.940857,137.536118 
	C573.135864,144.405045 579.040710,149.629425 585.613525,153.822021 
	C589.492188,156.296082 594.420715,157.331284 599.016418,158.431503 
	C608.790649,160.771484 618.298523,159.542099 627.553589,155.626740 
	C628.314392,155.304901 629.833313,154.343384 631.000000,155.500000 
"/>
<path fill="none" opacity="1.000000" stroke="#9C446E" stroke-linecap="round" stroke-linejoin="round" stroke-width="8.000000"
	d="
M245.500000,175.500000 
	C247.264862,184.671967 252.152145,191.302628 261.517242,193.423889 
	C272.592804,195.932602 283.086700,195.049164 290.958923,185.466263 
	C293.393829,182.502228 294.545715,178.834869 295.000000,175.000000 
"/>
<path fill="none" opacity="1.000000" stroke="#9C446E" stroke-linecap="round" stroke-linejoin="round" stroke-width="8.000000"
	d="
M608.500000,190.500000 
	C608.500000,210.333328 608.500000,230.166672 608.500000,250.000000 
"/>
<path fill="none" opacity="1.000000" stroke="#9C446E" stroke-linecap="round" stroke-linejoin="round" stroke-width="8.000000"
	d="
M155.000000,186.000000 
	C153.925858,187.037033 154.357544,188.428223 154.566544,189.486862 
	C155.887756,196.179428 154.165405,202.824570 154.440002,209.502472 
	C154.713684,216.157883 154.500000,222.833328 154.500000,229.500000 
	C154.500000,236.166672 154.500000,242.833328 154.500000,249.500000 
"/>
<path fill="none" opacity="1.000000" stroke="#9C446E" stroke-linecap="round" stroke-linejoin="round" stroke-width="8.000000"
	d="
M51.750000,185.500000 
	C52.944176,186.656296 52.703194,188.205429 52.446484,189.489304 
	C51.108883,196.178925 52.834591,202.824570 52.559990,209.502472 
	C52.286312,216.157883 52.500000,222.833328 52.500000,229.500000 
	C52.500000,236.166672 52.500000,242.833328 52.500000,249.500000 
"/>
<path fill="none" opacity="1.000000" stroke="#9C446E" stroke-linecap="round" stroke-linejoin="round" stroke-width="8.000000"
	d="
M41.000000,81.500000 
	C33.482372,81.498886 27.135483,89.973557 27.964506,97.004189 
	C28.197105,98.976761 28.119385,101.008354 27.980061,102.998604 
	C27.237230,113.609894 35.522137,121.227859 46.500000,119.500000 
"/>
<path fill="none" opacity="1.000000" stroke="#9C446E" stroke-linecap="round" stroke-linejoin="round" stroke-width="8.000000"
	d="
M166.500000,82.000000 
	C173.258118,82.398270 178.597763,87.890892 178.973679,95.001389 
	C179.131836,97.993034 178.913376,101.002960 179.015778,103.999458 
	C179.364319,114.199280 170.570633,121.493881 160.000000,119.500000 
"/>
<path fill="none" opacity="1.000000" stroke="#9C446E" stroke-linecap="round" stroke-linejoin="round" stroke-width="7.000000"
	d="
M561.000000,133.500000 
	C559.960510,135.735153 558.839111,137.905167 557.603821,140.059540 
	C552.139587,149.589478 550.673767,159.446838 556.479431,169.511856 
	C557.295105,170.925934 557.833313,172.500000 558.500000,174.000000 
"/>
<path fill="none" opacity="1.000000" stroke="#9C446E" stroke-linecap="round" stroke-linejoin="round" stroke-width="8.000000"
	d="
M654.500000,132.500000 
	C660.018799,138.267242 663.538574,145.031418 664.483154,153.001999 
	C665.400452,160.742340 662.796387,167.712326 659.500000,174.500000 
"/>
<path fill="none" opacity="1.000000" stroke="#9C446E" stroke-linecap="round" stroke-linejoin="round" stroke-width="7.000000"
	d="
M604.500000,110.500000 
	C602.936035,105.470184 601.321045,100.574997 596.017700,97.964020 
	C588.467407,94.246803 579.617432,97.550148 575.975891,105.488930 
	C572.423706,113.232697 578.476013,121.857361 583.985718,124.036179 
	C591.406189,126.970612 600.322815,123.075371 602.996277,115.498688 
	C603.522339,114.007874 604.000000,112.499992 604.500000,110.999992 
"/>
<path fill="none" opacity="1.000000" stroke="#9C446E" stroke-linecap="round" stroke-linejoin="round" stroke-width="8.000000"
	d="
M643.500000,110.500000 
	C642.256714,106.842148 640.820007,103.459961 638.100952,100.410011 
	C632.036987,93.608124 618.666138,96.172890 615.369873,104.448166 
	C612.209412,112.382507 614.325928,120.224243 622.551331,123.365555 
	C631.279907,126.699020 637.838989,124.083549 641.489685,115.995354 
	C642.227478,114.360802 642.833313,112.666656 643.500000,110.999992 
"/>
<path fill="none" opacity="1.000000" stroke="#9C446E" stroke-linecap="round" stroke-linejoin="round" stroke-width="8.000000"
	d="
M669.500000,102.000000 
	C670.323669,104.074379 672.238708,105.300652 673.457031,107.030266 
	C680.572449,117.132034 672.743408,130.673889 662.995911,131.448151 
	C660.744080,131.627014 658.844055,132.365540 657.000000,133.500000 
"/>
<path fill="none" opacity="1.000000" stroke="#9C446E" stroke-linecap="round" stroke-linejoin="round" stroke-width="8.000000"
	d="
M547.500000,102.000000 
	C545.842285,105.429916 543.054871,108.176109 541.952881,111.986366 
	C539.194946,121.521973 548.084534,131.586914 554.997559,131.405914 
	C557.801208,131.332520 560.071899,134.258209 563.000000,132.500000 
"/>
<path fill="none" opacity="1.000000" stroke="#9C446E" stroke-linecap="round" stroke-linejoin="round" stroke-width="8.000000"
	d="
M492.000000,92.000000 
	C497.642639,90.540764 503.165710,89.643730 507.504730,94.996162 
	C510.192230,98.311371 511.604401,101.848000 509.492218,105.996048 
	C507.518677,109.871803 504.548889,112.379700 499.999756,112.489235 
	C497.501190,112.549400 495.000000,112.500000 492.500000,112.500000 
"/>
<path fill="none" opacity="1.000000" stroke="#9C446E" stroke-linecap="round" stroke-linejoin="round" stroke-width="8.000000"
	d="
M79.500000,64.000000 
	C80.471634,68.756332 76.451759,71.209381 74.356689,74.406075 
	C72.941566,76.565300 70.346901,78.174683 67.964424,79.432625 
	C62.062866,82.548637 56.571011,86.048187 52.461536,91.470848 
	C51.086929,93.284721 49.321247,94.837547 47.000000,95.500000 
"/>
<path fill="none" opacity="1.000000" stroke="#9C446E" stroke-linecap="round" stroke-linejoin="round" stroke-width="8.000000"
	d="
M380.500000,90.500000 
	C378.666656,92.000000 376.779663,93.439682 375.011658,95.013084 
	C371.765106,97.902306 371.527374,102.188263 372.763092,105.398743 
	C374.158936,109.025360 377.378510,112.234314 382.001892,112.461525 
	C384.663452,112.592331 387.372955,112.800560 390.000000,112.000000 
"/>
<path fill="none" opacity="1.000000" stroke="#9C446E" stroke-linecap="round" stroke-linejoin="round" stroke-width="8.000000"
	d="
M87.500000,140.500000 
	C97.403862,146.434906 107.419167,146.584946 117.469795,140.946152 
	C118.203003,140.534790 118.816841,140.600693 119.500000,140.500000 
"/>
<path fill="none" opacity="1.000000" stroke="#9C446E" stroke-linecap="round" stroke-linejoin="round" stroke-width="8.000000"
	d="
M425.500000,172.000000 
	C436.000000,172.812958 446.500000,172.819382 457.000000,172.000000 
"/>
<path fill="none" opacity="1.000000" stroke="#9C446E" stroke-linecap="round" stroke-linejoin="round" stroke-width="8.000000"
	d="
M309.500000,219.500000 
	C309.500000,229.666672 309.500000,239.833328 309.500000,250.000000 
"/>
<path fill="none" opacity="1.000000" stroke="#9C446E" stroke-linecap="round" stroke-linejoin="round" stroke-width="9.000000"
	d="
M231.000000,223.000000 
	C231.000000,231.833328 231.000000,240.666672 231.000000,249.500000 
"/>
<path fill="none" opacity="1.000000" stroke="#9C446E" stroke-linecap="round" stroke-linejoin="round" stroke-width="8.000000"
	d="
M425.500000,162.000000 
	C424.057373,163.996002 424.403809,166.311096 424.559937,168.495712 
	C424.691345,170.334366 425.725616,172.164688 423.514313,173.523300 
	C422.455536,174.173813 422.353271,175.359589 422.506744,176.499100 
	C423.646545,184.962677 422.091309,193.645737 424.537964,201.988861 
	C424.993103,203.540787 425.941559,204.948044 426.679352,206.456772 
	C437.739105,204.818802 444.479919,197.202744 450.567230,188.547287 
	C452.172943,186.264191 453.777069,183.995483 456.920288,182.791840 
	C460.147186,181.556122 461.396149,176.722885 459.727203,174.728241 
	C456.874908,171.319382 457.888214,167.950775 457.465942,164.504166 
	C457.360413,163.642929 456.833344,162.833328 456.500000,162.000000 
"/>
<path fill="none" opacity="1.000000" stroke="#9C446E" stroke-linecap="round" stroke-linejoin="round" stroke-width="8.000000"
	d="
M557.500000,226.500000 
	C555.950867,234.413437 557.228882,242.206573 558.500000,250.000000 
"/>
<path fill="none" opacity="1.000000" stroke="#9C446E" stroke-linecap="round" stroke-linejoin="round" stroke-width="8.000000"
	d="
M458.000000,183.000000 
	C460.919800,186.154312 459.572418,189.990387 459.393127,193.494537 
	C459.221344,196.853180 458.088593,200.153427 457.520935,203.503555 
	C456.897217,207.184723 454.624603,207.253769 452.020203,205.959351 
	C448.541260,204.230270 444.747833,202.975815 442.000000,200.000000 
"/>
<path fill="none" opacity="1.000000" stroke="#9C446E" stroke-linecap="round" stroke-linejoin="round" stroke-width="8.000000"
	d="
M660.500000,226.500000 
	C660.216431,234.180786 661.322266,241.952179 659.000000,249.500000 
"/>
<path fill="none" opacity="1.000000" stroke="#9C446E" stroke-linecap="round" stroke-linejoin="round" stroke-width="7.000000"
	d="
M588.000000,201.999985 
	C593.166626,198.499985 598.222595,194.819290 603.537720,191.561554 
	C607.268372,189.275040 611.168945,188.868240 615.037903,191.952484 
	C618.864624,195.003143 623.050781,197.598709 626.976501,200.531479 
	C628.686707,201.809128 630.486633,202.160202 632.500000,202.000000 
"/>
<path fill="none" opacity="1.000000" stroke="#9C446E" stroke-linecap="round" stroke-linejoin="round" stroke-width="9.000000"
	d="
M50.500000,196.000015 
	C41.833332,195.916672 33.166668,195.833344 24.500000,195.750015 
"/>
<path fill="none" opacity="1.000000" stroke="#9C446E" stroke-linecap="round" stroke-linejoin="round" stroke-width="9.000000"
	d="
M156.500000,196.000000 
	C164.000000,196.000000 171.500000,196.000000 179.000000,196.000000 
"/>
<path fill="none" opacity="1.000000" stroke="#9C446E" stroke-linecap="round" stroke-linejoin="round" stroke-width="8.000000"
	d="
M398.500000,227.500000 
	C398.500000,236.166672 398.500000,244.833328 398.500000,253.500000 
"/>
<path fill="none" opacity="1.000000" stroke="#9C446E" stroke-linecap="round" stroke-linejoin="round" stroke-width="9.000000"
	d="
M484.000000,229.000000 
	C484.000000,236.666672 484.000000,244.333328 484.000000,252.000000 
"/>
<path fill="none" opacity="1.000000" stroke="#9C446E" stroke-linecap="round" stroke-linejoin="round" stroke-width="8.000000"
	d="
M424.500000,182.000000 
	C427.427673,182.263123 428.938446,184.394714 430.507507,186.494385 
	C433.562134,190.581955 436.148560,195.042114 440.000000,198.500000 
"/>
</svg>